<svg width="306" height="262" viewBox="0 0 306 262" fill="none" xmlns="http://www.w3.org/2000/svg">
<path fill-rule="evenodd" clip-rule="evenodd" d="M153 245.244C81.2175 179.279 12.75 122.616 12.75 73.7292C12.75 28.5818 51.867 11.9091 80.0827 11.9091C96.8107 11.9091 133.008 17.8755 153 64.9879C173.273 17.7326 209.916 12.0282 226.007 12.0282C258.391 12.0282 293.25 31.3328 293.25 73.7292C293.25 122.187 227.766 176.445 153 245.244ZM226.007 0.119091C197.918 0.119091 169.32 12.5284 153 38.6807C136.616 12.4093 108.094 0 80.0827 0C39.4995 0 0 26.0452 0 73.7292C0 129.237 71.0303 186.02 153 262C234.982 186.02 306 129.237 306 73.7292C306 25.9618 266.539 0.119091 226.007 0.119091Z" fill="url(#paint0_linear_222_71)" fill-opacity="0.65"/>
<defs>
<linearGradient id="paint0_linear_222_71" x1="153" y1="0" x2="153" y2="262" gradientUnits="userSpaceOnUse">
<stop stop-color="#CEA34F"/>
<stop offset="1" stop-color="#CEA34F" stop-opacity="0"/>
</linearGradient>
</defs>
</svg>
