<svg width="208" height="180" viewBox="0 0 208 180" fill="none" xmlns="http://www.w3.org/2000/svg">
<path d="M86.0815 62.7604C84.9748 60.735 85.9921 58.05 88.3556 56.7585C90.719 55.4671 93.5282 56.0611 94.6349 58.0865C95.7416 60.1118 94.7243 62.7968 92.3608 64.0883C89.9974 65.3798 87.1882 64.7857 86.0815 62.7604Z" fill="#855354"/>
<path d="M77.6058 66.6404C77.4896 66.8291 77.2909 67.0003 77.0922 67.1715C76.211 67.9661 75.4125 68.7782 74.5313 69.5728C73.279 70.758 72.1884 72.1054 71.5373 73.5884C70.5043 75.8436 70.4699 78.0541 71.8017 79.9565C73.7168 82.7925 76.6961 84.2329 80.5446 84.3217C82.9813 84.3679 84.9245 83.2434 86.3107 81.2335C87.0601 80.1978 87.509 79.0132 87.8189 77.8419C88.3789 75.6573 88.7737 73.4377 88.8344 71.2754C88.8416 71.021 88.8224 70.7184 88.8858 70.4332C88.9456 70.2753 89.0881 70.1348 89.2042 69.9461C89.3395 70.0601 89.5048 70.095 89.6401 70.2089C89.7754 70.3228 89.7982 70.4983 89.821 70.6737C89.9719 71.2174 90.1229 71.7611 90.2475 72.2566C90.6142 73.9975 91.206 75.6154 92.3569 77.053C94.4479 79.5423 97.5612 80.1581 100.983 78.664C102.218 78.1147 103.343 77.4997 104.416 76.7882C106.479 75.3479 108.106 73.6448 109.135 71.5168C109.663 70.4769 109.969 69.4328 110.028 68.3362C110.134 66.5248 109.453 65.1438 107.927 64.2241C107.408 63.9438 106.864 63.6154 106.315 63.4141C104.482 62.5999 102.592 61.8164 100.703 61.033C100.537 60.998 100.428 60.9323 100.293 60.8184C100.184 60.7527 100.105 60.608 100.109 60.4808C100.112 60.3537 100.311 60.1824 100.45 60.1692C100.701 60.0944 100.953 60.0196 101.23 59.9931C103.231 59.7764 105.157 59.288 107.036 58.4486C108.691 57.7323 110.267 56.8713 111.523 55.5589C113.547 53.5133 114.388 51.1749 113.709 48.7282C112.909 45.6588 110.747 43.7089 107.446 42.8828C105.136 42.2664 102.794 42.7947 100.727 44.3622C99.426 45.3238 98.3689 46.4651 97.5297 47.7377C96.7504 48.8524 96.0801 50.0327 95.3834 51.1649C95.1212 51.6213 94.889 51.9986 94.6268 52.455C94.5513 52.1831 94.5585 51.9288 94.6219 51.6436C94.9604 49.4548 95.0211 47.2925 94.6915 45.2182C94.3847 43.3194 93.5977 41.7456 92.3343 40.3695C90.5858 38.507 88.0245 37.9653 85.4167 39.0772C84.5199 39.442 83.5897 40.013 82.8246 40.6189C79.6555 42.9768 78.376 46.1182 79.2817 49.3805C79.6328 50.6916 80.2089 51.8796 80.7551 53.1467C81.1205 53.949 81.6247 54.738 82.0463 55.5096C81.99 55.5403 81.9338 55.5711 81.9038 55.65C81.6859 55.5187 81.4943 55.4355 81.3326 55.2734C79.51 54.0776 77.7137 52.93 75.5727 52.2213C74.3932 51.8013 73.2101 51.5085 71.881 51.4833C70.856 51.4798 69.8538 51.6517 68.9535 52.1437C67.5203 52.8642 66.6021 53.9921 66.1198 55.3829C64.9827 58.3838 65.0131 61.2477 66.2672 63.944C66.8661 65.3075 68.0349 66.1091 69.7508 66.1734C70.8021 66.2251 71.8534 66.2769 72.9083 66.2014C74.0458 66.1434 75.2695 65.9757 76.3807 65.8695C76.6585 65.8429 76.9926 65.7856 77.2967 65.8073C77.7661 65.8639 77.9505 66.2015 77.6058 66.6404ZM87.7495 55.6494C90.8445 53.9582 94.4799 54.727 95.9292 57.3792C97.3784 60.0314 96.0619 63.5062 92.9669 65.1974C89.8719 66.8886 86.2365 66.1198 84.7872 63.4676C83.3643 60.8636 84.6545 57.3406 87.7495 55.6494Z" fill="#DE8F6E"/>
<path d="M134.187 52.5043C134.296 52.57 134.379 52.5875 134.462 52.605C135.956 52.6651 137.413 53.0586 138.821 53.2284C140.477 53.4507 142.167 53.4668 143.883 53.5311C144.769 53.5479 145.629 53.5164 146.541 53.5814C150.029 53.6793 152.427 55.1246 153.958 57.7943C154.538 58.8552 155.088 59.995 155.668 61.0559C156.195 62.0204 156.808 62.8751 157.335 63.8395C157.971 64.8697 157.867 65.6154 156.655 66.3401C153.891 68.1012 150.96 68.8888 147.835 68.6546C144.437 68.3198 141.875 66.8396 139.919 64.4641C138.339 62.5093 137.461 60.2338 137.424 57.6243C137.38 56.2077 136.737 55.4319 135.362 55.0559C133.383 54.5094 131.393 54.3444 129.276 54.7497C127.02 55.1683 124.836 55.986 122.652 56.8036C120.048 57.7883 117.497 58.8694 114.975 59.8715C114.919 59.9023 114.806 59.9638 114.694 60.0253C114.942 60.0777 115.107 60.1126 115.272 60.1476C116.376 60.2957 117.507 60.4921 118.667 60.6096C119.745 60.7095 120.796 60.7612 121.847 60.813C122.842 60.8955 123.894 60.9472 124.889 61.0297C127.679 61.3211 129.892 62.4289 131.64 64.2914C132.798 65.4746 133.844 66.7192 134.916 68.0122C135.506 68.6915 135.319 69.4197 134.389 69.9906C133.601 70.4211 132.813 70.8516 131.946 71.1375C129.567 71.9991 127.203 72.352 124.799 72.0997C121.292 71.6992 119.067 70.0345 118.214 66.8686C117.965 65.8776 117.686 64.9656 117.437 63.9746C117.289 63.3037 116.857 62.9137 116.256 62.616C114.4 61.6264 112.237 61.6808 110.045 61.8143C108.99 61.8898 107.905 62.0442 106.85 62.1197C106.629 62.1155 106.351 62.142 106.159 62.0589C105.036 61.6081 103.995 61.1747 102.876 60.5968C102.958 60.6142 103.071 60.5528 103.154 60.5702C106.03 60.752 108.848 60.0259 111.614 59.2033C112.676 58.8735 113.712 58.4954 114.747 58.1174C116.147 57.603 117.362 56.7511 118.551 55.851C121.154 53.9277 123.434 51.6802 125.386 49.2356C125.817 48.687 125.997 48.2132 125.789 47.7002C125.559 47.0118 125.329 46.3234 125.043 45.6658C124.734 44.8327 124.312 44.0612 124.086 43.2456C123.358 40.5752 124.649 37.9909 127.357 36.2605C129.754 34.7629 132.306 33.6817 135.042 32.9382C136.745 32.4455 137.347 32.7432 137.72 34.2297C138.147 35.8127 138.266 37.5011 138.163 39.1854C138.053 41.124 137.177 42.73 135.395 44.0166C134.094 44.9782 132.714 45.7952 131.416 46.6296C130.823 47.0161 130.121 47.3369 129.529 47.7233C128.512 48.404 127.575 49.2294 126.829 50.1379C125.712 51.4371 124.513 52.7187 123.369 53.9697C123.197 54.1891 122.998 54.3604 122.935 54.6455C123.831 54.2807 124.785 53.8852 125.681 53.5204C131.118 51.3008 136.627 49.4804 142.385 48.6509C144.611 48.3113 146.841 47.8445 148.998 46.9786C150.203 46.5083 150.574 46.1176 150.775 44.8806C150.946 43.7226 151.061 42.5953 151.314 41.4548C151.505 40.5994 151.834 39.7307 152.246 38.8795C153.421 36.4838 155.378 34.8506 158.062 34.0106C160.298 33.2894 162.547 33.1252 164.721 33.6277C165.382 33.7674 165.984 34.0652 166.558 34.3147C167.16 34.6124 167.367 35.1254 167.18 35.8536C166.206 39.9552 163.575 42.896 159.312 44.7242C157.883 45.3175 156.374 45.7662 154.918 46.3113C153.687 46.7334 152.535 47.3001 151.185 48.0381C151.572 48.0772 151.82 48.1297 152.041 48.1339C159.896 48.6008 167.13 50.4718 173.364 54.3918C174.345 54.983 175.505 55.1005 176.699 55.0117C177.615 54.9495 178.531 54.8874 179.447 54.8252C180.002 54.7721 180.502 54.7497 181.084 54.7448C185.461 54.7323 188.614 56.8918 189.701 60.6189C190.078 61.9782 190.261 63.3815 190.443 64.7848C190.599 66.1399 190.616 67.5083 190.659 68.9249C190.708 69.1486 190.675 69.3547 190.668 69.6091C190.593 70.2758 190.166 70.6972 189.415 70.7944C189.081 70.8517 188.721 70.8608 188.39 70.7909C186.1 70.477 183.783 70.115 181.522 69.7222C180.557 69.5608 179.655 69.1142 178.806 68.764C176.289 67.6346 174.875 65.7148 174.42 63.1451C174.227 62.1233 174.091 61.0709 174.037 60.0358C173.797 57.7247 172.679 56.0809 170.605 54.9599C168.231 53.6901 165.74 52.6089 162.964 51.8086C163.07 52.0015 163.096 52.0497 163.179 52.0672C164.757 53.0834 165.938 54.442 167.089 55.8796C167.732 56.6553 168.431 57.4003 169.359 57.8951C170.997 58.7534 172.238 59.954 172.77 61.7299C173.102 62.7383 173.182 63.8216 172.929 64.9621C172.708 65.8965 172.432 66.8616 172.047 67.7611C171.418 69.4195 170.737 70.9814 170.053 72.6706C169.517 73.9649 168.869 74.3821 167.52 74.0543C162.18 72.8396 160.515 68.9902 161.886 64.5461C162.342 63.1072 163.02 61.6724 163.806 60.3034C164.739 58.6666 164.388 57.3555 163.62 56.0843C163.089 55.2471 162.334 54.5328 161.548 53.8975C157.996 51.1419 153.677 50.0579 148.83 50.0138C144.066 49.9871 139.332 50.8201 134.638 52.2583C134.413 52.3813 134.3 52.4428 134.187 52.5043Z" fill="#CEA34F" fill-opacity="0.66"/>
<path d="M75.8791 66.9576C75.6505 67.2078 75.508 67.3483 75.3655 67.4888C73.517 69.1877 71.6386 70.9656 69.7338 72.6952C66.1194 76.1106 63.2978 79.9068 61.4306 84.246C60.5137 86.3125 60.4829 88.3958 60.5646 90.4177C60.6223 91.3255 60.6799 92.2333 60.9889 93.0664C61.4489 94.4431 62.4226 95.2888 63.8236 95.713C64.6199 95.9667 65.476 96.0625 66.3023 96.2372C67.2937 96.4469 68.345 96.4986 69.3066 96.7872C74.3095 98.1864 76.8186 101.575 77.2648 106.403C77.3751 107.407 77.2076 108.438 77.0402 109.469C76.9732 109.881 76.8236 110.276 76.6476 110.623C76.322 111.364 75.6169 111.812 74.7871 111.765C72.3803 111.64 69.9436 111.593 67.6074 110.929C63.3181 109.766 60.8475 106.983 59.7117 103.032C59.4098 101.945 59.303 100.813 59.1963 99.6818C59.086 98.6775 59.0583 97.6907 58.9743 96.7347C58.9024 96.3356 58.8305 95.9366 58.6197 95.5508C58.5862 95.757 58.5228 96.0421 58.4893 96.2483C58.2861 98.551 58.0266 100.885 57.8498 103.236C57.4398 107.968 56.5042 112.675 54.7388 117.334C53.8112 119.783 52.692 122.147 51.325 124.46C50.7708 125.452 50.3818 126.478 50.2143 127.509C50.0397 128.794 49.8651 130.08 49.6078 131.347C49.28 133.155 48.4828 134.905 47.3025 136.49C45.6612 138.701 43.4331 140.107 40.7798 140.868C38.0702 141.66 35.3079 142.355 32.572 143.098C31.7351 143.305 31.2429 143.073 31.0129 142.385C30.9338 142.24 30.9111 142.065 30.8883 141.889C30.7168 140.105 30.5716 138.368 30.8168 136.543C31.4148 132.021 35.2721 127.846 40.1584 126.491C41.4983 126.135 42.8345 125.906 44.2235 125.773C44.8617 125.737 45.5298 125.623 46.1716 125.46C47.7629 125.029 49.0343 124.146 49.7945 122.729C51.4308 119.706 52.7103 116.564 53.5767 113.335C53.6366 113.178 53.6138 113.002 53.591 112.827C53.5048 112.936 53.4186 113.046 53.2761 113.187C50.9417 116.403 47.7726 118.761 44.1484 120.554C42.5464 121.367 40.8654 122.035 39.1352 122.479C36.5382 123.21 34.3337 122.786 32.6344 121.147C31.7434 120.319 31.3026 119.245 31.282 118.004C31.2436 117.398 31.2615 116.762 31.3619 116.144C31.5437 114.604 31.7817 113.034 31.9635 111.494C32.1345 110.336 32.5356 109.867 33.8156 109.668C35.0393 109.501 36.3456 109.35 37.5059 109.468C40.6826 109.798 42.6299 111.49 43.4373 114.305C43.562 114.8 43.6866 115.296 43.8112 115.791C43.9358 116.287 44.2891 116.532 44.871 116.527C45.896 116.531 46.7963 116.039 47.644 115.45C48.773 114.708 49.714 113.755 50.546 112.737C53.3869 109.244 55.1273 105.475 55.4667 101.281C55.8025 97.2155 56.3598 93.1537 57.4165 89.0695C57.9765 86.8849 58.7281 84.7834 59.7013 82.6861C59.8174 82.4974 59.8509 82.2912 60.0269 81.9446C59.6856 82.2563 59.5168 82.3485 59.3181 82.5198C57.5294 84.0607 55.7408 85.6017 53.9785 87.1909C53.3822 87.7046 52.8387 88.3147 52.4042 88.9905C51.8272 89.8067 51.389 90.6097 50.921 91.4917C49.8425 93.3961 48.5759 95.0901 46.8435 96.6003C44.9423 98.2028 42.7249 99.2266 40.323 99.9129C38.897 100.379 37.5009 100.766 36.0749 101.232C34.7052 101.668 33.995 101.304 33.9745 100.063C33.9191 98.0895 34.0852 96.1201 34.8069 94.0975C35.6818 91.553 37.1578 89.3062 39.2087 87.3088C41.5444 85.0306 44.3102 84.208 47.4044 84.5212C48.5084 84.6693 49.6088 84.9447 50.6829 85.1718C51.2613 85.2942 51.8959 85.3857 52.5042 85.4291C53.0298 85.4549 53.5064 85.2571 53.9601 84.884C55.7224 83.2948 57.4021 81.6881 59.1644 80.0989C61.2117 78.2288 62.9583 76.2097 64.7613 74.16C66.5942 72.0313 68.536 69.9683 70.7485 68.1331C70.8048 68.1023 70.861 68.0716 70.891 67.9926C71.7721 67.198 72.6725 66.706 73.8627 66.7445C74.2231 66.7354 74.6134 66.6473 74.9738 66.6382C75.3834 66.8528 75.6313 66.9052 75.8791 66.9576Z" fill="#CEA34F" fill-opacity="0.66"/>
<path d="M114.594 110.928C114.041 109.915 114.523 108.524 115.761 107.848C116.943 107.202 118.404 107.468 118.983 108.529C119.537 109.542 119.055 110.933 117.817 111.609C116.579 112.286 115.148 111.94 114.594 110.928Z" fill="#855354"/>
<path d="M96.7053 111.623C97.3747 112.447 98.3028 112.942 99.3434 113.375C101.729 114.263 104.297 114.551 106.992 114.268C108.243 114.148 109.414 113.884 110.637 113.716C110.832 113.672 111.054 113.677 111.388 113.619C111.017 114.01 110.758 114.339 110.53 114.589C108.31 116.679 106.913 119.07 106.144 121.808C105.774 123.137 105.543 124.453 105.811 125.747C106.394 128.685 109.8 129.704 112.681 127.754C113.953 126.871 114.897 125.791 115.654 124.501C116.961 122.347 117.663 120.022 117.923 117.688C117.93 117.434 117.993 117.149 118.03 116.815C118.192 116.977 118.275 116.995 118.301 117.043C119.926 119.349 122.324 120.794 125.096 121.721C126.11 122.106 127.214 122.255 128.382 122.118C129.77 121.985 131.058 121.532 132.055 120.549C133.506 119.192 133.883 117.609 133.651 115.982C133.436 114.785 132.882 113.772 132.078 112.834C130.197 110.73 127.74 109.443 124.852 108.704C124.604 108.652 124.27 108.709 124.112 108.42C125.237 107.805 126.306 107.221 127.376 106.636C128.839 105.837 130.084 104.906 131.254 103.703C132.281 102.641 133.007 101.43 133.212 100.066C133.453 98.3682 132.712 97.1451 131.093 96.5895C129.365 95.9682 127.639 96.2855 125.924 97.1597C123.478 98.4337 121.491 100.146 119.77 102.213C119.542 102.463 119.369 102.683 119.141 102.933C119.088 102.837 119.088 102.837 119.088 102.837C119.091 102.709 119.121 102.63 119.069 102.534C119.376 99.4855 119.011 96.6788 117.84 94C117.317 92.9084 116.594 91.988 115.561 91.3003C114.636 90.6783 113.589 90.4994 112.391 90.7153C111.025 91.0235 110.17 91.8663 109.53 92.9677C108.833 94.0999 108.523 95.2712 108.405 96.5256C108.175 98.7802 108.419 100.964 108.996 103.091C109.095 103.538 109.275 104.003 109.426 104.547C109.07 104.428 108.852 104.297 108.604 104.245C107.642 103.956 106.711 103.588 105.719 103.379C104.371 103.051 102.959 103.008 101.454 103.33C98.9168 103.902 97.0755 105.347 96.0688 107.65C95.4177 109.133 95.7124 110.475 96.7053 111.623ZM115.099 106.77C117.012 105.724 119.326 106.213 120.221 107.853C121.117 109.493 120.28 111.704 118.366 112.749C116.453 113.795 114.14 113.305 113.244 111.666C112.348 110.026 113.186 107.815 115.099 106.77Z" fill="#DE8F6E"/>
<path d="M152.235 107.33C153.108 108.794 153.628 110.013 153.866 111.385C153.889 111.561 153.912 111.736 153.935 111.912C153.94 112.723 153.426 113.254 152.566 113.286C152.206 113.295 151.819 113.256 151.432 113.216C149.585 112.911 147.726 112.987 145.805 113.348C144.663 113.534 143.466 113.75 142.299 113.887C137.801 114.215 134.18 112.937 131.409 110.006C131.059 109.633 130.792 109.278 130.555 108.844C130.025 108.007 130.023 107.068 130.604 106.125C132.462 103.106 135.124 101.025 138.671 100.026C141.155 99.3571 143.39 99.7017 145.467 100.696C148.751 102.158 150.812 104.726 152.235 107.33Z" fill="#837F62"/>
<path d="M135.929 122.69C135.353 121.502 135.111 120.257 135.12 118.937C135.111 118.252 135.129 117.616 135.177 116.901C135.228 116.059 135.716 115.48 136.635 115.291C137.165 115.189 137.72 115.136 138.246 115.162C140.957 115.309 142.974 116.461 144.531 118.24C146.224 120.133 147.297 122.365 147.837 124.825C147.864 124.873 147.89 124.921 147.86 125C148.076 126.197 147.502 126.886 146.143 126.94C145.505 126.976 144.923 126.981 144.315 126.937C142.573 126.825 140.947 126.523 139.47 125.827C137.855 125.145 136.637 124.119 135.929 122.69Z" fill="#837F62"/>
<path d="M105.53 94.3395C106.162 95.4968 106.404 96.7422 106.451 98.0316C106.46 98.7158 106.524 99.3692 106.45 100.036C106.399 100.878 105.968 101.427 105.018 101.695C104.516 101.845 103.96 101.898 103.378 101.903C100.693 101.804 98.5895 100.762 96.9763 99.0134C95.2278 97.1509 94.1247 94.9983 93.5016 92.5208C93.4753 92.4726 93.4489 92.4244 93.4226 92.3762C93.1242 91.1616 93.6977 90.4725 95.113 90.3879C95.7512 90.3523 96.3894 90.3167 96.9713 90.3118C98.6872 90.3761 100.37 90.6466 101.876 91.2637C103.491 91.9465 104.683 92.9236 105.53 94.3395Z" fill="#837F62"/>
</svg>
