<svg width="208" height="180" viewBox="0 0 208 180" fill="none" xmlns="http://www.w3.org/2000/svg">
<path d="M121.834 62.7604C122.941 60.735 121.923 58.05 119.56 56.7585C117.196 55.4671 114.387 56.0611 113.28 58.0865C112.174 60.1118 113.191 62.7968 115.555 64.0883C117.918 65.3798 120.727 64.7857 121.834 62.7604Z" fill="#855354"/>
<path d="M130.31 66.6404C130.426 66.8291 130.625 67.0003 130.823 67.1715C131.704 67.9661 132.503 68.7782 133.384 69.5728C134.636 70.758 135.727 72.1054 136.378 73.5884C137.411 75.8436 137.445 78.0541 136.114 79.9565C134.199 82.7925 131.219 84.2329 127.371 84.3217C124.934 84.3679 122.991 83.2434 121.605 81.2335C120.855 80.1978 120.406 79.0132 120.097 77.8419C119.536 75.6573 119.142 73.4377 119.081 71.2754C119.074 71.021 119.093 70.7184 119.03 70.4332C118.97 70.2753 118.827 70.1348 118.711 69.9461C118.576 70.0601 118.411 70.095 118.275 70.2089C118.14 70.3228 118.117 70.4983 118.094 70.6737C117.943 71.2174 117.792 71.7611 117.668 72.2566C117.301 73.9975 116.709 75.6154 115.559 77.053C113.467 79.5423 110.354 80.1581 106.932 78.664C105.698 78.1147 104.572 77.4997 103.5 76.7882C101.437 75.3479 99.8098 73.6448 98.7804 71.5168C98.2525 70.4769 97.9461 69.4328 97.8876 68.3362C97.7813 66.5248 98.4629 65.1438 99.9885 64.2241C100.507 63.9438 101.052 63.6154 101.6 63.4141C103.434 62.5999 105.323 61.8164 107.213 61.033C107.378 60.998 107.487 60.9323 107.622 60.8184C107.731 60.7527 107.81 60.608 107.807 60.4808C107.803 60.3537 107.605 60.1824 107.466 60.1692C107.214 60.0944 106.963 60.0196 106.685 59.9931C104.684 59.7764 102.759 59.288 100.879 58.4486C99.2244 57.7323 97.6488 56.8713 96.3929 55.5589C94.3684 53.5133 93.527 51.1749 94.2064 48.7282C95.0067 45.6588 97.1683 43.7089 100.47 42.8828C102.78 42.2664 105.122 42.7947 107.188 44.3622C108.489 45.3238 109.546 46.4651 110.386 47.7377C111.165 48.8524 111.835 50.0327 112.532 51.1649C112.794 51.6213 113.026 51.9986 113.289 52.455C113.364 52.1831 113.357 51.9288 113.294 51.6436C112.955 49.4548 112.894 47.2925 113.224 45.2182C113.531 43.3194 114.318 41.7456 115.581 40.3695C117.33 38.507 119.891 37.9653 122.499 39.0772C123.395 39.442 124.326 40.013 125.091 40.6189C128.26 42.9768 129.539 46.1182 128.634 49.3805C128.283 50.6916 127.706 51.8796 127.16 53.1467C126.795 53.949 126.291 54.738 125.869 55.5096C125.925 55.5403 125.982 55.5711 126.012 55.65C126.23 55.5187 126.421 55.4355 126.583 55.2734C128.405 54.0776 130.202 52.93 132.343 52.2213C133.522 51.8013 134.705 51.5085 136.034 51.4833C137.059 51.4798 138.062 51.6517 138.962 52.1437C140.395 52.8642 141.313 53.9921 141.796 55.3829C142.933 58.3838 142.902 61.2477 141.648 63.944C141.049 65.3075 139.88 66.1091 138.165 66.1734C137.113 66.2251 136.062 66.2769 135.007 66.2014C133.87 66.1434 132.646 65.9757 131.535 65.8695C131.257 65.8429 130.923 65.7856 130.619 65.8073C130.149 65.8639 129.965 66.2015 130.31 66.6404ZM120.166 55.6494C117.071 53.9582 113.436 54.727 111.986 57.3792C110.537 60.0314 111.854 63.5062 114.949 65.1974C118.044 66.8886 121.679 66.1198 123.128 63.4676C124.551 60.8636 123.261 57.3406 120.166 55.6494Z" fill="#DE8F6E"/>
<path d="M73.728 52.5043C73.619 52.57 73.5364 52.5875 73.4538 52.605C71.9594 52.6651 70.5021 53.0586 69.094 53.2284C67.4379 53.4507 65.7484 53.4668 64.0325 53.5311C63.1465 53.5479 62.2867 53.5164 61.3743 53.5814C57.8863 53.6793 55.4889 55.1246 53.957 57.7943C53.3773 58.8552 52.8275 59.995 52.2478 61.0559C51.7208 62.0204 51.1076 62.8751 50.5806 63.8395C49.9446 64.8697 50.0487 65.6154 51.2603 66.3401C54.0248 68.1012 56.9559 68.8888 60.0799 68.6546C63.4782 68.3198 66.0408 66.8396 67.9966 64.4641C69.5762 62.5093 70.4543 60.2338 70.4918 57.6243C70.5351 56.2077 71.1783 55.4319 72.5529 55.0559C74.5323 54.5094 76.5224 54.3444 78.6393 54.7497C80.8951 55.1683 83.0791 55.986 85.263 56.8036C87.8671 57.7883 90.4186 58.8694 92.9402 59.8715C92.9964 59.9023 93.109 59.9638 93.2215 60.0253C92.9737 60.0777 92.8084 60.1126 92.6432 60.1476C91.5391 60.2957 90.4088 60.4921 89.2485 60.6096C88.1708 60.7095 87.1195 60.7612 86.0682 60.813C85.0731 60.8955 84.0218 60.9472 83.0268 61.0297C80.2368 61.3211 78.0238 62.4289 76.2754 64.2914C75.1173 65.4746 74.0718 66.7192 72.9999 68.0122C72.4095 68.6915 72.5962 69.4197 73.5264 69.9906C74.3142 70.4211 75.1021 70.8516 75.9689 71.1375C78.348 71.9991 80.7128 72.352 83.116 72.0997C86.6232 71.6992 88.8482 70.0345 89.7013 66.8686C89.9505 65.8776 90.2296 64.9656 90.4789 63.9746C90.6262 63.3037 91.0586 62.9137 91.6597 62.616C93.5158 61.6264 95.6783 61.6808 97.8707 61.8143C98.9256 61.8898 100.01 62.0442 101.065 62.1197C101.287 62.1155 101.565 62.142 101.756 62.0589C102.879 61.6081 103.92 61.1747 105.04 60.5968C104.957 60.6142 104.845 60.5528 104.762 60.5702C101.886 60.752 99.0672 60.0259 96.3013 59.2033C95.2393 58.8735 94.2036 58.4954 93.1679 58.1174C91.7683 57.603 90.5531 56.7511 89.3642 55.851C86.7614 53.9277 84.4819 51.6802 82.5293 49.2356C82.0984 48.687 81.9188 48.2132 82.1261 47.7002C82.3561 47.0118 82.5861 46.3234 82.8724 45.6658C83.1814 44.8327 83.603 44.0612 83.8295 43.2456C84.5579 40.5752 83.2663 37.9909 80.5581 36.2605C78.1612 34.7629 75.6097 33.6817 72.8738 32.9382C71.17 32.4455 70.5688 32.7432 70.195 34.2297C69.7685 35.8127 69.6497 37.5011 69.7524 39.1854C69.8622 41.124 70.7385 42.73 72.52 44.0166C73.8214 44.9782 75.2018 45.7952 76.4997 46.6296C77.0923 47.0161 77.794 47.3369 78.3866 47.7233C79.4031 48.404 80.3405 49.2294 81.0863 50.1379C82.2033 51.4371 83.4029 52.7187 84.5462 53.9697C84.7186 54.1891 84.9173 54.3604 84.9807 54.6455C84.0839 54.2807 83.1309 53.8852 82.2341 53.5204C76.7971 51.3008 71.2882 49.4804 65.5301 48.6509C63.3042 48.3113 61.0747 47.8445 58.9171 46.9786C57.7126 46.5083 57.3415 46.1176 57.1405 44.8806C56.9695 43.7226 56.8547 42.5953 56.6011 41.4548C56.4108 40.5994 56.0817 39.7307 55.6699 38.8795C54.4944 36.4838 52.537 34.8506 49.8537 34.0106C47.6171 33.2894 45.3685 33.1252 43.1939 33.6277C42.5329 33.7674 41.9318 34.0652 41.357 34.3147C40.7559 34.6124 40.5486 35.1254 40.7353 35.8536C41.7093 39.9552 44.3407 42.896 48.6032 44.7242C50.0327 45.3175 51.5414 45.7662 52.9973 46.3113C54.2282 46.7334 55.38 47.3001 56.7305 48.0381C56.3438 48.0772 56.0959 48.1297 55.8744 48.1339C48.0194 48.6008 40.7857 50.4718 34.5514 54.3918C33.5707 54.983 32.4104 55.1005 31.2166 55.0117C30.3006 54.9495 29.3846 54.8874 28.4686 54.8252C27.913 54.7721 27.4137 54.7497 26.8318 54.7448C22.4541 54.7323 19.301 56.8918 18.2144 60.6189C17.837 61.9782 17.6548 63.3815 17.4726 64.7848C17.3167 66.1399 17.2997 67.5083 17.2564 68.9249C17.2072 69.1486 17.2407 69.3547 17.2479 69.6091C17.322 70.2758 17.7494 70.6972 18.5002 70.7944C18.8342 70.8517 19.1946 70.8608 19.5251 70.7909C21.8158 70.477 24.1328 70.115 26.3935 69.7222C27.3587 69.5608 28.2604 69.1142 29.1094 68.764C31.6265 67.6346 33.0409 65.7148 33.4951 63.1451C33.6881 62.1233 33.8247 61.0709 33.8788 60.0358C34.1186 57.7247 35.2361 56.0809 37.3101 54.9599C39.6847 53.6901 42.1755 52.6089 44.9512 51.8086C44.8458 52.0015 44.8194 52.0497 44.7368 52.0672C43.1585 53.0834 41.9776 54.442 40.8267 55.8796C40.1836 56.6553 39.4842 57.4003 38.5561 57.8951C36.918 58.7534 35.6773 59.954 35.1454 61.7299C34.8135 62.7383 34.7331 63.8216 34.9868 64.9621C35.207 65.8965 35.4834 66.8616 35.8688 67.7611C36.4972 69.4195 37.1783 70.9814 37.8629 72.6706C38.3979 73.9649 39.0468 74.3821 40.3952 74.0543C45.7357 72.8396 47.4007 68.9902 46.0292 64.5461C45.5732 63.1072 44.8957 61.6724 44.1093 60.3034C43.1767 58.6666 43.5278 57.3555 44.2955 56.0843C44.8261 55.2471 45.5818 54.5328 46.3674 53.8975C49.9193 51.1419 54.2384 50.0579 59.0855 50.0138C63.8499 49.9871 68.5831 50.8201 73.2778 52.2583C73.5029 52.3813 73.6154 52.4428 73.728 52.5043Z" fill="#CEA34F" fill-opacity="0.66"/>
<path d="M132.036 66.9576C132.265 67.2078 132.407 67.3483 132.55 67.4888C134.398 69.1877 136.277 70.9656 138.182 72.6952C141.796 76.1106 144.618 79.9068 146.485 84.246C147.402 86.3125 147.432 88.3958 147.351 90.4177C147.293 91.3255 147.236 92.2333 146.926 93.0664C146.466 94.4431 145.493 95.2888 144.092 95.713C143.295 95.9667 142.439 96.0625 141.613 96.2372C140.622 96.4469 139.57 96.4986 138.609 96.7872C133.606 98.1864 131.097 101.575 130.651 106.403C130.54 107.407 130.708 108.438 130.875 109.469C130.942 109.881 131.092 110.276 131.268 110.623C131.593 111.364 132.299 111.812 133.128 111.765C135.535 111.64 137.972 111.593 140.308 110.929C144.597 109.766 147.068 106.983 148.204 103.032C148.506 101.945 148.612 100.813 148.719 99.6818C148.829 98.6775 148.857 97.6907 148.941 96.7347C149.013 96.3356 149.085 95.9366 149.296 95.5508C149.329 95.757 149.393 96.0421 149.426 96.2483C149.629 98.551 149.889 100.885 150.066 103.236C150.476 107.968 151.411 112.675 153.177 117.334C154.104 119.783 155.223 122.147 156.59 124.46C157.145 125.452 157.534 126.478 157.701 127.509C157.876 128.794 158.05 130.08 158.308 131.347C158.635 133.155 159.433 134.905 160.613 136.49C162.254 138.701 164.482 140.107 167.136 140.868C169.845 141.66 172.607 142.355 175.343 143.098C176.18 143.305 176.672 143.073 176.902 142.385C176.982 142.24 177.004 142.065 177.027 141.889C177.199 140.105 177.344 138.368 177.099 136.543C176.501 132.021 172.643 127.846 167.757 126.491C166.417 126.135 165.081 125.906 163.692 125.773C163.054 125.737 162.386 125.623 161.744 125.46C160.153 125.029 158.881 124.146 158.121 122.729C156.485 119.706 155.205 116.564 154.339 113.335C154.279 113.178 154.302 113.002 154.324 112.827C154.411 112.936 154.497 113.046 154.639 113.187C156.974 116.403 160.143 118.761 163.767 120.554C165.369 121.367 167.05 122.035 168.78 122.479C171.377 123.21 173.582 122.786 175.281 121.147C176.172 120.319 176.613 119.245 176.633 118.004C176.672 117.398 176.654 116.762 176.553 116.144C176.372 114.604 176.134 113.034 175.952 111.494C175.781 110.336 175.38 109.867 174.1 109.668C172.876 109.501 171.57 109.35 170.409 109.468C167.233 109.798 165.286 111.49 164.478 114.305C164.353 114.8 164.229 115.296 164.104 115.791C163.98 116.287 163.626 116.532 163.044 116.527C162.019 116.531 161.119 116.039 160.271 115.45C159.142 114.708 158.201 113.755 157.369 112.737C154.528 109.244 152.788 105.475 152.449 101.281C152.113 97.2155 151.556 93.1537 150.499 89.0695C149.939 86.8849 149.187 84.7834 148.214 82.6861C148.098 82.4974 148.064 82.2912 147.889 81.9446C148.23 82.2563 148.399 82.3485 148.597 82.5198C150.386 84.0607 152.175 85.6017 153.937 87.1909C154.533 87.7046 155.077 88.3147 155.511 88.9905C156.088 89.8067 156.526 90.6097 156.994 91.4917C158.073 93.3961 159.339 95.0901 161.072 96.6003C162.973 98.2028 165.19 99.2266 167.592 99.9129C169.018 100.379 170.414 100.766 171.84 101.232C173.21 101.668 173.92 101.304 173.941 100.063C173.996 98.0895 173.83 96.1201 173.108 94.0975C172.234 91.553 170.758 89.3062 168.707 87.3088C166.371 85.0306 163.605 84.208 160.511 84.5212C159.407 84.6693 158.307 84.9447 157.232 85.1718C156.654 85.2942 156.019 85.3857 155.411 85.4291C154.886 85.4549 154.409 85.2571 153.955 84.884C152.193 83.2948 150.513 81.6881 148.751 80.0989C146.704 78.2288 144.957 76.2097 143.154 74.16C141.321 72.0313 139.379 69.9683 137.167 68.1331C137.111 68.1023 137.054 68.0716 137.024 67.9926C136.143 67.198 135.243 66.706 134.053 66.7445C133.692 66.7354 133.302 66.6473 132.942 66.6382C132.532 66.8528 132.284 66.9052 132.036 66.9576Z" fill="#CEA34F" fill-opacity="0.66"/>
<path d="M93.3212 110.928C93.8746 109.915 93.3922 108.524 92.1542 107.848C90.9725 107.202 89.5117 107.468 88.932 108.529C88.3786 109.542 88.8609 110.933 90.0989 111.609C91.3369 112.286 92.7679 111.94 93.3212 110.928Z" fill="#855354"/>
<path d="M111.21 111.623C110.541 112.447 109.613 112.942 108.572 113.375C106.187 114.263 103.618 114.551 100.923 114.268C99.6728 114.148 98.5018 113.884 97.2781 113.716C97.083 113.672 96.8614 113.677 96.5274 113.619C96.8985 114.01 97.1571 114.339 97.3858 114.589C99.6054 116.679 101.002 119.07 101.772 121.808C102.142 123.137 102.373 124.453 102.104 125.747C101.522 128.685 98.115 129.704 95.2343 127.754C93.9628 126.871 93.0183 125.791 92.2617 124.501C90.9545 122.347 90.252 120.022 89.9926 117.688C89.9854 117.434 89.922 117.149 89.8849 116.815C89.7233 116.977 89.6406 116.995 89.6143 117.043C87.9891 119.349 85.5917 120.794 82.8195 121.721C81.8053 122.106 80.7013 122.255 79.5338 122.118C78.1449 121.985 76.8578 121.532 75.8605 120.549C74.4095 119.192 74.0325 117.609 74.2639 115.982C74.4796 114.785 75.033 113.772 75.8378 112.834C77.718 110.73 80.1753 109.443 83.0635 108.704C83.3114 108.652 83.6454 108.709 83.8035 108.42C82.6781 107.805 81.6089 107.221 80.5397 106.636C79.0766 105.837 77.8315 104.906 76.6618 103.703C75.6346 102.641 74.908 101.43 74.7035 100.066C74.4619 98.3682 75.2033 97.1451 76.8222 96.5895C78.5502 95.9682 80.2767 96.2855 81.9913 97.1597C84.4373 98.4337 86.4247 100.146 88.1451 102.213C88.3737 102.463 88.5461 102.683 88.7748 102.933C88.8275 102.837 88.8275 102.837 88.8275 102.837C88.8239 102.709 88.794 102.63 88.8467 102.534C88.5394 99.4855 88.9039 96.6788 90.0754 94C90.5988 92.9084 91.321 91.988 92.3544 91.3003C93.2789 90.6783 94.3267 90.4994 95.524 90.7153C96.8902 91.0235 97.745 91.8663 98.3854 92.9677C99.0821 94.0999 99.3921 95.2712 99.5104 96.5256C99.74 98.7802 99.4965 100.964 98.9191 103.091C98.8208 103.538 98.6399 104.003 98.489 104.547C98.8458 104.428 99.0637 104.297 99.3116 104.245C100.273 103.956 101.205 103.588 102.196 103.379C103.545 103.051 104.956 103.008 106.461 103.33C108.999 103.902 110.84 105.347 111.847 107.65C112.498 109.133 112.203 110.475 111.21 111.623ZM92.8166 106.77C90.9033 105.724 88.5899 106.213 87.6939 107.853C86.798 109.493 87.6359 111.704 89.5491 112.749C91.4624 113.795 93.7758 113.305 94.6717 111.666C95.5676 110.026 94.7298 107.815 92.8166 106.77Z" fill="#DE8F6E"/>
<path d="M55.6806 107.33C54.8075 108.794 54.2876 110.013 54.0491 111.385C54.0263 111.561 54.0035 111.736 53.9808 111.912C53.9758 112.723 54.4894 113.254 55.3492 113.286C55.7096 113.295 56.0963 113.256 56.4831 113.216C58.3307 112.911 60.1891 112.987 62.1108 113.348C63.2519 113.534 64.4493 113.75 65.6167 113.887C70.1141 114.215 73.7352 112.937 76.5064 110.006C76.8561 109.633 77.1232 109.278 77.3603 108.844C77.8909 108.007 77.8923 107.068 77.3117 106.125C75.4538 103.106 72.7911 101.025 69.2446 100.026C66.7601 99.3571 64.5257 99.7017 62.4481 100.696C59.1646 102.158 57.1035 104.726 55.6806 107.33Z" fill="#837F62"/>
<path d="M71.9866 122.69C72.5627 121.502 72.8048 120.257 72.7954 118.937C72.8039 118.252 72.7861 117.616 72.7383 116.901C72.6869 116.059 72.1997 115.48 71.2801 115.291C70.7509 115.189 70.1953 115.136 69.6696 115.162C66.9587 115.309 64.9409 116.461 63.384 118.24C61.6918 120.133 60.6186 122.365 60.0782 124.825C60.0518 124.873 60.0255 124.921 60.0554 125C59.8397 126.197 60.4131 126.886 61.7722 126.94C62.4104 126.976 62.9923 126.981 63.6006 126.937C65.3428 126.825 66.9689 126.523 68.4454 125.827C70.0608 125.145 71.2787 124.119 71.9866 122.69Z" fill="#837F62"/>
<path d="M102.386 94.3395C101.753 95.4968 101.511 96.7422 101.464 98.0316C101.456 98.7158 101.391 99.3692 101.465 100.036C101.517 100.878 101.948 101.427 102.897 101.695C103.4 101.845 103.955 101.898 104.537 101.903C107.222 101.804 109.326 100.762 110.939 99.0134C112.688 97.1509 113.791 94.9983 114.414 92.5208C114.44 92.4726 114.466 92.4244 114.493 92.3762C114.791 91.1616 114.218 90.4725 112.802 90.3879C112.164 90.3523 111.526 90.3167 110.944 90.3118C109.228 90.3761 107.546 90.6466 106.039 91.2637C104.424 91.9465 103.232 92.9236 102.386 94.3395Z" fill="#837F62"/>
</svg>
