<svg width="1188" height="66" viewBox="0 0 1188 66" fill="none" xmlns="http://www.w3.org/2000/svg">
<path d="M46.3712 33.452C77.147 41.2041 115.768 47.1322 163.44 50.7802C184.561 52.3763 206.888 53.2883 229.819 53.1743C268.44 52.9463 301.63 50.3242 328.181 44.8522C328.785 44.7382 329.388 44.5102 330.595 44.2822C333.009 44.7382 334.819 45.1942 337.233 45.5362C371.026 52.2623 409.647 57.7343 454.302 61.7244C481.457 64.1184 509.216 65.6005 539.388 65.9425C559.302 66.1705 577.405 65.7145 594.302 64.6884C610.595 65.7145 628.698 66.0565 649.215 65.9425C678.784 65.6005 707.146 64.1184 734.302 61.7244C778.957 57.7343 816.974 52.2623 851.37 45.5362C853.181 45.1942 855.595 44.7382 858.008 44.2822C859.215 44.5102 859.819 44.7382 860.422 44.8522C886.974 50.3242 920.163 52.9463 958.784 53.1743C981.715 53.2883 1003.44 52.3763 1024.56 50.7802C1072.23 47.1322 1110.85 41.2041 1141.63 33.452C1166.37 27.1819 1183.27 20.2278 1187.49 12.3617C1189.3 9.39768 1186.28 6.43364 1178.44 3.8116C1171.8 1.53157 1160.94 0.277547 1147.66 0.0495436C1136.2 -0.17846 1125.94 0.391552 1116.28 1.53157C1104.82 2.89959 1095.77 4.72361 1089.73 7.00364C1082.49 9.62567 1076.46 12.2477 1069.82 14.8697C1069.22 15.0978 1068.61 15.3258 1068.61 15.6678C1068.61 16.3518 1069.82 16.8078 1072.84 17.1498C1075.85 17.4918 1078.87 17.3778 1081.28 16.9218C1083.09 16.6938 1084.3 16.2378 1085.51 15.8958C1090.34 14.1857 1095.16 12.4757 1100.59 10.8797C1105.42 9.39767 1110.25 7.91565 1116.28 6.43363C1121.11 5.29361 1127.15 4.38161 1133.78 3.9256C1146.46 2.89958 1159.13 3.5836 1165.16 6.09163C1166.97 6.77564 1168.18 7.45964 1168.78 8.14365C1172.4 10.8797 1170.59 13.6157 1166.97 16.3518C1148.87 29.918 1084.9 43.1421 1014.9 47.9302C990.767 49.5262 966.025 50.3242 940.077 49.5262C914.129 48.7282 892.405 46.5622 874.905 42.8001C873.095 42.4581 871.888 42.0021 870.077 41.5461C872.491 40.9761 874.302 40.5201 876.112 40.0641C889.388 36.758 900.25 33.338 908.095 29.462C912.922 27.0679 915.336 24.6739 914.732 22.1659C914.129 20.3418 911.715 18.6318 905.681 17.2638C899.043 15.6678 890.594 14.8697 879.732 14.8697C869.474 14.9838 861.629 15.7818 854.388 17.1498C845.939 18.7458 839.905 20.5698 836.284 22.7359C830.25 26.2699 829.646 29.918 832.664 33.566C835.077 36.302 839.905 39.0381 847.146 41.5461C835.681 43.8262 824.215 45.8782 810.939 47.7022C769.905 53.5163 724.646 57.8483 672.75 58.9884C663.095 59.2164 654.043 59.3304 644.388 59.2164C657.06 56.9363 668.526 54.0863 678.181 50.7802C686.629 47.9302 691.457 44.7382 690.25 41.3181C689.646 39.6081 687.836 38.1261 683.009 36.644C673.353 33.908 657.06 32.654 640.767 33.908C618.44 35.618 602.147 38.5821 595.509 43.1421C594.302 44.0542 594.302 45.0802 594.905 46.1062C594.905 46.6762 596.715 47.1322 599.733 47.1322C603.353 47.1322 604.56 46.6762 605.164 46.2202C606.371 45.3082 607.578 44.3962 609.388 43.4841C614.819 40.5201 626.888 38.8101 641.974 37.7841C651.629 37.1001 658.267 38.0121 657.664 39.9501C657.664 41.2041 655.853 42.4581 653.44 43.5981C640.164 49.1842 620.853 53.5163 594.302 56.3663C567.75 53.6303 548.44 49.2982 535.164 43.7122C532.75 42.5721 531.543 41.3181 530.94 40.0641C530.336 38.1261 536.974 37.2141 546.629 37.8981C561.716 38.9241 573.181 40.6341 579.216 43.5981C581.026 44.5102 582.233 45.4222 583.44 46.3342C584.043 46.9042 585.853 47.3602 588.871 47.2462C591.888 47.2462 593.698 46.6762 593.698 46.2202C593.698 45.1942 594.302 44.1682 593.095 43.2561C586.457 38.6961 570.164 35.732 547.836 34.022C531.543 32.768 515.25 34.022 505.595 36.758C500.767 38.1261 498.354 39.7221 498.354 41.4321C497.75 44.8522 501.974 47.9302 510.423 50.8942C520.078 54.2003 531.543 57.0503 544.216 59.3304C534.56 59.4444 525.509 59.3304 515.854 59.1024C463.957 57.9623 418.698 53.6303 377.664 47.8162C364.992 45.9922 352.923 43.9402 341.457 41.6601C348.699 39.0381 353.526 36.416 355.94 33.68C358.957 30.032 358.354 26.3839 352.319 22.8499C348.698 20.6838 343.267 18.8598 334.216 17.2638C326.974 16.0098 319.13 15.0978 308.871 14.9837C298.009 14.8697 289.561 15.7818 282.923 17.3778C276.888 18.8598 274.474 20.4558 273.871 22.2799C273.267 24.7879 276.285 27.2959 280.509 29.576C288.354 33.452 299.216 36.872 312.492 40.1781C314.302 40.6341 316.112 41.0901 318.526 41.6601C316.716 42.1161 315.509 42.4581 313.699 42.9141C296.199 46.6762 273.871 48.7282 248.526 49.6402C223.181 50.4382 197.837 49.7542 173.699 48.0442C103.699 43.3701 39.7333 30.146 21.6298 16.5798C18.0091 13.8437 16.1988 11.1077 19.8195 8.37166C20.423 7.68765 22.2333 7.00364 23.4402 6.31963C29.4747 3.69759 42.1471 3.12759 54.8195 4.0396C62.0608 4.60961 68.0953 5.40761 72.3194 6.54763C77.7505 7.91565 83.1815 9.39767 88.0091 10.8797C93.4401 12.4757 98.2677 14.2997 103.095 15.8958C104.302 16.2378 105.509 16.5798 107.319 16.9218C109.733 17.3778 112.75 17.3778 115.768 17.1498C118.785 16.8078 120.595 16.3518 119.992 15.6678C119.992 15.4398 119.388 15.0978 118.785 14.8697C112.147 12.2477 106.112 9.51167 98.8711 7.00364C92.8366 4.72361 83.1815 3.01359 71.716 1.53157C62.0608 0.391552 51.8022 -0.17846 40.3367 0.0495436C26.4574 0.277547 16.1988 1.53157 9.56088 3.8116C1.71605 6.43364 -1.30118 9.39768 0.509159 12.4757C4.73329 20.1138 21.6298 27.1819 46.3712 33.452ZM851.37 23.4199C853.181 22.1659 856.801 21.0258 859.819 19.8858C861.026 19.4298 863.439 18.9738 865.853 18.6318C877.922 16.5798 891.801 17.2638 896.026 20.2278C898.439 22.0518 897.836 23.8759 895.422 25.5859C891.801 28.5499 885.163 31.172 876.715 33.68C871.284 35.162 865.853 36.644 859.215 38.3541C853.784 36.302 850.767 34.364 848.957 32.426C846.543 29.348 846.543 26.3839 851.37 23.4199ZM309.474 33.794C301.026 31.286 293.785 28.6639 290.767 25.6999C288.957 23.8759 287.75 22.1659 290.164 20.3418C294.388 17.3778 308.268 16.5798 320.336 18.7458C322.75 19.0878 324.561 19.5438 326.371 19.9998C329.388 21.1398 333.009 22.2799 334.819 23.5339C339.647 26.4979 339.647 29.576 336.63 32.654C334.819 34.592 331.802 36.5301 326.371 38.5821C320.336 36.7581 314.302 35.276 309.474 33.794Z" fill="#CEA34F"/>
</svg>
