<svg width="120" height="103" viewBox="0 0 120 103" fill="none" xmlns="http://www.w3.org/2000/svg">
<path d="M66.0398 18.9781C66.1995 18.6723 66.3592 18.5194 66.5189 18.29C71.4694 10.9505 78.4959 6.28691 87.1992 3.91686C89.8341 3.15233 92.6288 3.07588 95.4234 3.15233C98.3777 3.30524 101.332 3.68751 104.047 4.68139C111.552 7.35725 116.503 12.4796 118.978 19.7426C120.016 22.8008 120.096 25.8589 119.936 28.9935C119.457 36.333 116.822 43.1373 113.229 49.5593C110.275 54.7581 106.921 59.7276 103.408 64.6206C99.4157 70.1252 95.3436 75.4769 90.7923 80.5228C84.5643 87.48 77.7773 93.9785 70.6709 100.171C69.7926 100.936 68.9942 101.624 68.1158 102.312C66.9181 103.229 66.0398 103.229 64.8421 102.312C64.2832 101.853 63.7243 101.394 63.2452 100.859C61.808 99.3303 60.211 97.9541 58.5342 96.6544C48.793 88.8562 40.3292 79.9112 32.8236 70.1252C29.0708 65.3087 25.5576 60.3392 22.5234 55.0639C19.4094 49.7122 16.7745 44.2076 15.0178 38.3207C13.9798 34.8803 13.1814 31.3635 13.0217 27.6938C12.862 23.4124 13.5806 19.2839 15.3372 15.3084C17.1737 11.1799 20.2079 7.96888 23.9606 5.44592C26.7553 3.61105 29.7096 2.15845 33.0632 1.47037C37.4547 0.629386 41.7665 0.935198 46.0782 2.2349C51.5876 3.84041 56.2985 6.74563 60.211 10.7976C62.5266 13.0912 64.5228 15.6142 65.8801 18.5194C65.8003 18.5958 65.8801 18.7488 66.0398 18.9781Z" fill="#DE5463"/>
<path d="M65.5295 19.0923C65.4498 19.245 65.3701 19.3976 65.2904 19.6266C64.4934 23.214 63.6965 26.8014 62.9792 30.4651C62.501 32.755 61.7837 34.9685 60.5086 36.953C58.7553 39.7008 56.2846 41.5326 52.8577 41.9906C50.8653 42.2959 48.8728 42.1433 46.8804 41.7616C43.1347 41.0747 39.3889 40.3114 35.6432 39.7771C32.7741 39.3191 29.8253 39.3191 26.9562 40.0824C24.5653 40.693 22.2541 41.38 19.8632 41.9906C16.6753 42.8302 13.4874 43.2118 10.2995 42.5249C6.79288 41.7616 3.8441 40.0061 0.81562 38.3269C0.0983476 37.9452 -0.0610462 37.2583 0.0186507 36.5714C0.0983476 36.1897 0.178044 35.7317 0.417135 35.4264C1.53289 33.2129 2.64865 30.9231 3.8441 28.7096C4.48168 27.5647 5.43804 27.4884 6.3147 28.4806C7.03197 29.3966 7.66955 30.3125 8.38682 31.2284C9.26349 32.297 10.0605 33.4419 11.1762 34.3578C14.8423 37.4873 18.9865 39.0138 23.9277 37.5636C27.9126 36.3424 31.8974 36.495 35.9619 37.182C38.5919 37.6399 41.2219 38.1742 43.9316 38.0979C49.4307 37.9452 53.4156 35.5791 55.8065 30.7705C56.205 29.9309 56.6034 29.0149 57.0019 28.099C57.8786 25.6565 58.7553 23.214 59.6319 20.7715C59.6319 20.6952 59.6319 20.6189 59.6319 20.4662C59.1537 20.7715 58.7552 21.0005 58.3568 21.2295C56.3643 22.4507 54.3719 23.7483 52.2998 24.8932C50.4668 25.9618 48.4744 26.6488 46.3225 26.9541C43.9316 27.2594 41.8595 26.5724 40.3453 24.7406C39.0701 23.1377 37.8747 21.3822 37.4762 19.3213C37.1574 17.7948 36.9183 16.1919 36.7589 14.6653C36.4401 11.0779 37.0777 7.64319 38.4325 4.3611C39.628 1.38432 42.0986 -0.142225 45.4459 0.0104299C47.2789 0.0867575 48.9525 0.544725 50.5465 1.38433C52.4592 2.37659 54.3719 3.36884 56.1253 4.59009C59.2334 6.5746 62.1025 9.01709 64.8122 11.4596C65.131 11.6886 65.3701 11.9939 65.5295 12.0702C66.4061 11.9175 67.1234 11.6122 67.8407 11.6886C68.558 11.7649 69.2752 12.1465 69.9925 12.4518C70.2316 12.2228 70.4707 11.9175 70.6301 11.6886C72.6225 9.39873 74.9337 7.56686 77.6434 6.04031C80.4328 4.43743 83.4613 3.75048 86.7289 3.90314C90.9528 4.13212 94.3001 5.88766 96.3722 9.39873C97.0895 10.5436 97.6473 11.8412 98.0458 13.1388C99.0819 16.5735 99.2413 20.1609 98.6834 23.672C98.2052 26.4198 97.2488 28.9386 95.3361 31.0758C93.0249 33.7472 89.9167 34.4342 86.5695 33.2129C85.1349 32.6786 83.8598 31.9917 82.744 30.9994C81.1501 29.7019 79.6358 28.4043 78.2013 26.9541C75.651 24.3589 73.1804 21.6875 70.7098 19.0923C70.4707 18.8633 70.2316 18.6344 70.0722 18.4054C69.5143 18.787 69.0362 19.0923 68.3986 19.474C68.9565 20.6189 69.3549 21.9164 69.9925 22.985C71.188 24.8932 72.4631 26.8014 73.8977 28.6333C75.3322 30.5415 77.0058 32.297 78.5201 34.1289C79.9546 35.8081 81.3095 37.5636 82.3455 39.5481C83.1425 40.9984 83.8598 42.6012 84.0989 44.2041C84.4176 46.3413 84.0192 48.2495 82.4252 49.776C81.8674 50.3866 81.2298 50.9209 80.5922 51.4552C79.3967 52.3712 78.1216 53.1344 77.0058 53.974C76.0495 54.661 75.0931 55.4243 74.2961 56.2639C72.6225 57.8667 72.0646 59.8513 72.6225 61.9884C73.1007 63.973 73.6586 65.8811 74.2961 67.7893C75.9698 72.6743 77.2449 77.7119 77.5637 82.9022C77.8028 86.9476 77.0058 90.7639 74.2961 94.046C73.1007 95.4963 71.9052 96.8702 70.7098 98.2441C69.7534 99.3126 68.9565 99.2363 68.1595 98.0914C67.6016 97.3281 67.1234 96.4885 66.5655 95.6489C66.0874 94.8856 66.0077 94.1987 66.4859 93.4354C66.964 92.6721 67.4422 91.9089 68.0001 91.2219C70.0722 88.4741 71.1083 85.421 71.2677 82.0626C71.4271 78.6279 71.1083 75.2694 70.5504 71.911C70.0722 68.9342 69.4346 66.0338 68.8768 63.057C68.558 61.3015 68.3189 59.546 68.6377 57.7904C69.0362 55.8822 69.9128 54.203 71.0286 52.6001C71.7458 51.5316 72.4631 50.3866 73.1007 49.2417C74.2164 47.2572 74.4555 45.1964 73.7383 42.9829C73.4992 42.3722 73.3398 41.7616 73.1007 41.151C72.3834 39.4718 71.7458 37.8689 71.0286 36.266C69.0362 31.7627 67.4422 27.1831 66.4859 22.2981C66.3265 21.2295 66.0874 20.1609 65.928 19.1687C65.6092 19.0923 65.6092 19.0923 65.5295 19.0923ZM73.6586 16.1919C77.8825 18.558 81.708 21.4585 85.374 24.5116C86.4101 25.4275 87.6055 26.1908 88.801 26.9541C89.3589 27.3357 90.0761 27.5647 90.7137 27.7937C91.6701 28.099 92.7061 28.099 93.6625 27.87C94.3798 27.7173 94.7782 27.3357 95.097 26.6488C95.7346 25.1222 96.0534 23.5957 96.2128 21.9928C96.4519 19.245 96.3722 16.5735 95.6549 13.9021C95.0173 11.5359 93.1046 10.0093 90.5543 10.0093C86.171 9.93302 81.947 10.8489 77.8825 12.5282C76.0495 13.2914 74.5352 14.5127 72.7819 15.6576C73.1804 15.8102 73.4195 16.0392 73.6586 16.1919ZM59.871 14.0547C56.2847 12.0702 52.6983 10.0857 49.1119 8.17748C47.7571 7.4142 46.3225 6.80358 44.8083 6.5746C42.6565 6.26929 40.8235 7.41421 40.1859 9.39873C38.831 13.5967 41.7001 17.8711 44.1707 19.474C45.9241 20.5426 47.8368 20.5426 49.7495 20.3136C51.3434 20.0846 52.778 19.5503 54.1328 18.8633C56.5237 17.6421 58.9147 16.4209 61.3056 15.1996C61.3853 15.1996 61.3853 15.1233 61.4649 14.9706C60.9868 14.6653 60.4289 14.36 59.871 14.0547Z" fill="#EBC06C"/>
</svg>
