<svg width="116" height="114" viewBox="0 0 116 114" fill="none" xmlns="http://www.w3.org/2000/svg">
<path d="M54.7116 18.1769C54.8596 17.9504 54.9335 17.724 55.0074 17.573C57.0041 13.7981 59.4445 10.3252 62.5504 7.45624C66.248 3.98334 70.6111 1.79391 75.5658 0.73694C80.6684 -0.395527 85.6971 -0.244529 90.6518 1.34093C92.6485 1.94491 94.5712 2.92637 96.346 4.05884C99.1562 5.87079 101.227 8.43772 102.78 11.4576C104.407 14.553 105.442 17.9504 106.108 21.4233C106.699 24.2168 106.995 27.0857 106.995 29.9546C107.069 34.9375 106.329 39.7693 104.85 44.5257C103.593 48.5271 101.744 52.2265 99.6738 55.7749C96.7897 60.9087 93.4619 65.8161 90.0602 70.6479C84.8836 78.0467 79.2634 85.068 73.5691 92.0893C67.8749 99.1861 62.0328 106.056 55.9688 112.851C55.8209 113.002 55.673 113.153 55.5251 113.304C54.8595 114.135 53.8242 114.135 53.0108 113.757C52.5671 113.531 52.1234 113.229 51.7536 112.927C50.9402 112.247 50.2006 111.492 49.4611 110.737C44.8022 105.754 40.2173 100.772 35.6323 95.7132C31.9348 91.6363 28.2372 87.5594 24.6136 83.4826C18.6236 76.6123 13.2252 69.289 8.71417 61.3617C6.05194 56.6808 3.68551 51.849 2.05859 46.6396C0.949326 43.1667 0.28377 39.6183 0.0619171 35.9944C-0.159936 31.9175 0.209818 27.9162 1.24513 23.9148C2.6502 18.6299 5.38638 14.1001 9.15788 10.2497C12.4857 6.77676 16.553 4.58733 21.1379 3.53036C24.8355 2.62438 28.533 2.69988 32.2306 3.53036C37.4811 4.66283 42.2139 7.00325 46.577 10.2497C48.3519 11.5331 49.9788 12.9676 51.4578 14.4775C52.4931 15.5345 53.3805 16.667 54.12 17.8749C54.4898 17.8749 54.5637 17.9504 54.7116 18.1769Z" fill="#EBC06C" fill-opacity="0.95"/>
<path d="M54.7381 19.7814C54.59 20.8284 54.368 21.8754 54.2199 22.8476C53.4056 27.5591 51.8511 32.0463 50.0005 36.5334C49.3343 38.1039 48.6681 39.7492 48.0759 41.3197C47.8538 41.918 47.7058 42.5162 47.4837 43.1145C46.8175 45.2085 47.0395 47.3025 48.0759 49.247C48.6681 50.3687 49.3343 51.4157 50.0005 52.5375C51.0369 54.108 51.8511 55.7533 52.2212 57.6229C52.5173 59.343 52.2953 61.0631 51.9992 62.7832C51.481 65.6998 50.8888 68.5416 50.4447 71.4583C49.9265 74.7488 49.5564 78.1142 49.7784 81.4048C49.9265 84.6953 50.9628 87.6868 52.8134 90.379C53.3316 91.0521 53.7758 91.8 54.2199 92.5478C54.664 93.2957 54.59 93.9688 54.1459 94.7166C53.6277 95.4645 53.1836 96.2871 52.6654 97.1098C51.9251 98.2315 51.1849 98.3063 50.2966 97.2593C49.1862 95.9132 48.0759 94.567 46.9655 93.1461C44.4487 89.9303 43.7085 86.1911 43.9305 82.2274C44.2266 77.142 45.411 72.2809 46.9655 67.4199C47.5577 65.5502 48.0759 63.6058 48.52 61.7361C49.0382 59.5674 48.52 57.6977 46.9655 56.1272C46.1513 55.3046 45.337 54.5567 44.4487 53.8836C43.3383 52.9862 42.1539 52.2384 41.1176 51.4157C40.5254 50.8922 39.9332 50.3687 39.415 49.7704C38.0086 48.1999 37.5644 46.3303 37.8605 44.3111C38.1566 42.6658 38.7488 41.1701 39.4891 39.7492C40.4514 37.8795 41.7098 36.0847 43.0422 34.4394C44.4487 32.6445 46.0032 30.9245 47.3356 29.0548C48.6681 27.26 49.8525 25.4651 50.9628 23.5207C51.6291 22.4737 51.9992 21.2023 52.4433 20.0806C51.8511 19.7066 51.407 19.4075 50.8888 19.0335C50.6667 19.2579 50.4447 19.4823 50.2966 19.7066C48.0019 22.2493 45.7071 24.8668 43.3383 27.4095C42.0059 28.8305 40.5994 30.1018 39.1189 31.3732C38.0826 32.2706 36.8242 33.0185 35.5658 33.542C32.4568 34.7385 29.5698 34.0655 27.4231 31.448C25.6465 29.354 24.7582 26.886 24.3141 24.1938C23.7959 20.7536 23.8699 17.2387 24.9063 13.8733C25.2764 12.602 25.7946 11.3306 26.4608 10.2088C28.3854 6.69392 31.4944 5.04864 35.4177 4.82428C38.4527 4.59992 41.2656 5.34778 43.8565 6.91828C46.2993 8.41399 48.52 10.2088 50.3706 12.4524C50.5927 12.6768 50.8148 12.9759 50.9628 13.2003C51.6291 12.9011 52.2953 12.5272 52.9615 12.4524C53.6277 12.3776 54.2939 12.6768 55.1082 12.8263C55.2562 12.7516 55.4783 12.4524 55.7744 12.2281C58.3653 9.83492 60.9561 7.44178 63.8431 5.49736C65.5456 4.37557 67.2482 3.32856 69.0248 2.35635C70.5052 1.53371 72.0598 1.15979 73.7623 1.01022C76.8713 0.860648 79.1661 2.35636 80.2765 5.273C81.5349 8.56357 82.1271 11.9289 81.831 15.3691C81.6829 16.8648 81.4608 18.4353 81.1647 19.931C80.7946 21.9502 79.7583 23.6703 78.4999 25.2408C77.0934 27.0356 75.1688 27.7087 72.9481 27.4095C70.9494 27.1104 69.0988 26.4373 67.3962 25.3903C65.4716 24.2685 63.621 22.9972 61.7704 21.8006C61.4003 21.5763 61.0301 21.2771 60.586 21.0528C60.586 21.2023 60.512 21.3519 60.586 21.3519C61.4003 23.745 62.2145 26.1382 63.0288 28.5313C63.3249 29.4287 63.695 30.2514 64.1392 31.1488C66.3599 35.8603 70.1351 38.1787 75.1688 38.3282C77.6856 38.403 80.1284 37.8795 82.5712 37.4308C86.3464 36.7577 90.0477 36.683 93.7489 37.8047C98.3384 39.2257 102.188 37.73 105.593 34.6638C106.555 33.7663 107.369 32.6445 108.184 31.5975C108.85 30.7001 109.442 29.8027 110.108 28.9053C110.848 27.933 111.811 27.933 112.403 29.1296C113.513 31.2984 114.55 33.4672 115.586 35.7107C115.734 36.0847 115.882 36.4586 115.956 36.8325C116.104 37.5804 115.882 38.1787 115.216 38.5526C112.403 40.1231 109.664 41.9179 106.407 42.6658C103.372 43.3389 100.411 43.0397 97.5241 42.1423C95.3034 41.544 93.1567 40.871 90.936 40.2727C88.2711 39.5248 85.5322 39.5248 82.8673 39.9735C79.3882 40.5718 75.909 41.2449 72.4299 41.9179C70.5793 42.2919 68.7287 42.3667 66.8781 42.1423C63.695 41.6936 61.4003 39.8987 59.7717 37.2065C58.5873 35.262 57.9951 33.0933 57.477 30.8497C56.7367 27.3348 55.9965 23.8198 55.3303 20.2301C55.3303 20.0806 55.1822 19.8562 55.1082 19.7066C54.8121 19.7814 54.8121 19.7814 54.7381 19.7814ZM48.1499 16.3413C46.5954 15.2195 45.1149 14.0229 43.4123 13.2751C39.7111 11.6298 35.7879 10.7323 31.6425 10.8071C29.2737 10.8071 27.4971 12.3028 26.9049 14.6212C26.2387 17.2387 26.0907 19.931 26.3868 22.5485C26.5348 24.119 26.9049 25.6147 27.4231 27.1104C27.7192 27.7835 28.0893 28.1574 28.7555 28.307C29.6438 28.6061 30.6062 28.6061 31.4944 28.2322C32.0866 28.0078 32.7529 27.7835 33.271 27.4095C34.3814 26.6617 35.4177 25.9138 36.4541 25.0164C39.8592 22.025 43.4124 19.1083 47.3356 16.8648C47.5577 16.79 47.7798 16.5656 48.1499 16.3413ZM58.6614 15.6682C58.7354 15.743 58.7354 15.8178 58.8094 15.8926C61.0301 17.0891 63.2509 18.2857 65.4716 19.4823C66.73 20.1553 68.1365 20.6788 69.5429 20.9032C71.3195 21.2023 73.0961 21.2023 74.7246 20.0806C77.0194 18.5101 79.6843 14.3221 78.4258 10.2088C77.8337 8.26442 76.1311 7.06785 74.1324 7.44178C72.6519 7.66613 71.3935 8.33921 70.1351 9.01228C66.804 10.9567 63.4729 12.9011 60.1418 14.7708C59.6237 15.1447 59.1055 15.4438 58.6614 15.6682Z" fill="#DE5463"/>
</svg>
