<svg width="218" height="181" viewBox="0 0 218 181" fill="none" xmlns="http://www.w3.org/2000/svg">
<path d="M14.4307 109.268C10.3951 108.519 6.8112 111.931 6.0884 115.059C6.02817 115.395 5.96794 115.757 6.05829 116.093C6.29922 117.102 7.62434 117.67 8.829 117.722C10.4854 117.8 12.1418 117.205 13.4067 116.3C15.7859 114.646 19.3397 110.199 14.4307 109.268Z" fill="#CEA34F" fill-opacity="0.66"/>
<path d="M31.6573 112.396C29.1877 111.931 27.0194 114.025 26.5676 115.938C26.5074 116.145 26.4773 116.352 26.5375 116.559C26.6881 117.179 27.5012 117.515 28.224 117.541C29.248 117.593 30.2418 117.231 31.0248 116.688C32.5006 115.654 34.6388 112.965 31.6573 112.396Z" fill="#CEA34F" fill-opacity="0.66"/>
<path d="M6.69073 103.684C7.68457 103.814 8.73865 103.529 9.55179 103.012C11.0877 102.107 13.497 99.5479 10.5758 98.7723C8.16643 98.126 5.78723 100.065 5.1849 101.926C5.12467 102.133 5.06444 102.34 5.09455 102.547C5.21502 103.193 5.96793 103.607 6.69073 103.684Z" fill="#CEA34F" fill-opacity="0.66"/>
<path d="M10.2144 93.4468C10.9372 93.5243 11.6901 93.3175 12.3225 92.9556C13.4368 92.2834 15.2137 90.4479 13.0754 89.8792C11.3287 89.4138 9.58192 90.8099 9.13017 92.18C9.06994 92.3351 9.03982 92.4903 9.06994 92.6454C9.13017 93.0849 9.67227 93.3692 10.2144 93.4468Z" fill="#CEA34F" fill-opacity="0.66"/>
<path d="M18.8879 84.1399C19.6107 84.2175 20.3636 84.0106 20.9961 83.6487C22.1104 82.9766 23.8872 81.141 21.749 80.5723C20.0022 80.107 18.2555 81.503 17.8037 82.8731C17.7435 83.0283 17.7134 83.1834 17.7435 83.3385C17.8037 83.8038 18.3759 84.0882 18.8879 84.1399Z" fill="#CEA34F" fill-opacity="0.66"/>
<path d="M96.1969 133.078C97.3413 133.44 98.7869 133.363 99.4796 132.51C99.7205 132.225 99.8109 131.889 99.9012 131.553C100.684 128.425 98.9676 124.082 94.9019 123.41C89.9628 122.608 91.1975 127.882 92.613 130.209C93.3659 131.476 94.6308 132.587 96.1969 133.078Z" fill="#CEA34F" fill-opacity="0.66"/>
<path d="M78.398 126.357C79.0907 126.564 79.9942 126.538 80.3857 126.021C80.5363 125.84 80.5965 125.633 80.6568 125.426C81.1386 123.539 80.0846 120.876 77.615 120.462C74.6034 119.971 75.3563 123.177 76.2297 124.625C76.6814 125.374 77.4343 126.047 78.398 126.357Z" fill="#CEA34F" fill-opacity="0.66"/>
<path d="M104.539 120.876C105.232 121.031 106.135 120.928 106.497 120.385C106.617 120.204 106.677 119.997 106.708 119.79C107.009 117.851 105.684 115.292 103.184 115.059C100.142 114.775 101.196 117.929 102.19 119.299C102.762 120.023 103.575 120.643 104.539 120.876Z" fill="#CEA34F" fill-opacity="0.66"/>
<path d="M106.015 110.276C106.527 110.406 107.189 110.328 107.43 109.914C107.521 109.785 107.551 109.63 107.581 109.475C107.792 108.079 106.858 106.192 105.021 106.037C102.792 105.83 103.575 108.131 104.298 109.113C104.69 109.656 105.292 110.095 106.015 110.276Z" fill="#CEA34F" fill-opacity="0.66"/>
<path d="M102.28 98.7983C102.792 98.9275 103.455 98.85 103.696 98.4363C103.786 98.3071 103.816 98.1519 103.846 97.9968C104.057 96.6008 103.124 94.7136 101.287 94.5585C99.0579 94.3517 99.841 96.6525 100.564 97.6349C100.985 98.1778 101.558 98.6173 102.28 98.7983Z" fill="#CEA34F" fill-opacity="0.66"/>
<path d="M129.897 60.0198C131.975 58.7789 134.114 57.4863 136.071 55.9869C138.782 53.867 141.643 50.0409 141.432 46.5767C141.311 44.7153 140.318 43.1125 138.541 42.0008C134.114 39.1829 127.729 40.3721 121.856 42.311L120.862 42.6471C118.513 43.4744 116.285 44.3792 114.357 45.1806L113.935 45.3616C113.183 45.6718 112.369 46.0079 111.647 46.2923C110.803 46.6284 109.99 46.9386 109.147 47.2747C108.093 44.6894 107.22 42.1301 106.888 39.4156C109.147 38.8985 110.984 37.6576 112.43 35.9772C116.736 30.4448 115.23 23.9042 115.02 17.6997C114.99 17.0017 114.237 16.5622 113.514 16.7173C112.701 13.3823 110.773 10.3576 108.304 7.69485C106.858 6.11786 105.232 4.69599 103.515 3.35167C102.642 2.67951 101.768 2.0332 100.865 1.41275C100.172 0.947409 99.4495 0.27525 98.5761 0.0684321C96.5282 -0.396909 95.444 1.61957 94.6007 2.83462C93.3961 4.59258 92.4323 6.45394 91.6192 8.34116C90.1736 11.8312 89.4508 15.5281 89.4508 19.2508C88.7581 19.3025 88.1558 19.8454 88.3967 20.5176C89.5713 23.775 90.6856 27.0582 91.8902 30.3156C92.9142 33.0301 94.3297 35.4602 96.9498 37.2698C99.0881 38.7434 101.799 39.7258 104.569 39.6741C104.72 40.8375 104.961 41.975 105.262 43.0866C103.937 42.2593 102.28 41.6906 100.684 41.3804C98.9375 41.0443 90.1435 42.2593 90.7759 43.0866C92.5227 45.3875 100.624 47.042 106.316 46.3957C106.527 46.9127 106.708 47.4556 106.918 47.9727C106.948 48.0244 106.979 48.0761 107.009 48.1278C99.8711 51.1525 93.0045 54.6943 86.6199 58.6238C85.9272 59.0633 85.2044 59.4769 84.4816 59.9164C79.3618 63.0446 73.6999 66.4829 69.7245 70.9812C69.4535 70.2573 68.9716 69.6369 68.3994 69.1198C70.9894 59.1926 73.8806 48.8 81.7711 40.8892C82.4337 40.2429 81.3194 39.2605 80.6568 39.9326C72.6759 47.921 69.6342 58.2619 67.014 68.2926C66.743 68.1892 66.4719 68.1116 66.2009 68.0599C65.96 68.0082 65.719 67.9823 65.4781 67.9823C66.0202 62.0363 66.3515 56.0127 66.0503 50.0667C65.7793 45.2582 64.3638 40.2429 59.4849 37.3991C58.6417 36.9079 57.8586 38.0713 58.7019 38.5625C63.8217 41.5613 64.4541 47.223 64.5445 52.109C64.6348 57.4863 64.3939 62.8894 63.912 68.2409C63.3699 68.4477 62.858 68.7579 62.4062 69.1715C62.105 69.4559 61.8641 69.7661 61.6533 70.1022C60.1475 64.4147 56.3829 59.1667 53.0099 54.384C52.5581 53.7377 52.1064 53.0914 51.6546 52.471C46.7155 45.4392 40.8729 38.7951 34.3377 32.6681C33.7956 32.1769 33.2233 31.6082 32.6511 31.0653L32.35 30.7551C30.8743 29.3073 29.1877 27.6787 27.3506 26.1017C27.2603 25.9724 27.1398 25.8173 26.9591 25.7139C26.8989 25.6622 26.8387 25.6363 26.7483 25.5846C22.2308 21.8102 16.8701 18.5787 11.5395 19.6644C9.3711 20.1039 7.74481 21.2156 6.78109 22.896C5.03433 25.9983 5.87759 30.4965 7.41353 33.3661C8.49772 35.4085 9.88308 37.3215 11.2383 39.1571C11.419 39.4156 11.6298 39.7 11.8407 39.9585C11.8407 39.9843 11.8708 40.0102 11.8708 40.036C11.931 40.1653 12.0214 40.2946 12.1418 40.3721C13.3766 42.0784 14.5511 43.8363 15.4245 45.6977C16.9605 48.9551 16.9002 52.2124 16.2979 54.9269C16.2075 55.0562 16.1473 55.2113 16.1473 55.3664C16.1473 55.4698 16.1172 55.5732 16.1172 55.6767C15.8763 56.5556 15.6052 57.3571 15.304 58.0809C15.0029 58.8565 14.6415 59.6062 14.2801 60.3559C12.3225 64.5698 10.2746 68.913 15.6353 73.0235C17.8338 74.7298 20.4841 75.8931 23.1946 76.7721C20.3034 77.6252 16.2979 79.1247 14.8824 81.1153C13.9187 82.5113 13.6778 83.7781 14.1897 84.9156C14.3704 85.3551 14.6716 85.717 14.9728 86.0272C12.2924 86.7511 8.04598 88.2247 6.20887 90.6806C4.46212 93.0073 4.70305 94.998 5.36561 96.2389C3.82967 97.0661 1.17942 98.9533 0.577092 102.211C0.0349955 105.21 1.75163 107.252 3.31769 108.312C2.02268 109.63 -0.115587 112.267 0.00487914 115.24C0.0952286 117.308 1.23965 119.17 3.43816 120.721C5.09456 121.884 6.9919 122.324 8.88924 122.324C13.1959 122.324 17.5929 120.101 19.5204 118.963C20.4238 120.101 21.7791 120.954 23.4957 121.419C26.2664 122.195 29.519 121.884 31.055 121.135C38.825 117.334 44.5773 110.845 49.6368 104.408C51.8654 101.564 54.4253 98.0485 56.5034 94.1448C56.4733 95.9803 56.654 97.4539 57.2563 98.2812C57.708 98.9016 58.2501 99.1085 58.6416 99.186C58.7922 99.2119 58.9428 99.2377 59.1536 99.2377C59.515 99.2377 59.9668 99.1602 60.4486 98.9016C61.4124 98.3846 62.2556 97.1437 63.0387 95.4891C63.1892 99.7031 63.912 103.736 64.6649 107.045C66.3816 114.672 68.7006 122.582 74.0914 128.683C74.3624 128.994 74.754 129.33 75.2358 129.64C70.0257 132.277 65.448 135.793 61.8039 139.929C57.4671 144.841 54.847 150.658 52.2871 156.371C52.0461 156.914 52.5581 157.431 53.1002 157.612C62.9483 161.076 73.4891 161.05 83.5179 158.336C87.4029 157.276 91.318 156.164 94.8416 154.355C95.1127 154.225 95.3536 154.07 95.6247 153.941C92.613 162.317 93.4262 171.314 94.3297 179.974C94.3899 180.595 95.0525 181.164 95.8355 180.957C106.497 178.113 115.02 170.745 118.302 161.593C118.332 161.542 118.332 161.464 118.332 161.412C121.404 161.464 124.687 160.689 127.458 159.913C127.518 160.042 127.548 160.197 127.638 160.327C129.325 164.282 132.096 167.255 135.74 169.013C138.27 170.228 141.161 170.848 144.263 170.848C145.588 170.848 146.943 170.745 148.329 170.512C154.623 169.478 160.947 166.066 165.013 161.206C165.043 161.231 165.103 161.283 165.133 161.309C166.76 162.343 168.537 162.86 170.374 162.86C171.097 162.86 171.849 162.783 172.602 162.602C177.391 161.542 181.035 157.509 182.691 154.406L182.812 154.2C183.053 153.708 183.294 153.243 183.655 153.036C184.107 152.752 184.83 152.778 185.613 152.778C185.884 152.778 186.125 152.778 186.366 152.778C191.214 152.649 194.979 149.107 195.913 145.177C196.394 143.187 196.093 141.041 195.401 139.102C194.919 137.732 195.611 136.258 197.087 135.612C199.376 134.604 201.183 133.001 202.147 131.062C203.773 127.804 202.93 123.72 200.099 121.16C199.918 120.979 199.707 120.799 199.496 120.643C198.292 119.609 197.479 118.834 197.72 118.084C197.81 117.774 198.141 117.464 198.472 117.127C198.563 117.05 198.653 116.947 198.713 116.869C200.641 114.852 201.484 112.19 201.153 109.63C204.044 105.856 204.737 100.918 202.839 96.7042C202.327 95.5667 201.635 94.5068 200.791 93.5244C200.822 93.5244 200.852 93.4985 200.882 93.4985C209.104 90.0602 216.211 83.3903 217.717 75.4795C218.44 71.7051 217.747 68.034 216 64.7249L215.789 64.3372C213.802 60.7437 210.579 57.6414 206.574 55.4181C202.267 53.0139 197.177 51.7471 192.058 51.3852C189.347 51.1784 186.637 51.2559 183.956 51.5661C182.481 51.7213 181.155 52.0315 180.011 51.0232C179.168 50.2735 178.475 49.4204 177.692 48.6448C175.102 46.0338 171.337 43.3451 167.212 45.2323C165.103 46.1889 163.718 48.0761 162.513 49.7565C161.158 51.6437 159.984 53.6343 158.96 55.6508C154.623 64.363 153.388 74.161 155.526 83.4678C155.346 83.442 155.165 83.4161 154.984 83.3644C150.828 82.7698 146.702 83.5454 142.817 85.6136C146.823 78.8661 147.786 70.9295 145.287 63.5874C145.046 62.8636 143.931 62.5792 143.299 63.148C136.583 69.094 129.114 76.1258 128.783 84.7605C126.554 81.9167 124.627 78.9178 123.031 75.7897C125.56 75.4019 127.759 73.7474 129.235 71.9119C130.259 70.6451 132.276 63.1997 131.162 63.3806C128.211 63.8718 123.753 69.0164 122.007 73.6181C121.194 71.8343 120.501 70.0247 119.929 68.1633C120.712 66.9224 121.706 65.7332 123.001 64.6215C124.597 63.2772 126.434 62.088 128.271 60.9505L129.897 60.0198ZM194.045 53.5826C196.635 53.867 198.533 54.384 200.942 55.2113C206.032 56.9693 210.549 60.2008 213.199 64.3113C202.598 64.5181 192.058 65.7073 181.758 67.9048C180.372 68.1892 179.017 68.4994 177.662 68.8355C177.06 68.9906 176.096 69.3525 175.162 69.5593C175.403 67.0775 175.795 64.5957 176.487 62.1914C179.047 60.0198 182.21 58.598 185.432 57.2795C186.968 56.659 188.504 56.0644 190.01 55.3923C191.124 54.9011 192.63 54.4357 194.045 53.5826ZM180.463 53.6602C182.33 54.1514 184.619 53.5309 186.456 53.4275C188.233 53.3241 190.04 53.3241 191.817 53.4534C191.335 53.7119 190.732 53.9446 190.341 54.1255C189.588 54.4616 188.835 54.7977 188.082 55.1079C186.546 55.7542 185.01 56.3488 183.505 56.9951C181.216 57.9517 179.047 59.0375 177.09 60.4076C177.903 58.0551 178.987 55.8059 180.463 53.6602ZM175.795 49.8082C176.638 50.6613 177.451 51.7213 178.445 52.5485C177.451 54.0221 176.608 55.5215 175.915 57.0727C175.343 54.2289 174.861 51.3852 174.439 48.5156C174.921 48.9551 175.373 49.3946 175.795 49.8082ZM165.736 49.3428C166.971 47.8176 168.687 46.2664 171.066 46.7059C171.819 46.861 172.482 47.1454 173.114 47.5332C173.626 51.3593 174.289 55.1855 175.102 58.9857C173.867 62.2948 173.175 65.759 172.843 69.2749C172.06 68.6545 171.337 67.4653 170.826 66.819C170.103 65.94 169.44 65.0093 168.808 64.0786C166.368 60.4593 164.591 56.5298 163.477 52.4451C164.17 51.411 164.923 50.3511 165.736 49.3428ZM164.019 125.193C163.989 125.219 163.989 125.245 163.989 125.245C163.598 125.297 163.236 125.323 162.845 125.374C162.995 124.702 163.055 124.004 163.025 123.306C163.025 123.022 162.965 122.763 162.935 122.505C163.989 121.497 165.194 120.592 166.549 119.945C167.151 119.661 167.814 119.428 168.507 119.273C169.44 119.066 170.434 119.066 171.368 118.911C172.211 118.782 173.024 118.653 173.867 118.472C175.313 118.162 176.728 117.722 178.084 117.127C180.282 116.145 182.21 114.672 183.233 112.707C184.8 109.734 184.047 106.347 182.059 103.658C181.969 103.529 180.884 102.237 180.854 102.262C182.722 100.944 184.227 99.3411 185.312 97.4798C185.944 98.488 186.245 99.5738 186.366 100.453C186.607 101.978 188.112 103.167 189.889 103.167H189.919C192.479 103.167 195.009 104.02 196.726 105.52C190.281 116.352 173.536 117.205 164.019 125.193ZM197.509 106.321C197.569 106.399 197.659 106.502 197.72 106.58C198.322 107.381 198.743 108.312 198.924 109.268C195.611 113.198 190.913 116.016 185.944 118.265C180.372 120.799 174.5 122.815 168.717 124.961C167.784 124.987 166.85 125.012 165.917 125.09C175.584 117.851 191.094 116.636 197.509 106.321ZM160.014 126.77C159.441 127.856 158.538 128.864 157.394 129.718C157.394 129.718 157.394 129.718 157.363 129.718C157.243 129.795 157.123 129.873 157.032 129.95C154.382 131.734 151.009 132.354 148.027 131.631C143.179 130.441 139.896 125.555 141.131 121.393C141.793 119.118 143.691 117.955 145.166 117.386C146.582 116.843 148.238 116.559 149.925 116.559C152.394 116.559 154.924 117.127 157.002 118.213C158.689 119.118 160.706 120.721 160.827 123.332C160.857 124.159 160.736 124.961 160.465 125.736L160.014 126.77ZM72.7362 87.113C72.7362 87.1389 72.7362 87.1647 72.7663 87.1906C74.9648 92.9039 78.7595 98.0227 83.8793 102.107C81.0784 103.038 77.9162 103.503 74.8142 103.348C71.2303 97.8159 69.2125 91.6889 68.8813 85.3809C69.9654 86.0789 71.2605 86.6477 72.7362 87.113ZM68.3392 82.2269C67.8874 81.6065 67.6465 80.9343 67.5862 80.1588V80.1329C68.7909 80.0812 69.9956 80.0036 71.1701 79.8744C77.344 82.4337 83.5179 84.9931 89.6315 87.6042C89.5412 87.6042 89.4809 87.6042 89.3906 87.5784C82.1927 87.1389 71.2906 86.415 68.3392 82.2269ZM74.1215 87.5266C75.7177 87.9661 77.4343 88.2764 79.1811 88.5349C82.5842 91.7147 86.3488 94.7136 90.7759 96.8076C89.4207 98.8241 87.5535 100.556 85.0538 101.642C80.0846 97.79 76.3501 92.9556 74.1215 87.5266ZM81.0784 88.8193C83.9395 89.1553 86.8005 89.3622 89.24 89.5173C90.8362 89.6207 92.2215 89.7241 93.3358 89.8275C93.0347 91.9215 92.3721 94.0156 91.318 95.9286C87.4631 94.0931 84.1202 91.5337 81.0784 88.8193ZM92.7335 87.7076C92.6733 87.7076 92.5829 87.7335 92.5227 87.7335C86.138 84.9931 79.7232 82.3303 73.3084 79.6676C76.3803 79.2798 79.3919 78.6593 82.3734 77.832C90.1134 80.3656 98.1545 82.1494 105.894 84.7346C102.009 86.7252 97.01 87.4491 92.7335 87.7076ZM113.454 77.1857C106.677 75.9965 99.8109 75.1176 93.0949 73.7215C95.0224 72.765 97.1305 71.5499 99.058 70.1281C104.72 70.8261 110.412 71.188 116.104 71.5241C116.014 71.8085 115.953 72.0928 115.863 72.3772C115.893 72.3772 114.899 75.4795 113.454 77.1857ZM115.2 78.7369C115.08 83.0284 114.899 86.3891 109.659 87.9144C106.828 88.7417 102.582 88.9227 99.5398 88.7417C102.913 87.7852 107.099 86.4667 109.569 84.5278C111.677 82.8474 113.725 80.986 115.2 78.7369ZM112.851 78.1164C111.617 79.9519 110.111 81.684 108.364 83.1059C107.942 83.442 107.491 83.7522 107.039 84.0624C99.5398 81.4514 91.6794 79.7193 84.0901 77.315C86.65 76.5136 89.1496 75.557 91.559 74.4454C98.6062 75.9707 105.774 76.8755 112.851 78.1164ZM101.648 100.737C100.202 99.7548 98.817 98.7207 97.8533 97.4281L97.8232 97.4022C98.7869 95.5667 99.4194 93.6278 99.6904 91.6372C102.13 93.4727 104.87 96.032 105.141 97.6607C105.292 98.6431 105.111 99.367 104.66 99.8323C103.696 100.763 101.648 100.737 101.648 100.737ZM101.076 101.823C101.136 101.901 101.768 102.237 101.859 102.288C102.22 102.495 102.642 102.676 103.214 103.064C103.304 103.141 103.425 103.219 103.515 103.271C103.545 103.271 103.545 103.297 103.575 103.297C103.726 103.4 103.877 103.503 103.997 103.633C105.985 105.158 108.334 107.381 108.755 109.398C109.358 112.422 107.37 113.301 107.159 113.379C107.069 113.405 106.979 113.456 106.888 113.508C102.823 109.604 98.6966 105.752 94.3899 102.056C95.4741 100.944 96.4378 99.7031 97.2208 98.4105C98.3954 99.7806 99.5097 100.763 101.076 101.823ZM106.979 115.163C107.641 115.887 109.538 118.239 108.665 121.16C107.701 124.444 104.118 124.599 103.967 124.625C103.846 124.625 103.726 124.65 103.606 124.702C98.9375 118.394 93.9984 112.216 88.8184 106.192C90.5952 105.287 92.1914 104.15 93.5768 102.857C98.2448 106.838 102.642 110.975 106.979 115.163ZM105.623 126.693C105.593 126.564 105.533 126.434 105.503 126.305C107.31 125.891 109.629 124.728 110.623 122.195C110.653 122.195 110.683 122.195 110.683 122.195C116.164 120.799 121.675 120.643 127.157 121.781C127.217 122.505 127.337 123.203 127.488 123.901C120.983 123.72 113.996 124.289 109.328 128.606L105.623 126.693ZM102.521 125.271C102.732 125.607 102.943 125.84 103.003 125.943C103.033 125.995 105.021 130.028 103.365 133.027C102.612 134.397 101.166 135.353 99.0881 135.896C92.6733 137.525 87.1921 129.407 87.1318 129.33C87.0716 129.226 86.9511 128.994 86.7403 128.58C83.6082 122.014 80.3556 115.473 77.1934 108.881C80.8676 108.906 84.5418 108.183 87.8245 106.709C93.125 112.836 97.7629 118.808 102.521 125.271ZM100.925 143.031C101.407 143.212 101.829 143.368 102.22 143.574C101.949 144.324 101.829 144.686 101.799 145.487C101.799 145.772 101.648 146.03 101.588 146.108C100.353 147.711 98.9375 149.158 97.2811 150.425C97.7328 147.581 98.1846 144.764 98.6363 141.92C99.3892 142.463 100.202 142.773 100.925 143.031ZM102.25 148.771C102.461 149.314 102.732 149.831 103.094 150.296C104.178 151.77 105.864 152.649 107.882 152.881C107.972 153.502 108.063 154.07 108.213 154.613C104.629 155.13 101.016 155.647 97.4317 156.19C97.8834 154.665 98.4556 153.166 99.1483 151.692C100.263 150.813 101.287 149.831 102.25 148.771ZM108.545 155.596C108.575 155.673 108.605 155.777 108.665 155.854C107.28 157.716 105.955 159.603 104.69 161.516C101.829 162.033 98.9977 162.576 96.1367 163.093C96.3174 161.128 96.6486 159.189 97.1305 157.25C100.955 156.707 104.75 156.139 108.545 155.596ZM107.732 150.942C106.286 150.684 105.413 149.908 104.931 149.262C103.786 147.737 103.636 145.513 104.539 143.6C104.69 143.238 104.599 142.851 104.298 142.566C103.485 141.868 102.582 141.558 101.799 141.248C101.136 140.989 100.534 140.782 100.052 140.395C99.5699 139.748 99.4194 139.024 100.172 137.732C100.202 137.654 100.232 137.577 100.263 137.499C100.473 137.447 100.684 137.37 100.865 137.292C100.925 137.318 100.955 137.37 101.016 137.396C104.178 138.895 107.551 139.05 111.044 138.843C108.936 142.463 107.671 146.522 107.732 150.942ZM102.551 136.594C103.606 136 104.419 135.25 105.051 134.371C107.491 135.483 110.111 136.181 112.851 136.232C112.55 136.646 112.249 137.06 111.948 137.473C108.725 137.732 105.533 137.783 102.551 136.594ZM105.563 133.466C106.196 132.096 106.316 130.622 106.196 129.304C107.701 130.131 109.358 130.7 110.954 131.243C112.61 131.812 114.176 132.354 115.562 133.156C114.899 133.802 114.297 134.5 113.695 135.198C110.803 135.276 108.093 134.629 105.563 133.466ZM111.767 129.485C111.345 129.33 110.924 129.2 110.502 129.045C115.02 125.142 121.645 124.728 127.759 124.935C127.789 125.012 127.819 125.09 127.819 125.193C124.025 126.667 120.26 128.916 117.037 131.76C115.381 130.752 113.544 130.105 111.767 129.485ZM127.127 120.747C121.736 119.661 116.315 119.816 110.954 121.083C111.586 118.136 110.141 115.731 109.147 114.516C110.322 113.612 111.466 111.854 110.924 109.139C110.773 108.389 110.442 107.614 109.96 106.89C110.111 105.416 110.593 103.865 111.315 102.392C116.104 101.28 121.344 100.427 126.042 102.34C129.897 103.917 132.819 106.787 134.686 110.018C132.547 111.052 130.68 112.397 129.265 114.18C127.699 116.145 127.096 118.42 127.127 120.747ZM139.324 90.5772C139.896 90.086 140.468 89.6207 141.101 89.1553C147.455 93.3951 150.678 100.556 149.413 107.329C148.63 107.252 147.847 107.252 147.033 107.252C147.696 100.996 144.865 94.7136 139.324 90.5772ZM145.829 107.304C145.257 107.355 144.654 107.407 144.082 107.459C143.66 103.917 142.426 100.453 139.986 97.5315C138.751 96.0579 137.517 94.9979 135.89 93.9639C136.131 93.6536 136.372 93.3951 136.643 93.1366C136.673 93.1107 136.704 93.0849 136.734 93.059C137.276 92.4644 137.848 91.8698 138.48 91.3011C143.751 95.2565 146.582 101.306 145.829 107.304ZM134.144 90.5514C134.565 88.7159 135.047 86.9062 135.589 85.0965C137.456 84.5278 139.354 84.1141 141.311 83.8815C140.257 85.7945 139.534 87.1906 137.968 88.871C137.818 89.0261 137.487 89.3622 137.155 89.7499C136.523 90.3445 135.86 90.9908 135.258 91.663L134.144 90.5514ZM141.763 107.821C141.04 107.95 140.318 108.105 139.625 108.26C138.962 103.452 134.565 99.6514 129.867 97.2212C125.982 95.2306 121.103 94.1965 116.887 95.4374C118.604 94.0414 120.501 92.9298 122.458 92.2576C124.235 91.6889 126.072 91.9215 127.97 92.5161C128.301 92.6195 128.662 92.8005 128.843 92.8522C136.764 95.2048 141.01 100.841 141.763 107.821ZM129.747 98.3587C133.993 100.634 137.968 104.15 138.48 108.57C137.547 108.829 136.643 109.139 135.77 109.527C133.752 105.985 130.5 102.883 126.253 101.28C121.706 99.548 116.706 100.143 112.008 101.177C112.731 99.9616 113.604 98.7724 114.598 97.6607C119.085 94.6877 125.229 95.9286 129.747 98.3587ZM129.566 119.713C131.403 120.592 133.361 121.29 135.439 121.729C136.372 121.936 137.637 122.272 138.721 122.169C138.661 122.712 138.631 123.254 138.661 123.797C135.71 124.444 132.608 124.831 129.867 123.513C129.566 122.22 129.445 120.954 129.566 119.713ZM138.751 125.012C137.216 125.943 135.619 126.589 133.933 127.287C132.788 127.753 131.764 128.451 130.981 127.287C130.53 126.615 130.349 125.581 130.168 124.78C132.788 125.736 135.86 125.323 138.631 124.78C138.721 124.754 138.601 124.754 138.751 125.012ZM134.144 120.359C132.608 119.92 131.132 119.325 129.747 118.627C130.078 116.998 130.891 115.473 132.307 114.129C135.137 111.466 139.203 110.251 143.209 109.656C146.793 109.113 151.43 108.674 154.231 111.078C154.352 111.181 154.352 111.181 154.502 111.414C154.292 112.655 153.87 113.844 153.268 115.008C150.166 114.439 146.853 114.646 144.233 115.68C141.492 116.74 139.655 118.575 138.962 120.954C138.962 120.979 138.932 121.031 138.932 121.057C137.697 121.522 135.137 120.643 134.144 120.359ZM182.902 95.0497C183.535 95.4891 184.077 95.9545 184.528 96.4715C183.505 98.4363 181.969 100.168 180.011 101.513C179.529 101.099 179.047 100.737 178.505 100.375C180.372 98.8758 181.878 97.092 182.902 95.0497ZM177.511 99.7806C175.554 98.6948 173.265 97.9193 170.795 97.5573C172.271 96.1613 177.06 92.1284 181.577 94.2741C181.698 94.3258 181.818 94.4033 181.938 94.4551C180.945 96.4974 179.439 98.307 177.511 99.7806ZM180.553 105.261C181.246 106.347 181.667 107.536 181.788 108.777C180.915 110.69 178.234 111.673 176.186 112.474C173.988 113.301 171.699 113.87 169.35 114.284C166.639 114.775 163.808 115.189 161.399 116.326C159.652 117.05 164.019 114.154 164.621 112.862C170.163 110.587 176.789 109.682 180.553 105.261ZM162.212 112.577C161.158 114.18 159.381 115.189 158.297 116.714C158.237 116.688 158.207 116.662 158.146 116.636C157.725 116.404 157.303 116.223 156.851 116.042C158.929 114.361 160.616 112.448 161.941 110.277C162.604 110.845 162.784 111.724 162.212 112.577ZM155.647 115.602C155.255 115.473 154.834 115.37 154.442 115.266C155.105 113.948 155.526 112.603 155.737 111.207C157.062 110.302 158.839 109.32 160.616 109.708C160.706 109.734 160.797 109.76 160.887 109.785C159.562 111.957 157.815 113.922 155.647 115.602ZM160.345 118.162C163.688 115.757 168.476 115.68 172.542 114.697C175.313 114.025 179.288 112.939 181.547 110.923C181.547 115.602 172.723 117.102 170.163 117.283C167.513 117.464 164.471 118.575 162.182 120.411C161.73 119.583 161.128 118.834 160.345 118.162ZM168.808 94.4034C170.404 88.7417 174.982 83.4937 180.975 80.7792C181.125 80.9343 181.276 81.0636 181.427 81.2445C182.932 82.9508 183.595 85.0965 184.408 87.113C184.709 87.8627 184.98 88.7417 185.733 89.2588C186.607 89.8534 187.691 89.7758 188.745 89.8533C191.847 90.0602 194.828 91.2235 197.117 93.0073C193.232 94.3775 190.672 97.5056 188.715 100.634C188.624 100.504 188.564 100.349 188.534 100.194C188.173 97.8676 186.878 94.6619 182.661 92.6454C176.879 89.9051 171.277 94.3516 169.32 96.1613C168.988 95.4891 168.808 94.4034 168.808 94.4034ZM168.145 92.7747C167.784 91.9991 167.362 91.2494 166.88 90.5514C168.296 85.5877 171.759 81.2704 176.668 78.3749C177.933 78.711 179.108 79.2539 180.101 80.0036C174.289 82.744 169.982 87.3715 168.145 92.7747ZM166.007 89.4139C165.465 88.7676 164.862 88.1471 164.23 87.5784C164.23 87.5525 164.23 87.5525 164.23 87.5266C163.718 83.8298 166.007 79.9778 170.103 78.5559C171.699 78.013 173.446 77.8838 175.132 78.0906C170.735 80.9343 167.543 84.8897 166.007 89.4139ZM159.562 60.2267C160.375 58.0292 161.429 55.8835 162.634 53.8153C163.778 57.5897 165.495 61.2349 167.784 64.5957C169.019 66.4053 170.374 68.396 172.06 69.9213C172.271 70.1281 172.512 70.2573 172.753 70.3866C172.602 72.248 172.572 74.1093 172.572 75.9707C171.458 76.0482 170.374 76.2551 169.32 76.617C168.988 76.7204 168.687 76.8497 168.386 76.9789C164.26 73.1011 160.887 68.732 158.357 63.9752C158.689 62.7085 159.11 61.4676 159.562 60.2267ZM157.936 65.6039C160.375 69.9471 163.537 73.9284 167.332 77.496C165.284 78.6593 163.688 80.3397 162.724 82.2786C160.616 79.9519 158.689 77.5218 156.942 74.9883C156.912 71.8602 157.243 68.7062 157.936 65.6039ZM162.272 83.442C162.001 84.2176 161.851 84.9931 161.791 85.7945C160.676 85.1224 159.472 84.5795 158.177 84.14C157.574 81.8133 157.183 79.4607 157.032 77.0823C158.658 79.2798 160.405 81.3997 162.272 83.442ZM176.608 101.539C177.933 102.314 179.047 103.271 179.921 104.331C176.578 108.648 170.314 109.682 165.013 111.647C165.013 111.207 164.953 110.742 164.742 110.251C164.079 108.7 162.212 107.743 160.375 107.614C158.387 107.459 156.611 108.208 155.014 109.165C153.689 108.26 152.183 107.743 150.587 107.485C151.912 100.375 148.6 93.0073 142.034 88.509C145.498 86.1823 149.774 84.5795 154.713 85.2775C161.098 86.234 165.856 90.6289 167.212 96.7559C167.242 96.8335 167.272 96.9369 167.302 97.0144C167.784 97.8417 168.326 98.7724 169.53 99.2894C169.651 99.3411 169.771 99.367 169.892 99.3928C174.048 99.9874 175.132 100.634 176.608 101.539ZM141.853 82.8215C139.836 83.0283 137.848 83.4161 135.921 83.959C136.613 81.7357 137.396 79.5383 138.27 77.3667C140.167 76.2292 142.155 75.2468 144.233 74.4454C143.962 77.2891 143.148 80.1329 141.853 82.8215ZM143.63 66.121C143.63 66.0951 143.66 66.0693 143.66 66.0434C144.263 68.4218 144.504 70.8519 144.353 73.2562C142.456 73.9542 140.649 74.7815 138.932 75.7122C140.287 72.4806 141.853 69.2749 143.63 66.121ZM138.089 71.2397C139.113 70.1281 140.197 69.0423 141.311 67.9823C140.137 70.2056 139.083 72.4548 138.119 74.7039C138.029 73.5664 138.029 72.4031 138.089 71.2397ZM136.854 72.6357C136.854 74.1093 136.944 75.557 137.155 77.0048C136.312 79.1505 135.529 81.2962 134.836 83.4678C134.385 81.6065 133.842 79.771 133.18 77.9613C134.144 76.0999 135.409 74.3161 136.854 72.6357ZM132.487 79.4607C133.09 81.2962 133.602 83.1318 134.023 85.019C134.053 85.1482 134.114 85.4068 134.114 86.0014C133.692 87.4232 133.511 88.1471 133.18 89.5948C132.578 89.0002 132.005 88.3798 131.433 87.7593C131.433 87.7335 131.433 87.7335 131.433 87.7076C130.951 84.7605 131.433 82.046 132.487 79.4607ZM118.061 72.6616C118.182 72.1445 118.363 71.6534 118.543 71.1105C121.434 78.8661 126.223 86.0014 132.547 92.1025L128.723 90.7582C126.434 90.0343 124.085 89.7241 121.645 90.4997C115.321 92.6712 109.719 98.669 108.153 104.615C107.099 103.529 105.925 102.599 104.991 101.901C105.413 101.72 105.864 101.487 106.226 101.151C107.189 100.272 107.581 99.0051 107.31 97.4022C106.948 95.1014 103.937 92.361 101.678 90.6031C102.13 90.6289 102.612 90.6289 103.063 90.6289C105.533 90.6289 108.003 90.3962 110.352 89.6982C117.158 87.7076 117.278 83.0284 117.399 78.5042C117.429 77.7028 117.429 76.8755 117.489 76.0482C117.549 75.2727 117.67 74.4454 117.851 73.5664L118.061 72.6616ZM116.465 70.5417C111.044 70.2056 105.623 69.8954 100.232 69.2491C102.039 67.8014 103.575 66.1468 104.479 64.363C109.96 64.2079 115.411 64.2855 120.862 63.8977C118.875 65.7332 117.399 67.9823 116.465 70.5417ZM127.157 59.2701C127.096 59.3218 127.036 59.3994 126.976 59.4511C125.32 60.4593 123.663 61.5193 122.157 62.7343C116.435 63.2255 110.683 63.148 104.901 63.3031C105.262 62.2948 105.413 61.2607 105.322 60.175C114.538 58.3911 123.513 55.7542 132.307 52.8588C131.192 55.3406 129.144 57.6156 127.157 59.2701ZM132.819 51.6437C123.814 54.6167 114.598 57.3571 105.172 59.1926C105.081 58.8823 104.991 58.5463 104.87 58.2102C104.449 57.1244 103.756 56.2196 102.913 55.4957C112.159 52.0056 121.434 48.5414 130.68 45.0514C132.066 45.7752 133.029 46.9127 133.21 48.6448C133.27 49.6531 133.12 50.6613 132.819 51.6437ZM132.005 42.2076C133.993 42.2076 135.77 42.5954 137.246 43.5002C138.511 44.3017 139.173 45.3357 139.233 46.6542C139.384 49.3687 137.005 52.6778 134.595 54.565C134.294 54.7977 133.963 55.0303 133.632 55.263C135.168 52.7812 136.041 50.015 135.348 47.3781C134.595 44.5602 132.186 43.0349 129.295 42.3886C130.229 42.2852 131.132 42.2076 132.005 42.2076ZM110.382 34.9173C109.719 35.6929 108.936 36.2875 108.093 36.7269C108.695 34.3485 108.575 31.815 108.274 29.4366C108.063 27.8079 107.762 26.1534 107.31 24.5505C107.31 24.111 107.792 23.5164 108.003 23.2838C109.478 21.5517 110.713 20.6468 112.701 19.4576C113.092 24.7315 114.026 30.2639 110.382 34.9173ZM103.877 6.40224C107.521 9.58207 110.442 13.3048 111.376 17.7772C109.749 18.7596 108.334 19.9747 107.189 21.3707C105.563 18.346 103.485 15.5539 100.955 12.9946C102.431 10.9522 103.425 8.72894 103.877 6.40224ZM95.6247 5.47155C96.0764 4.72184 96.5583 3.97212 97.0703 3.24826C97.2208 3.06729 97.5521 2.34343 97.7931 2.26587C98.3653 2.08491 98.817 2.55025 99.2085 2.80877C100.443 3.6619 101.648 4.56673 102.823 5.52326C102.491 7.92752 101.558 10.2284 100.052 12.2966C98.1243 10.5386 96.4679 8.57383 95.0826 6.47979C95.2332 6.14371 95.4139 5.80763 95.6247 5.47155ZM93.3358 10.4093C93.6671 9.47866 94.0586 8.54798 94.4803 7.61729C95.8355 9.55621 97.4317 11.3659 99.2387 13.0204C99.0278 13.4341 98.9375 13.7184 98.8773 13.8477C97.4919 16.7431 96.6486 19.3025 96.1367 22.3789C94.7212 21.5775 93.3057 20.8278 91.83 20.1298C91.7397 16.8466 92.2215 13.5892 93.3358 10.4093ZM96.8896 34.4261C94.9922 32.5647 94.2995 30.1605 93.4563 27.8596C92.7937 26.0241 92.1613 24.1886 91.4987 22.3531C93.1852 23.2062 94.5706 23.5681 96.1969 24.5505C96.3475 24.6539 96.6185 24.6798 96.9498 25.2485C97.01 29.6951 98.9977 34.4519 102.762 37.4508C100.564 37.0372 98.4556 35.9514 96.8896 34.4261ZM98.1243 24.5247C98.1846 24.4213 98.0942 23.8525 98.1243 23.7491C98.4556 20.8537 99.3591 18.4494 100.473 15.7091C102.702 18.1909 104.509 20.9054 105.864 23.8267C105.894 23.8784 105.925 23.9301 105.955 23.9559C106.527 25.7397 106.888 27.6011 107.129 29.4366C107.46 32.0218 107.551 34.7363 106.738 37.2698C106.105 37.4508 105.473 37.5542 104.81 37.5801C100.293 34.8139 97.9436 29.3073 98.1243 24.5247ZM112.55 47.9985C113.273 47.7142 114.116 47.3781 114.869 47.0678L115.291 46.8869C117.218 46.0855 119.477 45.1806 121.796 44.3534C121.886 44.3534 121.977 44.3534 122.067 44.3275C124.235 43.9139 127.006 43.8363 129.235 44.5085C120.109 47.9468 110.984 51.3593 101.889 54.7977C101.136 54.3323 100.263 54.0221 99.329 53.8411C103.606 51.6954 108.033 49.7306 112.55 47.9985ZM85.8067 61.4934C86.5295 61.0539 87.2523 60.6144 87.945 60.175C89.511 59.2184 91.0771 58.2877 92.6733 57.3829C94.8718 58.6497 96.227 60.692 95.444 63.0445C94.5706 65.7073 91.4385 67.698 88.8184 69.0681C83.1263 72.0411 76.6513 73.4889 70.0558 73.9801C73.73 68.8355 79.8436 65.1127 85.8067 61.4934ZM69.3631 75.04C77.3139 74.523 85.5658 72.7392 91.9505 68.4477C94.2995 66.8707 96.6788 64.7249 96.8595 62.0105C97.01 59.813 95.6849 57.9775 93.7575 56.7624C94.7814 56.1937 95.8355 55.6249 96.8896 55.0821C101.768 54.4616 104.63 58.8306 103.425 62.5792C102.16 66.5863 97.8232 69.4818 93.9683 71.6534C86.1982 75.9965 76.8922 78.3749 67.6766 78.7886C67.7971 78.1423 68.038 77.4443 68.4295 76.6945C68.7006 76.1258 69.0318 75.5829 69.3631 75.04ZM64.153 70.4642C64.4541 70.0764 64.936 69.8954 65.4179 69.8954C65.5383 69.8954 65.6287 69.8954 65.7793 69.9213C66.6225 70.0764 67.3754 70.7485 67.6766 71.5499C67.8573 72.0411 67.7669 72.6357 67.4658 73.1528C67.1646 73.6698 66.6526 74.1352 65.9901 74.5488C65.4179 74.8849 64.6649 75.1176 64.2433 74.9107C64.1228 74.859 64.0024 74.7298 63.8518 74.5488C63.4302 74.0318 63.2495 73.3596 63.2495 72.6357C63.2495 71.7826 63.5506 70.9812 64.153 70.4642ZM49.7573 53.4534C50.209 54.0997 50.6608 54.7201 51.1125 55.3923C54.9373 60.7437 58.8525 66.2244 59.8764 72.1704C54.1543 69.5335 48.9441 66.121 45.0892 61.5968C43.2521 59.4511 41.2946 56.659 41.4753 53.8928C41.656 51.3076 43.9147 49.7048 46.6553 49.2653C47.7395 50.6613 48.7634 52.0573 49.7573 53.4534ZM44.3664 46.3957C44.9085 47.0678 45.4506 47.7142 45.9626 48.3863C43.7039 48.8258 41.7463 49.9633 40.8127 51.9022C39.5478 54.5392 40.8127 57.4605 42.3486 59.8389C46.2638 65.8624 53.0099 70.2832 60.0571 73.4113C60.1174 74.0318 60.1475 74.6522 60.1475 75.2727C60.1475 75.9448 60.0872 76.5394 59.9668 77.1082C51.8052 73.644 44.4267 68.4218 39.337 61.907C36.8674 58.7531 34.3979 54.9528 34.7292 51.0232C35.0605 47.0679 39.6984 43.5261 43.9749 46.0079C44.0954 46.0338 44.1556 46.1889 44.3664 46.3957ZM33.4643 92.5937C31.6874 90.7323 30.7237 88.5349 30.4225 86.234C35.452 85.7687 40.2405 84.2951 44.8483 82.5372C46.5649 82.8991 48.2816 83.1576 49.9681 83.3127C45.4205 87.5266 39.7887 90.7065 33.4643 92.5937ZM51.3233 83.4678C51.3535 83.442 51.3836 83.4161 51.4137 83.3644C51.745 83.3644 52.0461 83.3903 52.3774 83.3903C53.5821 83.3903 54.7265 83.2869 55.7806 83.0801C52.5882 88.7676 47.9202 93.7053 42.1077 97.5832C39.2466 96.6783 36.5964 95.2306 34.5184 93.5244C34.4581 93.4727 34.3979 93.421 34.3377 93.3693C40.8729 91.3786 46.7155 87.992 51.3233 83.4678ZM30.302 85.1999C30.1816 83.1059 30.543 80.9343 31.2055 78.9178C32.2897 79.1764 33.6149 79.5641 35.1207 80.0036C37.4397 80.6758 40.1803 81.4772 42.951 82.0977C38.9154 83.5971 34.6689 84.838 30.302 85.1999ZM32.9523 77.2633C32.9222 77.2633 32.9222 77.2374 32.8921 77.2374C29.007 75.5312 24.7004 73.2045 22.02 70.0247C30.1213 70.2315 38.1323 71.2656 46.2035 71.5758C46.5047 71.8085 46.8059 72.0411 47.107 72.248C49.155 73.7474 51.3535 75.1176 53.6122 76.3585C46.7155 76.617 39.8189 76.9014 32.9523 77.2633ZM17.8037 45.7752C22.532 47.921 27.5012 49.6789 32.3801 51.6179C32.3801 52.5485 32.4704 53.5051 32.7114 54.4099C32.9824 55.4698 33.3739 56.5298 33.8558 57.538C28.7661 56.323 23.7969 54.8494 18.7976 53.35C19.0987 50.713 18.7674 48.1536 17.8037 45.7752ZM18.4964 55.1855C18.5566 54.9269 18.5867 54.6684 18.647 54.4099C23.8872 55.961 29.0974 57.5122 34.4581 58.7531C35.4821 60.5886 36.7771 62.3465 38.1624 63.9752C38.1926 64.0269 38.2528 64.0786 38.2829 64.1045C31.6272 63.1221 25.122 61.6744 18.4964 60.511C18.3157 58.7789 18.3458 57.0468 18.4964 55.3923C18.4964 55.3147 18.4964 55.2372 18.4964 55.1855ZM12.4129 30.5483C12.5032 29.9278 12.6538 29.3073 12.8646 28.7386C13.6778 26.4894 15.3944 25.4812 17.4122 25.2744C24.2185 31.4789 30.9947 37.6835 37.801 43.888C36.9879 44.1982 36.2049 44.6119 35.5122 45.1548C34.94 45.5943 34.428 46.0855 34.0365 46.6025C26.3568 41.7681 19.2493 36.2358 12.4129 30.5483ZM39.3069 65.2678C40.9934 67.1292 42.8305 68.8613 44.8182 70.4642C36.9277 70.1022 29.1275 69.094 21.2069 68.9647C20.9358 68.5769 20.725 68.1892 20.5142 67.7755C19.5204 65.8624 18.918 63.7167 18.6169 61.5451C25.5135 62.786 32.3199 64.3372 39.3069 65.2678ZM25.8749 27.5235C27.6217 29.0488 29.248 30.6258 30.6634 31.996L30.9646 32.3062C31.5368 32.8491 32.1392 33.4437 32.6812 33.9608C35.9037 36.9855 38.9756 40.1394 41.8065 43.3968C40.8729 43.2934 39.9694 43.3451 39.0659 43.5261C32.3801 37.425 25.6942 31.3238 19.0385 25.2227C21.3575 25.3778 23.8571 26.3343 25.7545 27.4718C25.7846 27.4977 25.8448 27.4977 25.8749 27.5235ZM11.2383 26.7997C10.0638 28.842 9.76262 31.1946 9.97343 33.573C9.76262 33.2369 9.58192 32.9008 9.40122 32.5906C8.04598 30.0571 7.38341 26.1792 8.73866 23.7491C9.40122 22.5599 10.4854 21.836 12.0214 21.5258C12.5634 21.4224 13.1055 21.3707 13.6476 21.3707C15.7257 21.3707 17.8639 22.1204 19.942 23.2579C16.4786 22.8184 13.0754 23.6457 11.2383 26.7997ZM14.1897 39.6741C14.1596 39.6224 14.1596 39.5707 14.1295 39.519C13.0152 37.2181 12.202 34.4778 12.2924 31.8667C18.9783 37.3991 25.9352 42.7764 33.4342 47.4556C32.8921 48.4122 32.5608 49.4721 32.4102 50.5321C27.2603 48.4897 22.02 46.6542 17.0809 44.3017C16.2678 42.6988 15.2438 41.1477 14.1897 39.6741ZM17.111 71.6534C12.9851 68.4735 14.3704 65.3196 16.2075 61.3383C16.5388 63.9494 17.2616 66.5346 18.4663 68.8096C19.8215 71.369 22.1706 73.5147 24.851 75.3244C22.02 74.4712 19.3095 73.3596 17.111 71.6534ZM16.2678 84.321C16.1473 83.7264 16.2075 83.0025 16.8099 82.1494C17.8639 80.6241 21.749 79.2281 24.5799 78.4525C23.827 80.5982 23.556 82.8732 23.6764 85.0965C21.9899 85.5102 20.3034 85.8204 18.647 86.2082C18.6169 86.1823 16.4786 85.5877 16.2678 84.321ZM8.07609 91.7664C9.7325 89.5431 14.5813 88.0954 17.0508 87.5525C17.2917 87.5008 17.623 87.3715 17.7134 87.3457C19.8215 86.8028 21.5984 86.6218 23.7367 86.1306C23.8872 87.3974 24.1884 88.6383 24.61 89.8792C18.9481 91.844 13.4368 94.0931 7.95563 96.3423C7.68458 96.1355 7.65446 96.032 7.534 95.9545C7.534 95.9028 6.05829 94.4292 8.07609 91.7664ZM2.77559 102.573C3.19723 100.349 4.85363 98.9534 6.05829 98.1778C6.2691 98.0744 6.57027 97.8417 6.66062 97.8158C12.8345 95.2823 18.6771 93.0073 25.0317 90.8099C25.7243 92.4644 26.6881 94.0414 27.8927 95.4633C20.3636 99.2377 13.0152 103.271 5.81736 107.51C5.60654 107.51 5.45596 107.381 5.33549 107.329C5.30538 107.329 2.14315 105.933 2.77559 102.573ZM18.7674 117.179C16.8701 118.343 9.34099 122.505 4.85363 119.325C3.16711 118.136 2.29373 116.766 2.2335 115.24C2.08292 111.957 5.66678 108.906 5.69689 108.881C5.78724 108.803 5.84747 108.7 6.02817 108.57C13.3766 104.227 20.8756 100.117 28.5854 96.2389C30.9345 98.7207 33.9763 100.608 37.3493 101.823C31.2055 107.019 24.9112 112.009 18.7674 117.179ZM47.8298 103.426C42.9209 109.682 37.3794 115.964 30.0009 119.558C29.0673 120.023 26.4773 120.307 24.2486 119.687C22.6525 119.247 21.508 118.549 20.9358 117.386C20.8756 117.283 20.8455 117.153 20.7551 116.972C26.658 112.035 32.7415 107.2 38.6142 102.237C41.5656 103.141 44.758 103.529 47.9202 103.348C47.86 103.4 47.8298 103.4 47.8298 103.426ZM49.5164 101.228C49.3357 101.358 49.2152 101.332 49.1248 101.358C42.0174 102.262 34.5786 99.5997 30.1515 94.7394C25.8749 90.0085 24.9112 83.5454 27.2302 77.9872C28.1939 78.2198 29.1576 78.4525 30.0912 78.6593C28.4047 83.6747 28.6758 89.3622 32.7114 93.421C32.7716 93.5502 32.8619 93.6278 32.9824 93.6795C33.1932 93.8863 33.404 94.0673 33.645 94.2741C38.042 97.8934 44.6375 100.298 50.7813 99.4445C50.3596 100.065 49.938 100.66 49.5164 101.228ZM51.5944 98.2812C48.914 98.8241 46.1132 98.669 43.4328 97.9968C49.3959 93.9122 54.1543 88.6641 57.3165 82.6923C57.5876 82.5889 57.8586 82.4855 58.1297 82.382C57.6478 88.0178 54.7265 93.6019 51.5944 98.2812ZM57.6779 80.3656C53.04 83.2093 42.6799 80.1846 35.8134 78.194C35.723 78.1681 35.6628 78.1423 35.5724 78.1164C42.1679 77.7803 48.7634 77.5218 55.3891 77.2633C56.5937 77.8837 57.8586 78.4525 59.1235 78.9695C58.7621 79.5383 58.2803 80.0036 57.6779 80.3656ZM62.1653 91.9732C60.4788 96.8593 59.3343 97.4022 59.1837 97.4539C59.003 97.2729 58.0694 96.0062 59.3343 88.7676C60.0872 84.3985 61.2919 80.0036 61.5328 79.1764C61.5328 79.1505 61.5328 79.1247 61.5328 79.1247C61.9545 78.2198 62.2255 77.1599 62.2857 75.9965C62.5267 76.2551 62.7977 76.4619 63.0989 76.617C63.5506 76.8497 64.0927 76.9789 64.6348 76.9789C65.0866 76.9789 65.5684 76.9014 66.0503 76.7462C65.5684 77.9096 65.3275 79.0213 65.3576 80.0553C65.207 80.5465 65.0263 81.348 64.7854 82.4079C64.1831 84.8639 63.2796 88.7159 62.1653 91.9732ZM67.0441 83.9332C67.2248 84.14 67.4357 84.321 67.6465 84.5019C67.8272 91.0684 69.8149 97.4539 73.3987 103.245C70.628 102.96 67.9778 102.159 65.7491 100.763C64.9962 95.4116 64.8758 89.2846 67.0441 83.9332ZM66.3213 104.15C66.2009 103.477 66.0804 102.805 65.96 102.107C71.411 105.08 79.0606 105.003 84.843 102.857C84.9333 102.831 85.0237 102.779 85.114 102.754C85.1743 102.728 85.2345 102.702 85.2947 102.676C90.9867 100.375 93.7876 95.1014 94.5405 89.9568C95.5042 90.0602 96.4679 90.1894 97.4618 90.2928C97.1004 96.0062 93.4262 101.461 87.6739 104.434C81.1989 107.769 72.8265 107.562 66.4418 104.201C66.3816 104.176 66.3515 104.15 66.3213 104.15ZM66.8634 106.787C66.8634 106.761 66.8634 106.761 66.8634 106.735C69.6944 107.95 72.7964 108.674 75.9285 108.829C79.0606 115.395 82.3132 121.91 85.4453 128.451C85.3851 128.477 85.3248 128.528 85.2646 128.554C84.1804 129.433 82.7951 129.795 81.1387 129.692C78.7896 129.511 76.5308 128.373 75.8984 127.624C70.7485 121.833 68.5199 114.18 66.8634 106.787ZM77.6753 130.881C78.6691 131.243 79.8135 131.501 80.9278 131.579C82.7047 131.708 84.331 131.398 85.7164 130.648C87.0415 132.432 90.2941 136.232 94.5405 137.525C93.6069 138.042 92.6733 138.533 91.7397 139.024C91.6794 138.973 91.5891 138.921 91.4987 138.895C90.0531 138.223 88.0654 137.939 86.4994 137.499C84.7526 137.034 83.0059 136.568 81.2591 136.129C78.1872 135.353 75.1154 134.655 71.9832 134.087C73.7902 132.897 75.6876 131.837 77.6753 130.881ZM70.7786 134.914C77.0729 136.051 83.2167 137.68 89.3605 139.36C89.7821 139.464 90.2037 139.541 90.535 139.671C88.0052 140.989 85.4152 142.256 82.8252 143.471C77.5548 141.454 72.2844 139.541 66.7129 138.223C67.9476 137.034 69.333 135.948 70.7786 134.914ZM63.5808 141.403C64.2734 140.601 65.0263 139.826 65.7793 139.076C71.2002 140.317 76.3501 142.127 81.4699 144.091C79.2714 145.1 77.0729 146.082 74.8443 147.013C70.2666 146.108 65.6889 145.255 61.051 144.686C61.834 143.548 62.6773 142.437 63.5808 141.403ZM60.4486 145.617C64.7252 146.134 68.9716 146.883 73.1879 147.711C71.14 148.564 69.0619 149.417 66.9839 150.244C64.0024 150.012 60.9907 149.882 57.9791 149.908C58.732 148.435 59.5451 146.987 60.4486 145.617ZM57.437 150.891C59.8764 150.865 62.3159 150.942 64.7553 151.072C61.7738 152.235 58.7621 153.347 55.7505 154.432C56.2926 153.243 56.8648 152.08 57.437 150.891ZM56.1119 156.5C59.7861 155.182 63.4302 153.838 67.0441 152.416C66.3515 154.355 65.5383 156.242 64.6951 158.155C61.8039 157.871 58.9428 157.328 56.1119 156.5ZM72.5856 155.699C72.4952 156.216 72.4049 156.733 72.3145 157.276C72.2844 157.535 72.2844 157.948 72.2242 158.284C70.1461 158.414 68.038 158.414 65.96 158.258C66.8936 156.139 67.7971 154.045 68.5199 151.873C70.2666 151.175 72.0435 150.477 73.7601 149.753C73.5192 150.865 73.3084 152.002 73.0674 153.114C72.8867 153.967 72.7362 154.82 72.5856 155.699ZM73.3987 158.181C73.459 157.767 73.459 157.328 73.5192 157.018C73.6999 155.983 73.9107 154.924 74.0914 153.889C74.3926 152.312 74.7239 150.735 75.0551 149.158C77.344 148.202 79.6328 147.194 81.8614 146.16C81.2892 149.779 80.8676 153.398 80.5363 157.043C78.1872 157.612 75.808 157.974 73.3987 158.181ZM88.8786 154.691C86.8006 155.415 84.6322 156.009 82.4939 156.578C82.253 156.63 82.012 156.707 81.8012 156.759C82.1325 153.01 82.5842 149.288 83.1866 145.591C85.6862 144.427 88.1558 143.238 90.5952 141.997C90.5651 142.127 90.5049 142.256 90.5049 142.385C90.1736 143.833 89.9026 145.281 89.6616 146.728C89.2099 149.365 88.9689 152.028 88.8786 154.691ZM93.3659 152.855C92.3119 153.372 91.1976 153.838 90.0832 154.251C90.2037 151.201 90.535 148.176 91.1072 145.177C91.3481 143.859 91.6493 142.566 91.9505 141.274C93.8478 140.291 95.7451 139.283 97.6124 138.223C97.3714 139.05 97.4015 139.8 97.6726 140.524C97.1004 144.091 96.5282 147.633 95.956 151.201C95.956 151.252 95.956 151.304 95.956 151.33C95.1428 151.899 94.2694 152.416 93.3659 152.855ZM96.0463 164.153C98.6664 163.662 101.287 163.196 103.907 162.705C102.883 164.282 101.919 165.885 100.955 167.488C100.022 167.85 98.6363 168.082 98.2448 168.212C97.4618 168.444 96.7089 168.651 95.9258 168.884C95.8957 167.281 95.9258 165.704 96.0463 164.153ZM95.956 169.918C97.4016 169.504 98.817 169.091 100.263 168.677C98.9074 171.004 97.6124 173.356 96.3174 175.709C96.1367 173.796 96.0162 171.857 95.956 169.918ZM97.4618 178.397C99.1182 175.347 100.775 172.296 102.521 169.297C102.642 171.469 102.853 173.641 103.184 175.812C101.407 176.846 99.4796 177.699 97.4618 178.397ZM104.268 175.166C103.907 172.581 103.696 170.021 103.666 167.41C104.449 166.092 105.262 164.799 106.075 163.506C107.009 166.221 107.972 168.91 108.906 171.624C107.521 172.943 105.955 174.132 104.268 175.166ZM109.84 170.771C108.846 167.953 107.882 165.135 106.888 162.317C107.792 160.947 108.755 159.577 109.719 158.233C110.954 161.18 112.008 164.179 112.851 167.229C111.978 168.444 110.954 169.633 109.84 170.771ZM113.725 165.911C113.092 163.739 112.339 161.593 111.496 159.473C112.821 160.43 114.357 160.999 116.014 161.283C115.411 162.886 114.628 164.437 113.725 165.911ZM112.309 157.535C110.773 156.113 109.99 153.941 109.96 150.942C109.81 139.567 118.965 130.855 128.422 127.055C128.482 127.184 128.512 127.339 128.572 127.468C129.144 128.968 130.138 130.028 131.734 130.028C127.036 133.88 122.519 138.016 119.597 143.031C116.616 148.124 115.441 154.122 117.58 159.551C115.532 159.396 113.695 158.801 112.309 157.535ZM118.814 159.603C116.375 153.915 117.941 147.53 121.344 142.359C124.627 137.37 129.385 133.311 134.204 129.433C136.011 128.761 137.758 127.882 139.384 126.926C139.806 127.882 140.378 128.787 141.07 129.614C134.927 132.561 129.355 136.465 125.47 141.532C121.434 146.806 119.567 153.269 120.892 159.499C120.23 159.551 119.507 159.577 118.814 159.603ZM127.187 158.129C125.591 158.595 123.844 159.034 122.067 159.293C119.266 146.754 129.807 136.181 141.823 130.364C142.185 130.7 142.546 131.036 142.968 131.346C133.963 137.706 126.374 147.866 127.187 158.129ZM129.717 159.629C129.656 159.525 129.656 159.396 129.656 159.293C127.849 149.081 136.041 138.766 144.986 132.587C145.498 132.846 146.07 133.078 146.642 133.259C145.498 144.583 140.799 155.492 133.15 164.799C131.734 163.403 130.56 161.671 129.717 159.629ZM147.937 168.729C142.305 169.659 137.456 168.496 133.963 165.549C141.763 156.139 146.522 145.074 147.756 133.57C148.66 133.776 149.593 133.88 150.527 133.88C150.798 133.88 151.099 133.88 151.37 133.854C153.448 136.232 154.472 139.154 155.195 142.049C155.948 145.177 156.249 148.383 156.129 151.563C155.858 157.354 154.412 164.204 149.443 168.444C148.961 168.522 148.449 168.625 147.937 168.729ZM151.671 167.798C155.797 163.351 157.062 157.018 157.333 151.511C157.604 145.694 156.761 138.637 152.756 133.673C153.237 133.595 153.719 133.492 154.171 133.363C158.448 137.654 159.803 143.445 159.953 148.977C160.104 154.717 159.381 160.792 156.129 165.885C154.683 166.686 153.177 167.307 151.671 167.798ZM158.116 164.722C160.706 159.732 161.309 153.993 161.098 148.59C160.887 143.057 159.472 137.37 155.346 133.027C156.309 132.691 157.243 132.225 158.116 131.682C163.537 135.483 166.338 140.679 167.151 148.409C167.844 155.156 163.778 160.999 158.116 164.722ZM172.121 160.844C170.133 161.283 168.537 161.231 166.79 160.12C166.7 160.068 166.429 159.861 166.218 159.732C168.266 156.759 169.47 153.347 169.41 149.65C172.482 152.468 174.229 156.113 174.409 160.016C173.656 160.352 172.904 160.663 172.121 160.844ZM182.42 151.563C181.577 152.08 181.216 152.829 180.854 153.502L180.764 153.708C179.71 155.725 177.843 157.897 175.584 159.37C175.223 155.079 173.024 151.072 169.35 148.124C168.476 140.033 165.525 134.5 159.803 130.416C160.104 130.157 160.375 129.873 160.646 129.562C172.03 132.665 180.794 141.222 183.023 151.278C182.782 151.33 182.601 151.433 182.42 151.563ZM186.366 150.916C186.155 150.916 185.914 150.916 185.703 150.916C185.191 150.916 184.679 150.916 184.137 150.968C181.848 140.705 172.873 131.941 161.339 128.658C161.429 128.554 161.489 128.451 161.58 128.322C168.507 128.089 175.433 130.183 180.523 134.268C185.703 138.43 188.624 144.376 188.715 150.451C187.932 150.761 187.149 150.916 186.366 150.916ZM193.714 145.074C193.684 145.203 193.654 145.358 193.624 145.487C193.383 146.392 192.871 147.245 192.238 147.995C191.907 148.383 191.516 148.771 191.124 149.107C190.973 149.21 189.859 149.856 189.859 149.96C189.618 143.807 186.576 137.809 181.336 133.595C176.548 129.743 170.133 127.546 163.598 127.339C170.585 126.512 178.053 126.925 184.197 130.079C188.383 132.225 191.756 135.664 193.142 139.722C193.714 141.403 194.106 143.316 193.714 145.074ZM200.189 130.364C199.436 131.863 197.96 133.182 196.153 133.983C195.16 134.423 194.377 135.095 193.834 135.87C192.991 134.526 191.967 133.285 190.793 132.148C194.557 131.165 197.991 129.459 200.822 127.132C200.912 128.244 200.701 129.356 200.189 130.364ZM197.991 122.014C198.171 122.169 198.382 122.35 198.563 122.505C199.587 123.435 200.279 124.625 200.611 125.891C197.629 128.477 193.955 130.338 189.859 131.32C188.624 130.26 187.239 129.33 185.763 128.528C184.619 127.908 183.414 127.365 182.179 126.926C187.299 125.116 191.847 122.376 195.581 118.86C195.822 120.126 196.997 121.16 197.991 122.014ZM197.087 115.706C197.027 115.783 196.936 115.861 196.846 115.938C196.575 116.197 196.274 116.507 196.033 116.843C191.937 121.135 186.667 124.418 180.613 126.383C180.583 126.383 180.553 126.408 180.553 126.408C177.692 125.555 174.65 125.116 171.609 125.012C176.939 123.074 182.33 121.135 187.39 118.756C191.787 116.688 195.913 114.129 199.045 110.768C199.075 112.552 198.412 114.335 197.087 115.706ZM200.34 106.812C200.129 106.373 199.858 105.959 199.557 105.546C197.539 102.883 193.804 101.177 189.98 101.177C189.919 101.177 189.889 101.177 189.829 101.177C189.769 101.177 189.709 101.177 189.648 101.151C191.546 98.0744 194.075 94.9462 197.991 93.757C198.623 94.3516 199.195 94.9721 199.677 95.6701C202.056 99.0568 202.177 103.271 200.34 106.812ZM199.767 91.7923C199.587 91.8698 199.376 91.9991 199.045 91.7923C197.117 90.1119 195.069 89.1295 192.419 88.4056C191.275 88.0954 190.1 87.9144 188.925 87.811C187.902 87.7335 187.239 87.5784 186.727 86.7769C186.366 86.2082 186.215 85.4068 185.944 84.7863C185.914 84.7346 185.914 84.6829 185.884 84.6312C194.527 85.2258 203.381 84.1917 211.874 82.7957C208.923 86.6477 204.526 89.8016 199.767 91.7923ZM212.748 81.6065C203.863 83.1059 194.527 84.2434 185.462 83.5713C184.679 81.8392 183.685 80.1588 182.119 78.8661C181.125 78.0389 179.951 77.3926 178.686 76.9014C184.438 76.8497 190.19 76.7721 195.973 76.6428C202.508 76.5136 209.073 76.2292 215.488 75.1176C215.067 77.4184 214.103 79.6159 212.748 81.6065ZM215.639 74.0835C209.013 75.2727 202.207 75.5312 195.461 75.6605C188.624 75.7897 181.758 75.8931 174.921 75.919C174.921 74.161 174.982 72.3772 175.102 70.6193C176.186 70.4383 177.301 69.9988 178.294 69.7661C189.859 66.9999 201.815 65.5264 213.832 65.3454C215.036 67.4911 215.729 69.8696 215.759 72.3255C215.759 72.8943 215.729 73.4889 215.639 74.0835Z" fill="#CEA34F" fill-opacity="0.66"/>
</svg>
