<svg width="189" height="166" viewBox="0 0 189 166" fill="none" xmlns="http://www.w3.org/2000/svg">
<path d="M169.971 77.9955C170.262 78.5448 170.495 79.033 170.729 79.4602C171.312 80.6198 171.895 81.7793 172.653 82.8168C174.052 84.7698 175.918 85.9904 178.192 86.4176C179.999 86.7838 181.69 86.3565 183.264 85.4411C185.188 84.3426 186.821 82.9389 188.22 81.169C188.453 80.9249 188.628 80.6198 188.803 80.3146C189.153 79.6433 189.036 79.033 188.453 78.5448C188.337 78.4227 188.162 78.3006 188.045 78.2396C186.704 77.3852 185.538 76.3477 184.372 75.2492C183.847 74.7609 183.323 74.2727 182.74 73.7845C181.398 72.5639 179.883 71.8315 178.075 71.7705C178.133 71.5874 178.192 71.4653 178.25 71.3433C178.6 70.5499 178.308 70.0006 177.492 69.8786C177.026 69.8175 176.559 69.7565 176.093 69.7565C175.568 69.6955 175.043 69.6955 174.519 69.5734C174.285 69.5124 173.994 69.5124 173.761 69.3903C173.003 69.1462 173.003 69.1462 173.061 68.2918C173.061 68.1697 173.061 68.1087 173.061 67.9867C173.061 67.0712 172.653 66.644 171.778 66.705C171.195 66.705 170.612 66.8271 170.029 66.8881C168.571 67.0712 167.055 67.2543 165.598 67.1933C165.306 67.1933 165.015 67.0712 164.782 66.9492C164.082 66.5219 163.324 66.1558 162.624 65.7286C162.508 65.6675 162.391 65.6065 162.333 65.4234C162.508 65.4234 162.683 65.4234 162.858 65.4234C164.432 65.4234 165.948 65.7286 167.405 66.0947C167.872 66.2168 168.28 66.3389 168.746 66.3999C169.679 66.583 170.029 66.2168 170.029 65.3014C170.029 65.1183 170.029 64.8742 170.029 64.63C170.554 64.6911 171.02 64.7521 171.428 64.8131C172.536 64.9962 173.644 65.1183 174.752 65.0572C175.043 65.0572 175.335 64.9962 175.626 64.8742C176.151 64.6911 176.384 64.3859 176.268 63.8367C176.209 63.4095 176.093 63.0433 175.976 62.6161C175.976 62.494 175.918 62.3719 175.918 62.1889C176.268 62.1278 176.559 62.0668 176.909 62.0058C177.9 61.8227 178.891 61.5175 179.766 60.9683C180.99 60.1749 181.748 59.0764 182.156 57.6727C182.565 56.208 182.623 54.6212 182.506 53.0955C182.39 51.9969 182.273 50.8984 182.098 49.7999C181.923 48.8234 181.69 48.2741 180.407 48.7624C179.3 49.1896 178.133 49.5557 176.967 49.8609C175.976 50.105 174.927 50.2271 173.935 50.2881C172.478 50.4102 171.37 51.0815 170.554 52.3631C170.554 52.4241 170.495 52.4241 170.379 52.4852C170.262 52.3021 170.204 52.119 170.087 51.9969C169.621 51.2646 169.038 51.2646 168.571 51.9969C168.396 52.3021 168.222 52.6683 168.047 52.9734C167.464 54.133 166.822 55.2315 166.239 56.3911C166.181 56.4521 166.123 56.5131 166.064 56.6352C165.948 56.4521 165.831 56.33 165.714 56.208C165.131 55.4756 164.548 55.5366 164.082 56.33C163.907 56.6352 163.79 56.9403 163.674 57.1844C162.741 59.1374 161.691 61.0293 160.175 62.555C159.418 63.3484 158.601 64.0808 157.785 64.8131C157.668 64.9352 157.493 64.9962 157.319 65.0572C155.628 65.6675 154.462 66.9492 153.704 68.658C153.529 69.1462 153.354 69.6345 153.237 70.0617C153.179 70.1837 153.179 70.3058 153.004 70.4278C152.946 70.0617 152.887 69.6345 152.829 69.2683C151.954 63.8977 151.255 58.5271 151.022 53.1565C150.905 50.7153 151.022 48.3352 151.488 45.955C151.838 44.3682 152.363 42.8425 153.237 41.4388C153.296 41.3778 153.296 41.3168 153.354 41.2557C153.529 40.9506 153.529 40.6454 153.354 40.3403C153.121 40.0352 152.829 39.9131 152.479 39.9741C152.013 40.0351 151.605 40.3403 151.197 40.6454C150.322 41.4388 149.681 42.3543 149.214 43.4528C148.748 44.5513 148.398 45.7719 148.165 46.9315C148.106 47.2977 147.99 47.6028 147.64 47.7859C147.29 48.03 146.94 48.2741 146.649 48.5182C146.124 48.8844 145.949 49.3116 146.299 49.9219C146.649 50.5322 147.057 51.1425 147.465 51.7528C147.582 51.9359 147.698 52.119 147.64 52.3021C147.582 56.7572 148.106 61.2124 148.689 65.6675C149.214 69.3903 149.739 73.1131 150.497 76.7749C150.963 79.033 151.43 81.3521 151.896 83.6102C153.354 90.4455 155.161 97.1588 156.852 103.872C157.26 105.459 157.61 106.985 157.96 108.571C158.018 108.815 158.077 109.06 158.193 109.426C157.96 109.304 157.902 109.243 157.785 109.182C156.852 108.51 155.919 107.778 154.986 107.168C154.462 106.801 153.82 106.557 153.179 106.374C152.129 106.069 151.08 105.825 149.972 105.581C149.856 105.52 149.739 105.52 149.564 105.52C148.923 105.459 148.456 105.764 148.281 106.435C148.165 106.862 148.106 107.29 148.106 107.778C148.106 108.144 147.99 108.327 147.64 108.388C146.649 108.693 145.599 108.998 144.608 109.365C144.491 109.426 144.375 109.426 144.317 109.487C143.733 109.731 143.559 110.28 143.733 110.89C143.85 111.135 143.967 111.379 144.142 111.684C144.258 111.867 144.317 112.05 144.433 112.294C144.142 112.477 143.908 112.66 143.675 112.843C141.46 114.369 140.643 116.505 141.051 119.19C141.226 120.228 141.576 121.265 141.926 122.242C142.392 123.523 142.567 124.866 142.626 126.209C142.684 126.88 142.684 127.612 142.684 128.284C142.742 129.382 143.15 129.871 144.2 129.932C145.774 129.993 147.173 129.565 148.398 128.528C150.963 126.453 152.129 123.707 152.129 120.35C152.129 119.679 152.013 118.946 151.954 118.214C152.129 118.336 152.246 118.397 152.363 118.458C152.654 118.702 152.946 119.007 153.237 119.251C153.82 119.74 154.403 119.557 154.637 118.824C154.753 118.519 154.811 118.214 154.87 117.909C155.045 116.932 155.22 116.017 155.394 115.04C155.453 114.857 155.453 114.674 155.511 114.43C155.686 114.613 155.803 114.735 155.919 114.857C156.269 115.162 156.677 115.101 156.91 114.735C157.085 114.491 157.202 114.186 157.319 113.881C157.552 113.454 157.727 113.026 157.96 112.66C158.077 112.416 158.368 112.294 158.601 112.05C158.776 112.782 158.951 113.393 159.126 114.064C159.184 114.247 159.184 114.491 159.243 114.674C159.476 115.285 159.359 115.773 159.009 116.261C158.834 116.505 158.718 116.81 158.543 117.054C158.193 117.543 158.193 118.092 158.543 118.58C158.951 119.129 159.359 119.679 159.767 120.228C160.001 120.472 160.117 120.777 160.175 121.143C160.584 125.354 160.7 129.626 160.467 133.899C160.467 134.021 160.467 134.082 160.409 134.204C160.292 134.143 160.234 134.143 160.175 134.082C159.068 133.044 157.843 132.373 156.502 131.824C156.152 131.701 155.803 131.518 155.394 131.396C154.811 131.152 154.345 131.396 154.228 132.068C154.17 132.373 154.17 132.739 154.112 133.105C154.053 133.105 153.937 133.166 153.879 133.166C152.596 133.166 151.313 133.41 150.03 133.715C148.864 134.021 147.757 134.143 146.59 134.204C145.483 134.265 144.958 134.936 145.016 136.096C145.074 137.011 145.424 137.743 145.949 138.415C146.59 139.269 147.465 139.757 148.456 140.062C150.264 140.612 152.013 140.429 153.645 139.452C154.112 139.208 154.578 138.903 155.045 138.659C155.161 138.598 155.336 138.537 155.511 138.415C155.686 138.903 155.803 139.391 155.978 139.818C156.036 140.062 156.094 140.246 156.211 140.49C156.502 140.978 156.969 141.039 157.319 140.612C157.552 140.307 157.727 139.94 157.96 139.574C158.251 139.025 158.485 138.476 158.718 137.865C159.009 137.255 159.418 136.828 160.001 136.523C160.059 136.523 160.117 136.523 160.234 136.462C160.234 136.767 160.175 137.011 160.175 137.255C159.476 144.884 157.26 152.024 153.995 158.799C153.47 159.836 152.946 160.813 152.538 161.85C152.188 162.643 151.896 163.437 151.663 164.23C151.371 165.146 151.954 166 152.829 166C153.295 166 153.587 165.756 153.879 165.39C154.17 164.902 154.52 164.474 154.753 163.986C156.327 160.996 157.96 158.066 159.184 154.893C159.884 153.001 160.584 151.109 161.225 149.156C161.342 148.79 161.516 148.546 161.866 148.424C162.158 148.301 162.449 148.179 162.683 148.057C163.207 147.752 163.441 147.264 163.441 146.654C163.441 146.41 163.382 146.165 163.324 145.921C163.149 144.945 162.974 144.029 162.858 143.053C162.799 142.809 162.858 142.565 162.858 142.321C163.091 140.368 163.382 138.415 163.615 136.401C163.732 135.485 164.607 134.387 165.481 134.143C165.831 134.021 166.239 134.082 166.589 134.326C166.997 134.57 167.289 134.875 167.522 135.302C167.813 135.79 167.988 136.34 168.28 136.828C168.513 137.255 168.688 137.682 169.038 137.987C169.563 138.537 170.204 138.415 170.554 137.743C170.787 137.194 170.962 136.645 171.195 136.035C171.253 135.851 171.312 135.668 171.428 135.424C171.603 135.668 171.72 135.851 171.778 135.974C172.478 137.194 173.177 138.476 173.877 139.696C174.752 141.161 175.86 142.443 177.259 143.48C179.066 144.762 180.932 145.128 183.031 144.457C184.022 144.151 184.897 143.541 185.713 142.87C186.879 141.832 187.637 140.551 188.104 139.025C188.278 138.537 188.337 137.987 188.337 137.499C188.337 136.767 188.045 136.157 187.346 135.79C186.704 135.485 186.063 135.119 185.422 134.814C183.789 134.021 182.39 132.861 181.224 131.396C180.815 130.908 180.466 130.481 179.999 129.932C180.116 129.81 180.291 129.749 180.407 129.626C180.699 129.382 180.99 129.138 181.224 128.833C181.573 128.345 181.457 127.857 180.99 127.551C180.815 127.429 180.582 127.368 180.407 127.246C178.95 126.697 177.492 126.27 176.034 125.965C175.86 125.904 175.685 125.904 175.451 125.843C175.451 125.66 175.51 125.537 175.51 125.415C175.51 125.11 175.568 124.805 175.568 124.561C175.51 123.951 175.102 123.646 174.519 123.707C174.344 123.707 174.169 123.768 173.994 123.829C172.653 124.439 171.253 124.988 169.971 125.721C168.222 126.697 166.822 128.162 165.714 129.871C165.248 130.603 164.723 131.396 164.257 132.129C164.199 132.251 164.14 132.312 164.024 132.495C164.024 132.251 164.024 132.129 164.024 132.007C164.14 127.368 163.907 122.73 163.324 118.092C162.974 114.918 162.391 111.806 161.633 108.754C160.117 102.529 158.601 96.3044 157.085 90.0793C156.619 88.2485 156.211 86.4176 155.803 84.5867C155.744 84.3426 155.744 84.1595 155.861 83.9154C156.152 83.122 156.386 82.3286 156.677 81.4742C156.969 80.6198 156.794 79.9484 156.094 79.3381C155.628 78.9109 155.22 78.4227 154.753 77.9955C154.287 77.5073 154.053 76.897 154.053 76.2867C154.053 75.0661 154.053 73.7845 154.112 72.5639C154.17 71.3433 154.52 70.1837 155.045 69.0852C155.511 68.1697 156.152 67.4374 157.027 66.8881C157.668 66.4609 158.426 66.3389 159.184 66.3389C160.059 66.3389 160.933 66.583 161.75 66.8881C162.216 67.0712 162.508 67.4984 162.799 67.9256C163.324 68.8411 163.615 69.8786 163.674 70.9771C163.732 72.0756 163.732 73.1742 163.732 74.2117C163.732 74.5168 163.674 74.883 163.732 75.1881C163.79 75.8595 164.315 76.1646 164.898 75.9205C165.248 75.7984 165.54 75.5543 165.948 75.3712C166.006 75.6153 166.123 75.7984 166.181 75.9815C166.414 76.897 166.647 77.8124 166.822 78.7279C166.881 78.972 166.939 79.2771 167.055 79.5212C167.347 80.1315 167.93 80.1926 168.396 79.7043C168.746 79.3382 169.038 78.9109 169.388 78.5448C169.504 78.4837 169.679 78.3006 169.971 77.9955Z" fill="#46653B"/>
<path d="M162.916 1.03726C160.292 1.76961 157.785 2.92918 155.511 4.45491C155.278 4.638 155.045 4.76006 154.811 4.94315C153.47 6.10271 151.896 6.713 150.322 7.3233C148.281 8.11668 146.299 9.09315 144.666 10.6189C144.317 10.924 144.025 11.2292 143.733 11.5343C142.159 13.3042 141.634 15.3792 141.868 17.6983C142.043 19.163 142.509 20.5057 142.976 21.8483C144.083 24.8388 145.191 27.7682 146.124 30.8197C147.232 34.3594 148.806 37.716 151.138 40.5844C152.129 41.7439 153.121 42.9035 154.287 43.8189C157.202 46.1991 160.525 47.4197 164.257 47.2976C166.064 47.2366 167.755 46.6873 169.446 46.077C171.195 45.4667 172.828 44.4903 174.46 43.5748C176.326 42.4763 178.25 41.4998 180.174 40.4013C181.457 39.6689 182.623 38.6925 183.614 37.4719C185.247 35.3969 186.121 33.0167 186.063 30.3314C186.005 29.1719 185.713 28.0123 185.422 26.9138C185.13 25.6321 184.78 24.4116 184.489 23.1299C184.081 21.4821 184.022 19.7733 183.847 18.0645C183.672 16.1726 183.497 14.2196 183.089 12.3277C182.565 10.0086 181.69 7.7505 180.232 5.85859C177.609 2.563 174.285 0.426965 170.146 0.0607881C168.28 -0.1223 166.414 0.121819 164.548 0.610055C164.024 0.671084 163.499 0.854171 162.916 1.03726ZM173.469 16.2336C173.644 17.2711 173.819 18.6748 173.994 20.0785C174.052 20.5667 173.994 21.0549 173.935 21.5432C173.935 21.7263 173.877 21.9093 173.644 21.9093C173.411 21.9093 173.352 21.7263 173.352 21.6042C173.119 20.3226 172.594 19.163 172.07 18.0035C171.428 16.5388 170.729 15.074 169.679 13.9145C168.571 12.7549 167.405 11.7785 165.831 11.2902C164.84 10.9851 163.849 10.6799 162.858 10.4968C161.516 10.1917 160.117 10.0696 158.776 10.3137C156.735 10.6799 154.87 11.3512 153.354 12.816C151.721 14.3417 150.905 16.2946 150.963 18.5527C150.963 20.1395 151.371 21.6042 151.954 23.0689C152.479 24.3505 153.004 25.6932 153.587 26.9748C154.345 28.7446 155.103 30.5145 155.978 32.2233C157.319 34.8476 159.184 36.8616 161.866 38.0822C164.607 39.3027 167.347 39.5469 170.146 38.2042C172.769 36.9226 175.043 35.1528 177.026 33.0167C177.9 32.0402 178.6 30.9417 179.416 29.9042C179.591 29.7211 179.708 29.477 179.883 29.355C180.291 28.9888 180.757 28.9888 181.049 29.477C181.224 29.7211 181.34 30.0873 181.398 30.3925C181.748 31.9182 181.69 33.3829 181.107 34.7866C180.641 35.9461 179.883 36.9226 179.008 37.716C177.725 38.8755 176.268 39.73 174.635 40.3403C172.828 41.0116 170.962 41.6219 169.154 42.2932C168.513 42.5373 167.872 42.7814 167.23 43.0256C166.239 43.4528 165.306 43.88 164.315 44.3072C163.382 44.7344 162.449 44.6123 161.633 43.88C161.283 43.5748 160.933 43.2086 160.642 42.7814C159.709 41.5608 158.601 40.5844 157.435 39.6689C156.794 39.1807 156.094 38.6925 155.453 38.1432C154.112 36.9836 153.062 35.58 152.421 33.8711C152.129 32.9557 151.838 32.1013 151.546 31.1858C151.313 30.5145 150.963 29.9652 150.38 29.5991C150.03 29.416 149.739 29.2329 149.389 29.0498C149.214 28.9277 149.039 28.8667 148.864 28.7447C148.223 28.3785 147.931 27.8292 148.048 27.0358C148.106 26.6697 148.165 26.3035 148.223 25.9373C148.398 24.7167 148.398 23.4961 147.931 22.3366C147.465 21.116 146.999 19.8343 146.59 18.5527C145.366 15.013 146.59 11.7174 149.214 9.94757C151.43 8.42183 153.879 7.44536 156.444 6.77403C159.243 6.04168 162.158 5.91962 165.073 6.04168C167.172 6.10271 168.863 7.01815 170.204 8.78801C171.603 10.9851 172.594 13.3652 173.469 16.2336ZM157.727 24.1674C157.319 22.7638 157.26 21.3601 157.61 19.9564C158.251 17.088 160.409 14.5858 163.907 14.7689C166.239 14.8299 168.163 15.8674 169.388 18.0645C169.971 19.102 170.262 20.3226 170.262 21.5432C170.321 22.6417 169.971 23.6792 169.679 24.6557C169.621 24.8388 169.446 24.9608 169.329 25.0219C169.096 25.0829 168.921 24.8998 168.863 24.7167C168.805 24.5336 168.688 24.3505 168.63 24.1064C168.047 22.4586 167.114 21.177 165.831 20.0785C165.248 19.5902 164.665 19.2851 163.907 19.224C163.557 19.163 163.207 19.2851 162.916 19.4682C161.983 20.0785 161.691 20.8718 162.1 21.9093C162.274 22.4586 162.566 23.0079 162.799 23.4961C163.441 24.6557 164.082 25.8152 165.015 26.7917C165.948 27.7072 166.997 28.2564 168.28 28.3174C169.388 28.3174 170.437 28.0733 171.428 27.5241C172.828 26.7307 173.819 25.5101 174.46 23.9844C175.102 22.3976 175.568 20.7498 175.743 18.9799C175.743 18.7358 175.801 18.4307 175.918 18.1866C175.976 18.0645 176.151 17.9424 176.268 17.9424C176.326 17.9424 176.443 18.0645 176.501 18.1866C176.559 18.3086 176.559 18.4917 176.559 18.6138C176.617 20.0785 176.617 21.5432 176.443 23.0079C176.209 24.8998 175.743 26.7307 174.752 28.3785C173.586 30.2704 172.011 31.7351 169.854 32.2233C169.154 32.4064 168.396 32.4064 167.639 32.3454C162.508 32.1013 158.893 28.5005 157.727 24.1674ZM182.565 20.3226C182.506 20.3226 182.506 20.3226 182.448 20.3836C182.506 20.6888 182.623 20.9329 182.681 21.238C183.206 23.6182 182.623 25.5711 180.932 27.2189C180.874 27.2799 180.874 27.2799 180.815 27.341C180.524 27.5241 180.291 27.402 180.291 27.0358C180.291 26.9138 180.291 26.8527 180.349 26.7307C180.815 24.7167 180.407 22.7638 179.708 20.8718C178.95 18.8579 177.842 17.027 176.559 15.3182C175.218 13.5483 173.935 11.7785 172.944 9.76448C172.886 9.64242 172.828 9.58139 172.769 9.45933C171.37 7.07918 169.388 5.43139 166.764 4.82109C166.589 4.76006 166.356 4.69903 166.181 4.638C165.948 4.51594 165.889 4.27182 166.064 4.02771C166.181 3.90565 166.297 3.78359 166.472 3.72256C166.997 3.53947 167.522 3.35638 168.105 3.29535C168.98 3.17329 169.854 3.29535 170.729 3.47844C172.42 3.78359 174.052 4.21079 175.51 5.2483C176.734 6.10271 177.725 7.14021 178.308 8.54389C178.542 9.15418 178.833 9.82551 179.008 10.4358C179.533 12.5108 180.291 14.4638 181.165 16.3557C181.632 17.6373 182.098 19.041 182.565 20.3226Z" fill="#DE8F6E"/>
<path d="M96.04 136.523C95.2238 137.804 94.4075 138.903 93.7078 140.063C92.4251 142.138 91.0841 144.152 89.8014 146.227C88.9268 147.691 88.2855 149.217 87.9357 150.926C87.8773 151.292 87.819 151.719 87.819 152.146C87.9357 152.879 88.4604 153.123 89.1018 152.757C89.5682 152.452 89.918 152.024 90.1512 151.536C90.4428 150.987 90.676 150.377 90.9092 149.766C92.0753 146.715 93.8245 144.152 95.9817 141.832C98.3139 139.269 100.879 136.95 103.853 135.18C104.261 134.936 104.669 134.753 105.136 134.57C108.809 133.41 112.424 131.946 115.805 129.932C119.77 127.551 123.268 124.561 126.359 121.021C130.79 115.895 134.58 110.28 137.553 104.055C139.769 99.4169 141.401 94.5956 142.567 89.5911C143.442 85.9904 144.491 82.4507 145.716 78.972C146.007 78.2396 146.299 77.5073 146.649 76.836C147.232 75.7374 148.165 75.1882 149.389 75.2492C150.439 75.2492 151.488 75.3713 152.538 75.4323C153.237 75.4933 153.937 75.4933 154.578 75.4933C154.87 75.4933 155.103 75.3713 155.394 75.2492C155.744 75.0661 155.803 74.6389 155.511 74.3338C155.336 74.1507 155.161 74.0286 154.928 73.9066C154.345 73.6014 153.762 73.2963 153.121 72.9911C151.197 72.0146 149.447 70.733 147.99 69.0242C146.649 67.4374 145.308 65.9117 143.967 64.3249C143.209 63.4705 142.451 62.6771 141.693 61.9448C140.76 61.0904 139.71 60.4801 138.486 60.2359C135.862 59.7477 133.53 60.358 131.431 62.1279C130.09 63.2874 129.041 64.7521 128.166 66.3389C127.117 68.2308 126.417 70.2448 125.717 72.2588C125.193 73.7845 124.668 75.3713 124.026 76.897C122.86 79.7044 121.286 82.2676 119.187 84.4647C119.07 84.5867 118.896 84.7088 118.721 84.9529C118.721 84.7698 118.721 84.7088 118.721 84.5867C119.245 81.4742 118.779 78.4227 117.729 75.4933C116.272 71.2823 114.289 67.3764 111.782 63.7146C109.975 61.0293 107.993 58.344 106.068 55.7198C103.27 51.8139 100.355 47.969 97.6143 44.0631C93.7661 38.5705 90.2679 32.7727 87.3526 26.6697C86.5946 25.083 85.8367 23.4352 85.0787 21.7874C84.7872 21.2381 84.4957 20.6278 84.1458 20.1396C83.9709 19.8344 83.6794 19.5293 83.4462 19.2852C82.6882 18.5528 81.7553 18.4918 80.8807 19.041C80.4143 19.3462 79.9479 19.7124 79.598 20.1396C78.6652 21.2991 77.674 22.5197 76.8577 23.8013C74.234 27.7683 72.135 31.9793 70.9689 36.6175C70.3859 39.0587 69.9194 41.4999 69.9194 44.0631C69.9194 44.2462 69.9194 44.4293 69.8611 44.6124C69.7445 44.6124 69.6862 44.5514 69.6279 44.5514C66.8292 43.2697 63.9723 41.9271 61.1737 40.6455C56.3344 38.3874 51.5533 35.8852 47.1222 32.8947C45.0232 31.491 43.0408 29.9043 41.1168 28.2565C40.6503 27.8293 40.1256 27.4631 39.6008 27.0969C39.251 26.8528 38.9012 26.6697 38.493 26.5477C37.8517 26.3035 37.3852 26.5477 37.0354 27.158C36.6856 27.8293 36.569 28.5006 36.6856 29.233C36.8022 30.0874 36.9188 30.8808 37.152 31.6741C37.7351 33.9933 38.3764 36.3124 38.9012 38.6925C39.9507 43.3308 41.0002 47.969 41.6998 52.7293C42.1663 55.7198 42.5744 58.7712 42.9825 61.7617C43.5073 65.6676 44.0903 69.5735 45.1398 73.3573C46.6557 78.4838 48.7547 83.3661 51.3784 87.9433C54.0022 92.7036 57.1506 97.0367 60.6489 101.126C62.1066 102.835 63.6225 104.482 65.255 106.008C65.7798 106.496 66.3045 107.046 66.7709 107.656C67.1208 108.083 67.2957 108.632 67.5289 109.121C67.7038 109.548 67.5872 109.975 67.2957 110.341C66.9459 110.829 66.4211 111.135 65.9547 111.44C64.8469 112.05 63.6225 112.477 62.3981 112.782C59.5994 113.515 56.7425 114.125 53.8855 114.552C51.6117 114.857 49.3378 115.163 47.0639 115.468C46.4225 115.59 45.7812 115.773 45.0815 115.895C44.79 115.956 44.4984 116.078 44.2069 116.261C42.9242 116.932 42.3995 117.97 42.691 119.435C42.9825 120.655 43.2741 121.937 43.5656 123.157C44.1486 125.476 44.4985 127.796 44.3818 130.115C44.2652 132.068 44.0903 134.021 43.9154 135.974C43.8571 136.889 43.6822 137.804 43.6239 138.781C43.5073 140.49 44.7317 141.466 46.1893 141.344C46.714 141.283 47.2388 141.161 47.7635 140.978C49.5127 140.307 51.2035 139.574 52.9527 138.903C56.9757 137.377 61.0571 136.401 65.255 135.851C67.7621 135.546 70.2692 135.485 72.7764 135.668C75.7499 135.913 78.7818 136.218 81.7553 136.462C83.5628 136.645 85.4285 136.706 87.236 136.828C87.3526 136.828 87.4692 136.828 87.7024 136.889C87.5858 137.072 87.4692 137.194 87.4109 137.316C83.9126 141.954 81.2306 147.081 79.3648 152.696C79.0733 153.489 78.9567 154.343 78.7818 155.198C78.7235 155.625 78.7235 156.113 78.8401 156.602C79.015 157.273 79.598 157.395 80.0645 156.907C80.2977 156.663 80.5309 156.357 80.6475 156.052C81.2306 154.893 81.8136 153.733 82.3384 152.513C84.2041 148.363 86.4197 144.457 89.0434 140.795C90.0346 139.452 91.0841 138.232 92.3085 137.133C92.5417 136.889 92.775 136.828 93.1248 136.767C94.1743 136.645 95.0489 136.584 96.04 136.523ZM105.894 100.21C105.894 100.821 105.835 101.553 105.835 102.285C105.719 104.421 105.427 106.557 104.786 108.632C104.086 110.89 103.153 113.087 101.637 114.918C101.287 115.346 100.938 115.773 100.588 116.2C100.413 116.383 100.238 116.627 100.005 116.749C99.8882 116.81 99.6549 116.871 99.5383 116.81C99.4217 116.749 99.4217 116.505 99.4217 116.383C99.4217 116.261 99.48 116.139 99.48 116.078C100.18 113.454 100.588 110.829 100.704 108.083C100.821 105.947 100.646 103.75 100.413 101.614C99.9465 97.3419 98.7804 93.3139 96.8563 89.5301C95.2238 86.2955 93.1831 83.4272 90.8509 80.7419C87.8773 77.3242 84.6123 74.3338 81.1723 71.4654C77.1492 68.1698 72.9513 65.0573 68.7533 61.9448C64.5554 58.8323 60.4157 55.6587 56.5676 51.997C53.011 48.6403 49.9208 44.8565 47.2971 40.7065C46.6557 39.669 46.131 38.5094 45.6063 37.4109C45.4313 37.1058 45.373 36.7396 45.3147 36.4344C45.2564 35.9462 45.5479 35.7021 46.0144 35.9462C46.131 36.0072 46.2476 36.1293 46.3642 36.1903C46.7723 36.4955 47.1805 36.8006 47.5886 37.1058C50.154 39.0587 52.7778 40.8896 55.5181 42.4764C60.1242 45.1617 64.672 47.969 69.2198 50.7153C73.5343 53.2786 77.7323 56.0859 81.6387 59.3205C85.3119 62.372 88.9268 65.4234 92.1919 68.9021C96.0983 72.9911 99.3634 77.5073 101.754 82.6948C104.494 88.1264 105.835 93.9242 105.894 100.21ZM127.058 95.6941H127.117C127.233 95.572 127.35 95.3889 127.466 95.2669C128.224 94.2294 129.157 93.3139 130.148 92.5816C130.906 91.9713 131.723 91.483 132.656 91.2389C134.463 90.7507 135.979 91.7882 136.329 93.6801C136.504 94.5956 136.445 95.511 136.27 96.4875C135.687 99.2338 134.696 101.736 133.297 104.116C131.723 106.801 129.857 109.304 127.758 111.562C124.726 114.857 121.403 117.787 117.555 120.106C115.164 121.571 112.715 122.852 110.266 124.073C108.226 125.11 106.127 125.965 103.911 126.575C102.803 126.88 101.754 127.124 100.588 127.063C100.238 127.063 99.8299 127.002 99.48 126.88C98.897 126.697 98.7804 126.209 99.1885 125.721C99.3634 125.538 99.5966 125.354 99.7716 125.171C100.996 124.195 102.162 123.218 103.386 122.242C107.934 118.336 111.491 113.698 113.823 108.022C115.106 104.849 116.272 101.675 117.38 98.4404C118.254 95.8772 119.129 93.375 120.295 90.9338C120.82 89.8963 121.344 88.8588 122.044 87.8823C122.569 87.272 123.094 86.7227 123.793 86.2955C124.901 85.6852 125.892 85.9294 126.592 87.0279C126.883 87.5161 127.117 88.0044 127.233 88.5536C127.7 90.0794 127.641 91.6051 127.408 93.1919C127.35 94.0463 127.175 94.8397 127.058 95.6941ZM114.348 87.0279C114.348 89.8963 114.231 91.6661 113.823 94.5956C113.123 99.6 111.141 103.994 108.401 108.144C108.167 108.449 107.934 108.754 107.643 109.06C107.351 109.365 107.118 109.426 106.885 109.304C106.593 109.06 106.768 108.815 106.826 108.51C107.293 107.107 107.759 105.764 108.167 104.36C108.925 101.736 109.508 99.0507 109.683 96.2433C109.858 92.2154 109.45 88.3095 108.401 84.4036C107.001 79.2161 104.844 74.2727 102.104 69.6955C99.5383 65.4234 96.8563 61.2124 94.116 56.9404C91.259 52.4242 88.577 47.847 86.5363 42.8425C84.8455 38.7536 83.3879 34.6646 82.7465 30.2705C82.5716 28.9888 82.3967 27.7072 82.5133 26.4256C82.5133 26.1205 82.5716 25.7543 82.6882 25.4491C82.8631 25.0219 83.3296 25.0219 83.5628 25.4491C83.6794 25.6322 83.6794 25.8153 83.7377 25.9984C83.9709 26.7918 84.2041 27.6462 84.4374 28.4396C85.3119 31.308 86.6529 33.9322 88.2272 36.4955C90.2095 39.7911 92.4251 42.8425 94.7573 45.894C98.2556 50.4712 101.637 55.1705 104.727 60.0529C107.001 63.6536 109.159 67.3764 110.85 71.3433C113.065 76.4698 114.231 81.7794 114.348 87.0279ZM47.7635 51.6308C47.7635 51.2646 47.7635 50.8374 47.7635 50.4712C47.7635 50.1661 47.7635 49.7999 47.8218 49.4948C47.9384 49.0676 48.0551 48.5793 48.23 48.1521C48.4049 47.7859 48.813 47.7859 49.0462 48.0911C49.2212 48.2742 49.3378 48.5183 49.3961 48.7624C49.571 49.3727 49.7459 50.044 49.9208 50.6543C50.329 52.1801 50.6205 53.7668 51.2035 55.2926C52.6028 59.0764 54.2354 62.7382 55.8096 66.3999C60.3574 76.958 65.7798 86.9058 72.0767 96.4264C74.817 100.576 77.8489 104.36 81.4638 107.717C81.9885 108.205 82.5133 108.693 83.038 109.243C83.2129 109.365 83.3296 109.548 83.4462 109.731C83.6794 110.158 83.5628 110.585 83.0963 110.707C82.8631 110.768 82.6299 110.829 82.455 110.768C81.9885 110.768 81.4638 110.707 80.9974 110.646C78.1987 110.158 75.6333 109.06 73.2428 107.534C70.7357 105.947 68.5784 104.055 66.596 101.858C63.6225 98.5625 60.9404 95.0228 58.5499 91.2389C56.8591 88.5536 55.6347 85.6242 54.5269 82.6948C53.6523 80.1926 52.8361 77.6293 52.0198 75.0051C51.5534 73.4793 51.0869 71.8926 50.7371 70.3058C49.9791 66.8271 49.3378 63.3484 48.5798 59.8087C48.055 57.0624 47.8218 54.3161 47.7635 51.6308ZM94.5241 106.679C94.5241 107.107 94.5241 107.473 94.5241 107.9C94.5241 108.022 94.5241 108.144 94.5241 108.327C94.5241 108.51 94.4075 108.754 94.2326 108.754C94.116 108.754 93.8828 108.693 93.8244 108.571C93.6495 108.388 93.5329 108.144 93.4163 107.961C92.2502 105.825 90.9675 103.75 89.6265 101.797C86.7696 97.647 84.0292 93.497 81.4638 89.1639C78.1987 83.7323 74.4089 78.7889 70.1526 74.1507C66.5377 70.2448 62.9811 66.3389 59.4245 62.372C58.4333 61.2734 57.6171 60.1139 56.6842 58.9543C56.451 58.6492 56.2178 58.222 56.0428 57.8558C55.9845 57.7337 56.0428 57.4896 56.1011 57.3676C56.2178 57.1845 56.451 57.2455 56.5676 57.4286C56.6842 57.5507 56.8008 57.6727 56.8591 57.8558C58.0252 59.3205 59.1913 60.8462 60.5323 62.1889C63.9723 65.6065 67.5872 68.7801 71.2604 71.8315C74.6421 74.5779 78.0238 77.3852 81.1723 80.4367C83.7377 82.8779 86.1282 85.4411 88.2272 88.3705C92.1336 93.7411 94.2326 99.8441 94.5241 106.679ZM75.2252 39.608C75.2835 38.9977 75.4001 37.8991 75.575 36.7396C75.9831 34.2984 76.7411 31.9183 77.8489 29.7212C78.0238 29.355 78.257 29.0499 78.4902 28.8058C78.8984 28.3785 79.3648 28.5006 79.598 29.0499C79.7146 29.355 79.8313 29.7212 79.8313 30.0263C80.0645 31.7962 80.2977 33.505 80.5892 35.2749C80.9391 37.9602 81.8136 40.5234 82.7465 43.0867C83.4462 45.1617 84.379 47.1756 85.5451 49.0065C87.4109 51.9359 89.2184 54.9264 91.0841 57.9168C92.1336 59.6256 93.1248 61.3955 94.116 63.1654C94.4075 63.6536 94.5824 64.2639 94.8156 64.8132C94.9323 65.0573 94.9905 65.4235 94.699 65.6065C94.4075 65.7896 94.2326 65.5455 93.9994 65.3624C89.9763 62.2499 86.0699 58.9543 82.5133 55.2926C80.4726 53.2176 78.6652 50.8984 77.3241 48.2742C75.9831 45.772 75.2835 43.0256 75.2252 39.608ZM63.4476 122.364C60.5323 122.12 57.6171 121.937 54.6435 121.693C51.7283 121.449 48.7547 121.143 45.7812 121.143C45.6062 121.143 45.4896 121.143 45.3147 121.143C44.9066 121.082 44.7317 120.716 45.0232 120.35C45.1981 120.167 45.373 119.984 45.6063 119.801C46.7724 119.129 47.9384 118.519 49.2212 118.214C51.3201 117.726 53.4774 117.421 55.693 117.238C58.2584 117.054 60.8821 116.932 63.5059 116.81C66.596 116.688 69.6279 116.566 72.6598 116.2C74.4672 115.956 76.2163 115.773 78.0238 115.407C81.4638 114.735 84.8455 113.698 88.1106 112.416C88.2855 112.355 88.4021 112.294 88.577 112.233C88.9851 112.172 89.2184 112.416 89.0434 112.843C88.9851 113.087 88.8685 113.271 88.6936 113.454C88.1106 114.308 87.3526 114.979 86.5946 115.59C84.3207 117.36 81.8136 118.702 79.1316 119.679C74.1174 121.693 68.8116 122.425 63.4476 122.364ZM94.4075 130.42C94.699 130.359 94.8739 130.481 94.9322 130.664C94.9906 130.969 94.7573 131.091 94.5241 131.152C92.9499 131.579 91.4339 131.824 89.8014 132.007C87.7024 132.19 85.5452 132.068 83.4462 131.824C80.4726 131.518 77.4991 131.335 74.5255 131.213C70.2692 131.091 66.013 131.152 61.815 131.824C58.7249 132.312 55.8096 133.105 53.011 134.57C52.3696 134.936 51.7283 135.241 51.0286 135.546C50.7371 135.668 50.3872 135.851 50.0957 135.546C49.8042 135.241 49.9208 134.814 50.0957 134.509C50.4456 133.899 50.7954 133.227 51.2618 132.678C52.7194 130.847 54.5269 129.504 56.6842 128.589C59.5411 127.368 62.573 126.819 65.6632 126.697C69.2198 126.575 72.7764 127.002 76.2746 127.674C79.9479 128.406 83.6794 129.26 87.3526 129.993C88.7519 130.298 90.2095 130.42 91.6672 130.481C92.5417 130.603 93.4746 130.481 94.4075 130.42ZM130.323 71.4043C130.323 71.0992 130.382 70.5499 130.44 70.0617C130.731 68.0477 131.431 66.2779 132.772 64.8132C134.405 63.1043 136.329 62.5551 138.544 63.1043C139.594 63.3484 140.585 63.8977 141.226 64.8132C141.401 65.0573 141.576 65.3624 141.635 65.6065C141.751 65.9727 141.46 66.2168 141.11 66.0948C140.993 66.0337 140.877 65.9117 140.76 65.8507C140.468 65.6676 140.177 65.4234 139.885 65.2404C139.011 64.6911 138.02 64.7521 137.262 65.4845C137.028 65.7286 136.795 65.9727 136.62 66.2779C136.154 67.0102 135.862 67.8646 135.687 68.719C135.338 70.611 135.454 72.5639 135.746 74.4558C136.096 76.7139 136.737 78.972 137.437 81.1691C138.078 83.3051 138.778 85.3801 139.419 87.5161C139.827 88.8588 140.06 90.2625 140.06 91.7272C140.002 93.3139 139.769 94.8397 139.419 96.3654C139.419 96.4875 139.361 96.6095 139.302 96.6706C139.244 96.7316 139.069 96.8536 139.011 96.8536C138.894 96.7926 138.778 96.6706 138.719 96.5485C138.661 96.4875 138.719 96.4264 138.719 96.3044C138.952 93.7411 138.486 91.3 137.378 88.9808C136.62 87.333 135.804 85.7463 134.988 84.1595C133.763 81.7794 132.481 79.3992 131.489 76.836C130.731 75.1882 130.323 73.4183 130.323 71.4043ZM66.7709 76.897C66.8293 76.7749 66.8876 76.5918 67.0042 76.5308C67.1208 76.4698 67.354 76.4698 67.4706 76.5308C67.6455 76.6529 67.8204 76.836 67.937 77.0191C69.7445 79.4602 71.6103 81.9014 73.4177 84.3426C76.2747 88.3095 78.6069 92.5816 81.0557 96.7926C82.3967 99.1117 83.7377 101.37 85.0787 103.689C85.137 103.75 85.1953 103.811 85.1953 103.872C85.1953 103.994 85.2536 104.238 85.1953 104.299C85.0787 104.421 84.9038 104.421 84.7289 104.421C84.554 104.36 84.379 104.238 84.2041 104.116C82.1635 102.468 80.2977 100.637 78.6069 98.6235C75.9831 95.572 73.7675 92.2154 71.7852 88.6147C69.8028 85.0749 68.3452 81.2301 66.9459 77.4463C66.8875 77.3242 66.8876 77.1411 66.7709 76.897ZM125.717 77.7514C125.717 76.4088 126.359 74.6999 127.35 73.1132C127.408 72.9911 127.525 72.8691 127.583 72.808C127.933 72.4418 128.283 72.5639 128.399 73.0521C128.458 73.2963 128.458 73.5404 128.458 73.7845C128.516 74.3948 128.516 75.0661 128.633 75.6764C129.099 78.1176 129.974 80.3146 131.373 82.3286C131.606 82.6338 131.781 82.9389 131.956 83.2441C132.714 84.5257 133.122 85.8683 133.122 87.3941C133.122 88.1264 132.947 88.8588 132.422 89.4691C132.073 89.8963 131.723 89.8352 131.431 89.347C131.431 89.286 131.373 89.225 131.373 89.1639C131.14 88.4926 130.731 87.8213 130.265 87.272C129.565 86.3566 128.866 85.5022 128.224 84.5867C127.641 83.7323 127.058 82.9389 126.592 82.0235C126.009 80.9249 125.717 79.6433 125.717 77.7514ZM90.9092 126.27C87.5858 126.27 84.3207 125.782 81.0557 125.171C79.773 124.927 78.5485 124.683 77.2658 124.683C76.5662 124.683 75.8665 124.622 75.2252 124.561C75.1086 124.561 74.8753 124.439 74.817 124.317C74.7587 124.195 74.9336 124.012 74.9919 123.89C75.2252 123.707 75.4584 123.585 75.6916 123.462C77.6157 122.486 79.7147 122.12 81.8136 121.998C83.3296 121.937 84.8455 122.242 86.3031 122.73C87.8773 123.279 89.5099 123.89 91.0841 124.439C91.7255 124.683 92.4251 124.927 93.1248 124.927C93.7661 124.927 94.4075 124.927 94.9905 124.866C95.1655 124.866 95.3987 124.866 95.457 125.11C95.5153 125.354 95.3404 125.476 95.1655 125.538C94.8156 125.721 94.4075 125.904 93.9994 126.026C93.0665 126.392 91.9587 126.27 90.9092 126.27ZM84.4957 120.289C84.1458 120.289 83.8543 120.289 83.5045 120.289C83.3879 120.289 83.1546 120.167 83.0963 120.045C83.038 119.801 83.2713 119.74 83.4462 119.679C83.5045 119.679 83.5045 119.679 83.5628 119.618C84.2624 119.374 84.9621 119.129 85.6035 118.763C87.5275 117.665 89.4516 116.505 91.3756 115.346C93.358 114.064 95.5153 113.149 97.6726 112.355C97.8475 112.294 98.0224 112.172 98.139 112.416C98.2556 112.66 98.0224 112.782 97.9058 112.904C97.2061 113.637 96.4482 114.369 95.7485 115.04C95.3404 115.407 94.9906 115.834 94.5824 116.2C91.7255 118.946 88.3438 120.228 84.4957 120.289ZM138.078 70.2448C138.078 69.5124 138.253 68.658 138.486 67.8646C138.544 67.6815 138.661 67.4985 138.778 67.3154C138.894 67.1323 139.069 67.0102 139.302 67.0712C139.536 67.1933 139.536 67.3764 139.477 67.6205C139.419 67.9257 139.361 68.1698 139.361 68.4749C139.244 70.4279 139.536 72.3198 140.177 74.2117C140.643 75.5544 141.168 76.836 141.693 78.1786C142.334 79.9485 142.684 81.7794 142.392 83.7323C142.276 84.4036 142.218 85.0139 141.868 85.6242C141.751 85.8073 141.635 85.9904 141.401 85.9904C141.11 85.9294 141.168 85.6852 141.168 85.5022C141.168 85.136 141.226 84.7088 141.226 84.3426C141.285 82.3897 140.877 80.4977 140.352 78.6058C139.827 76.897 139.244 75.2492 138.719 73.5404C138.311 72.4418 138.078 71.4654 138.078 70.2448ZM144.725 69.5735C144.725 70.1838 144.55 70.4889 144.258 70.8551C143.675 71.5874 142.742 71.5264 142.218 70.794C141.868 70.3058 141.693 69.8176 141.809 69.2073C141.984 68.2308 142.976 67.6205 143.792 68.0477C144.375 68.4139 144.666 69.0242 144.725 69.5735Z" fill="#CEA34F" fill-opacity="0.66"/>
<path d="M59.8326 149.827C59.716 149.888 59.6577 150.01 59.5411 150.071C59.2495 150.315 59.1329 150.621 59.2495 150.987C59.3661 151.353 59.6577 151.597 60.0075 151.597C60.4739 151.597 60.9404 151.658 61.3485 151.536C62.7478 151.048 64.0888 150.559 65.4299 150.01C67.4705 149.095 69.5112 148.118 71.377 146.898C71.8434 146.593 72.3098 146.287 72.718 145.921C73.0095 145.677 73.2427 145.372 73.4176 145.006C73.7092 144.334 73.2427 143.724 72.5431 143.785C72.1349 143.846 71.7268 144.029 71.3187 144.212C69.6861 145.067 68.0536 145.921 66.421 146.715C64.6136 147.569 62.7478 148.362 60.8821 149.217C60.4739 149.4 60.1241 149.583 59.8326 149.827C59.8326 149.766 59.8326 149.766 59.8326 149.827Z" fill="#DB8E98"/>
<path d="M27.6483 151.841C27.1235 152.268 27.1235 152.94 27.59 153.367C28.0564 153.733 28.5228 154.038 29.1059 154.221C30.272 154.526 31.4964 154.832 32.6625 155.076C34.5283 155.381 36.4523 155.503 38.3764 155.381C38.9011 155.32 39.4259 155.259 39.9506 155.137C40.1838 155.076 40.4171 154.954 40.6503 154.77C41.0001 154.465 41.0001 154.038 40.6503 153.794C40.4171 153.611 40.1838 153.489 39.8923 153.428C39.4842 153.306 39.0761 153.245 38.6096 153.245C37.735 153.123 36.8605 153.062 35.9859 152.94C33.8286 152.757 31.7296 152.451 29.6889 151.902C29.1642 151.78 28.6394 151.78 28.173 151.78C27.9398 151.719 27.7649 151.78 27.6483 151.841Z" fill="#DB8E98"/>
<path d="M12.1391 147.752C12.3723 147.935 12.7222 148.24 13.1303 148.485C14.0049 148.973 14.8795 149.4 15.754 149.766C17.6781 150.682 19.6605 151.475 21.7011 152.085C22.1676 152.207 22.6923 152.329 23.1588 152.39C23.4503 152.451 23.8001 152.39 24.0916 152.329C24.733 152.146 24.9079 151.475 24.4998 150.987C24.3249 150.743 24.0333 150.621 23.8001 150.437C23.5086 150.315 23.2171 150.193 22.9255 150.132C20.3018 149.278 17.7364 148.179 15.2293 146.898C14.5296 146.532 13.7717 146.287 13.0137 146.043C12.5473 145.86 12.1974 146.043 11.9642 146.471C11.731 146.776 11.731 147.264 12.1391 147.752Z" fill="#DB8E98"/>
<path d="M43.8571 153.001C43.274 153.428 43.3323 154.099 43.9153 154.465C44.2652 154.649 44.6733 154.771 45.0814 154.832C48.5214 155.015 51.9031 154.465 55.2265 153.489C55.693 153.367 56.1011 153.123 56.5092 152.879C56.8007 152.696 56.9174 152.451 56.8591 152.085C56.8007 151.719 56.5092 151.536 56.2177 151.536C55.8096 151.475 55.3431 151.414 54.935 151.475C53.7689 151.597 52.6028 151.78 51.495 152.024C49.396 152.451 47.297 152.574 45.1981 152.635C44.5567 152.635 44.2069 152.757 43.8571 153.001Z" fill="#DB8E98"/>
<path d="M1.06114 138.659C2.98521 140.917 4.96758 143.053 7.47469 144.64C7.70791 144.762 7.94114 144.945 8.23267 145.067C8.46588 145.189 8.7574 145.25 8.99062 145.25C9.69028 145.25 10.0401 144.579 9.63198 143.968C9.45707 143.724 9.28215 143.541 9.04893 143.358C8.05775 142.504 7.06656 141.71 6.13368 140.856C4.96758 139.696 3.85979 138.476 2.69369 137.255C2.28556 136.828 1.87742 136.462 1.41098 136.034C1.00284 135.729 0.594711 135.729 0.303187 135.973C-0.0466433 136.279 -0.104955 136.706 0.18657 137.194C0.478095 137.682 0.76962 138.171 1.06114 138.659Z" fill="#DB8E98"/>
</svg>
