<svg width="189" height="166" viewBox="0 0 189 166" fill="none" xmlns="http://www.w3.org/2000/svg">
<path d="M19.0293 77.9955C18.7378 78.5448 18.5045 79.033 18.2713 79.4602C17.6883 80.6198 17.1052 81.7793 16.3473 82.8168C14.9479 84.7698 13.0822 85.9904 10.8083 86.4176C9.00083 86.7838 7.30998 86.3565 5.73575 85.4411C3.81169 84.3426 2.17915 82.9389 0.779828 81.169C0.546608 80.9249 0.371693 80.6198 0.196778 80.3146C-0.153052 79.6433 -0.0364382 79.033 0.546611 78.5448C0.663221 78.4227 0.838134 78.3006 0.954744 78.2396C2.29576 77.3852 3.46186 76.3477 4.62796 75.2492C5.1527 74.7609 5.67744 74.2727 6.26049 73.7845C7.60151 72.5639 9.11744 71.8315 10.9249 71.7705C10.8666 71.5874 10.8083 71.4653 10.75 71.3433C10.4001 70.5499 10.6917 70.0006 11.5079 69.8786C11.9744 69.8175 12.4408 69.7565 12.9073 69.7565C13.432 69.6955 13.9567 69.6955 14.4815 69.5734C14.7147 69.5124 15.0062 69.5124 15.2395 69.3903C15.9974 69.1462 15.9974 69.1462 15.9391 68.2918C15.9391 68.1697 15.9391 68.1087 15.9391 67.9867C15.9391 67.0712 16.3473 66.644 17.2218 66.705C17.8049 66.705 18.3879 66.8271 18.971 66.8881C20.4286 67.0712 21.9445 67.2543 23.4022 67.1933C23.6937 67.1933 23.9852 67.0712 24.2184 66.9492C24.9181 66.5219 25.676 66.1558 26.3757 65.7286C26.4923 65.6675 26.6089 65.6065 26.6672 65.4234C26.4923 65.4234 26.3174 65.4234 26.1425 65.4234C24.5683 65.4234 23.0523 65.7286 21.5947 66.0947C21.1283 66.2168 20.7201 66.3389 20.2537 66.3999C19.3208 66.583 18.971 66.2168 18.971 65.3014C18.971 65.1183 18.971 64.8742 18.971 64.63C18.4462 64.6911 17.9798 64.7521 17.5717 64.8131C16.4639 64.9962 15.3561 65.1183 14.2483 65.0572C13.9568 65.0572 13.6652 64.9962 13.3737 64.8742C12.849 64.6911 12.6157 64.3859 12.7323 63.8367C12.7906 63.4095 12.9073 63.0433 13.0239 62.6161C13.0239 62.494 13.0822 62.3719 13.0822 62.1889C12.7323 62.1278 12.4408 62.0668 12.091 62.0058C11.0998 61.8227 10.1086 61.5175 9.23405 60.9683C8.00964 60.1749 7.25168 59.0764 6.84354 57.6727C6.43541 56.208 6.37711 54.6212 6.49372 53.0955C6.61033 51.9969 6.72693 50.8984 6.90185 49.7999C7.07676 48.8234 7.30998 48.2741 8.59269 48.7624C9.70049 49.1896 10.8666 49.5557 12.0327 49.8609C13.0239 50.105 14.0734 50.2271 15.0645 50.2881C16.5222 50.4102 17.63 51.0815 18.4462 52.3631C18.4462 52.4241 18.5045 52.4241 18.6211 52.4852C18.7378 52.3021 18.7961 52.119 18.9127 51.9969C19.3791 51.2646 19.9622 51.2646 20.4286 51.9969C20.6035 52.3021 20.7784 52.6683 20.9533 52.9734C21.5364 54.133 22.1777 55.2315 22.7608 56.3911C22.8191 56.4521 22.8774 56.5131 22.9357 56.6352C23.0523 56.4521 23.1689 56.33 23.2855 56.208C23.8686 55.4756 24.4516 55.5366 24.9181 56.33C25.093 56.6352 25.2096 56.9403 25.3262 57.1844C26.2591 59.1374 27.3086 61.0293 28.8245 62.555C29.5825 63.3484 30.3988 64.0808 31.215 64.8131C31.3316 64.9352 31.5065 64.9962 31.6815 65.0572C33.3723 65.6675 34.5384 66.9492 35.2964 68.658C35.4713 69.1462 35.6462 69.6345 35.7628 70.0617C35.8211 70.1837 35.8211 70.3058 35.996 70.4278C36.0543 70.0617 36.1126 69.6345 36.1709 69.2683C37.0455 63.8977 37.7452 58.5271 37.9784 53.1565C38.095 50.7153 37.9784 48.3352 37.512 45.955C37.1621 44.3682 36.6374 42.8425 35.7628 41.4388C35.7045 41.3778 35.7045 41.3168 35.6462 41.2557C35.4713 40.9506 35.4713 40.6454 35.6462 40.3403C35.8794 40.0352 36.1709 39.9131 36.5208 39.9741C36.9872 40.0351 37.3953 40.3403 37.8035 40.6454C38.6781 41.4388 39.3194 42.3543 39.7859 43.4528C40.2523 44.5513 40.6021 45.7719 40.8353 46.9315C40.8936 47.2977 41.0103 47.6028 41.3601 47.7859C41.7099 48.03 42.0597 48.2741 42.3513 48.5182C42.876 48.8844 43.0509 49.3116 42.7011 49.9219C42.3513 50.5322 41.9431 51.1425 41.535 51.7528C41.4184 51.9359 41.3018 52.119 41.3601 52.3021C41.4184 56.7572 40.8936 61.2124 40.3106 65.6675C39.7859 69.3903 39.2611 73.1131 38.5031 76.7749C38.0367 79.033 37.5703 81.3521 37.1038 83.6102C35.6462 90.4455 33.8387 97.1588 32.1479 103.872C31.7398 105.459 31.3899 106.985 31.0401 108.571C30.9818 108.815 30.9235 109.06 30.8069 109.426C31.0401 109.304 31.0984 109.243 31.215 109.182C32.1479 108.51 33.0808 107.778 34.0137 107.168C34.5384 106.801 35.1798 106.557 35.8211 106.374C36.8706 106.069 37.9201 105.825 39.0279 105.581C39.1445 105.52 39.2611 105.52 39.436 105.52C40.0774 105.459 40.5438 105.764 40.7187 106.435C40.8353 106.862 40.8936 107.29 40.8936 107.778C40.8936 108.144 41.0103 108.327 41.3601 108.388C42.3513 108.693 43.4008 108.998 44.3919 109.365C44.5086 109.426 44.6252 109.426 44.6835 109.487C45.2665 109.731 45.4414 110.28 45.2665 110.89C45.1499 111.135 45.0333 111.379 44.8584 111.684C44.7418 111.867 44.6835 112.05 44.5669 112.294C44.8584 112.477 45.0916 112.66 45.3248 112.843C47.5404 114.369 48.3567 116.505 47.9485 119.19C47.7736 120.228 47.4238 121.265 47.074 122.242C46.6075 123.523 46.4326 124.866 46.3743 126.209C46.316 126.88 46.316 127.612 46.316 128.284C46.2577 129.382 45.8496 129.871 44.8001 129.932C43.2258 129.993 41.8265 129.565 40.6021 128.528C38.0367 126.453 36.8706 123.707 36.8706 120.35C36.8706 119.679 36.9872 118.946 37.0455 118.214C36.8706 118.336 36.754 118.397 36.6374 118.458C36.3459 118.702 36.0543 119.007 35.7628 119.251C35.1798 119.74 34.5967 119.557 34.3635 118.824C34.2469 118.519 34.1886 118.214 34.1303 117.909C33.9554 116.932 33.7804 116.017 33.6055 115.04C33.5472 114.857 33.5472 114.674 33.4889 114.43C33.314 114.613 33.1974 114.735 33.0808 114.857C32.7309 115.162 32.3228 115.101 32.0896 114.735C31.9147 114.491 31.7981 114.186 31.6815 113.881C31.4482 113.454 31.2733 113.026 31.0401 112.66C30.9235 112.416 30.632 112.294 30.3987 112.05C30.2238 112.782 30.0489 113.393 29.874 114.064C29.8157 114.247 29.8157 114.491 29.7574 114.674C29.5242 115.285 29.6408 115.773 29.9906 116.261C30.1655 116.505 30.2821 116.81 30.4571 117.054C30.8069 117.543 30.8069 118.092 30.4571 118.58C30.0489 119.129 29.6408 119.679 29.2326 120.228C28.9994 120.472 28.8828 120.777 28.8245 121.143C28.4164 125.354 28.2998 129.626 28.533 133.899C28.533 134.021 28.533 134.082 28.5913 134.204C28.7079 134.143 28.7662 134.143 28.8245 134.082C29.9323 133.044 31.1567 132.373 32.4977 131.824C32.8476 131.701 33.1974 131.518 33.6055 131.396C34.1886 131.152 34.655 131.396 34.7716 132.068C34.8299 132.373 34.8299 132.739 34.8882 133.105C34.9465 133.105 35.0631 133.166 35.1214 133.166C36.4042 133.166 37.6869 133.41 38.9696 133.715C40.1357 134.021 41.2435 134.143 42.4096 134.204C43.5174 134.265 44.0421 134.936 43.9838 136.096C43.9255 137.011 43.5757 137.743 43.0509 138.415C42.4096 139.269 41.535 139.757 40.5438 140.062C38.7364 140.612 36.9872 140.429 35.3547 139.452C34.8882 139.208 34.4218 138.903 33.9553 138.659C33.8387 138.598 33.6638 138.537 33.4889 138.415C33.314 138.903 33.1974 139.391 33.0225 139.818C32.9642 140.062 32.9059 140.246 32.7892 140.49C32.4977 140.978 32.0313 141.039 31.6815 140.612C31.4482 140.307 31.2733 139.94 31.0401 139.574C30.7486 139.025 30.5154 138.476 30.2821 137.865C29.9906 137.255 29.5825 136.828 28.9994 136.523C28.9411 136.523 28.8828 136.523 28.7662 136.462C28.7662 136.767 28.8245 137.011 28.8245 137.255C29.5242 144.884 31.7398 152.024 35.0048 158.799C35.5296 159.836 36.0543 160.813 36.4625 161.85C36.8123 162.643 37.1038 163.437 37.337 164.23C37.6286 165.146 37.0455 166 36.1709 166C35.7045 166 35.413 165.756 35.1214 165.39C34.8299 164.902 34.4801 164.474 34.2469 163.986C32.6726 160.996 31.0401 158.066 29.8157 154.893C29.116 153.001 28.4164 151.109 27.775 149.156C27.6584 148.79 27.4835 148.546 27.1337 148.424C26.8421 148.301 26.5506 148.179 26.3174 148.057C25.7927 147.752 25.5594 147.264 25.5594 146.654C25.5594 146.41 25.6177 146.165 25.676 145.921C25.851 144.945 26.0259 144.029 26.1425 143.053C26.2008 142.809 26.1425 142.565 26.1425 142.321C25.9093 140.368 25.6177 138.415 25.3845 136.401C25.2679 135.485 24.3933 134.387 23.5188 134.143C23.1689 134.021 22.7608 134.082 22.411 134.326C22.0028 134.57 21.7113 134.875 21.4781 135.302C21.1866 135.79 21.0117 136.34 20.7201 136.828C20.4869 137.255 20.312 137.682 19.9622 137.987C19.4374 138.537 18.7961 138.415 18.4462 137.743C18.213 137.194 18.0381 136.645 17.8049 136.035C17.7466 135.851 17.6883 135.668 17.5717 135.424C17.3967 135.668 17.2801 135.851 17.2218 135.974C16.5222 137.194 15.8225 138.476 15.1229 139.696C14.2483 141.161 13.1405 142.443 11.7412 143.48C9.93371 144.762 8.06795 145.128 5.96897 144.457C4.97779 144.151 4.10321 143.541 3.28694 142.87C2.12084 141.832 1.36288 140.551 0.89644 139.025C0.721525 138.537 0.66322 137.987 0.66322 137.499C0.66322 136.767 0.954743 136.157 1.6544 135.79C2.29576 135.485 2.93711 135.119 3.57847 134.814C5.21101 134.021 6.61032 132.861 7.77642 131.396C8.18456 130.908 8.53439 130.481 9.00083 129.932C8.88422 129.81 8.7093 129.749 8.59269 129.626C8.30117 129.382 8.00964 129.138 7.77642 128.833C7.42659 128.345 7.5432 127.857 8.00964 127.551C8.18456 127.429 8.41778 127.368 8.59269 127.246C10.0503 126.697 11.5079 126.27 12.9656 125.965C13.1405 125.904 13.3154 125.904 13.5486 125.843C13.5486 125.66 13.4903 125.537 13.4903 125.415C13.4903 125.11 13.432 124.805 13.432 124.561C13.4903 123.951 13.8984 123.646 14.4815 123.707C14.6564 123.707 14.8313 123.768 15.0062 123.829C16.3473 124.439 17.7466 124.988 19.0293 125.721C20.7784 126.697 22.1778 128.162 23.2855 129.871C23.752 130.603 24.2767 131.396 24.7432 132.129C24.8015 132.251 24.8598 132.312 24.9764 132.495C24.9764 132.251 24.9764 132.129 24.9764 132.007C24.8598 127.368 25.093 122.73 25.676 118.092C26.0259 114.918 26.6089 111.806 27.3669 108.754C28.8828 102.529 30.3987 96.3044 31.9147 90.0793C32.3811 88.2485 32.7893 86.4176 33.1974 84.5867C33.2557 84.3426 33.2557 84.1595 33.1391 83.9154C32.8476 83.122 32.6143 82.3286 32.3228 81.4742C32.0313 80.6198 32.2062 79.9484 32.9059 79.3381C33.3723 78.9109 33.7804 78.4227 34.2469 77.9955C34.7133 77.5073 34.9465 76.897 34.9465 76.2867C34.9465 75.0661 34.9465 73.7845 34.8882 72.5639C34.8299 71.3433 34.4801 70.1837 33.9553 69.0852C33.4889 68.1697 32.8476 67.4374 31.973 66.8881C31.3316 66.4609 30.5737 66.3389 29.8157 66.3389C28.9411 66.3389 28.0665 66.583 27.2503 66.8881C26.7838 67.0712 26.4923 67.4984 26.2008 67.9256C25.676 68.8411 25.3845 69.8786 25.3262 70.9771C25.2679 72.0756 25.2679 73.1742 25.2679 74.2117C25.2679 74.5168 25.3262 74.883 25.2679 75.1881C25.2096 75.8595 24.6849 76.1646 24.1018 75.9205C23.752 75.7984 23.4605 75.5543 23.0523 75.3712C22.994 75.6153 22.8774 75.7984 22.8191 75.9815C22.5859 76.897 22.3527 77.8124 22.1777 78.7279C22.1194 78.972 22.0611 79.2771 21.9445 79.5212C21.653 80.1315 21.07 80.1926 20.6035 79.7043C20.2537 79.3382 19.9622 78.9109 19.6123 78.5448C19.4957 78.4837 19.3208 78.3006 19.0293 77.9955Z" fill="#46653B"/>
<path d="M26.0842 1.03726C28.7079 1.76961 31.215 2.92918 33.4889 4.45491C33.7221 4.638 33.9554 4.76006 34.1886 4.94315C35.5296 6.10271 37.1038 6.713 38.6781 7.3233C40.7187 8.11668 42.7011 9.09315 44.3336 10.6189C44.6835 10.924 44.975 11.2292 45.2665 11.5343C46.8408 13.3042 47.3655 15.3792 47.1323 17.6983C46.9574 19.163 46.4909 20.5057 46.0245 21.8483C44.9167 24.8388 43.8089 27.7682 42.876 30.8197C41.7682 34.3594 40.194 37.716 37.8618 40.5844C36.8706 41.7439 35.8794 42.9035 34.7133 43.8189C31.7981 46.1991 28.4747 47.4197 24.7432 47.2976C22.9357 47.2366 21.2449 46.6873 19.554 46.077C17.8049 45.4667 16.1724 44.4903 14.5398 43.5748C12.6741 42.4763 10.75 41.4998 8.82593 40.4013C7.54322 39.6689 6.37712 38.6925 5.38593 37.4719C3.75339 35.3969 2.87882 33.0167 2.93713 30.3314C2.99543 29.1719 3.28695 28.0123 3.57848 26.9138C3.87 25.6321 4.21983 24.4116 4.51136 23.1299C4.91949 21.4821 4.9778 19.7733 5.15271 18.0645C5.32763 16.1726 5.50254 14.2196 5.91068 12.3277C6.43542 10.0086 7.31 7.7505 8.76762 5.85859C11.3913 2.563 14.7147 0.426965 18.8544 0.0607881C20.7201 -0.1223 22.5859 0.121819 24.4517 0.610055C24.9764 0.671084 25.5011 0.854171 26.0842 1.03726ZM15.531 16.2336C15.3561 17.2711 15.1812 18.6748 15.0063 20.0785C14.9479 20.5667 15.0063 21.0549 15.0646 21.5432C15.0646 21.7263 15.1229 21.9093 15.3561 21.9093C15.5893 21.9093 15.6476 21.7263 15.6476 21.6042C15.8808 20.3226 16.4056 19.163 16.9303 18.0035C17.5717 16.5388 18.2713 15.074 19.3208 13.9145C20.4286 12.7549 21.5947 11.7785 23.1689 11.2902C24.1601 10.9851 25.1513 10.6799 26.1425 10.4968C27.4835 10.1917 28.8828 10.0696 30.2238 10.3137C32.2645 10.6799 34.1303 11.3512 35.6462 12.816C37.2788 14.3417 38.095 16.2946 38.0367 18.5527C38.0367 20.1395 37.6286 21.6042 37.0455 23.0689C36.5208 24.3505 35.996 25.6932 35.413 26.9748C34.655 28.7446 33.8971 30.5145 33.0225 32.2233C31.6815 34.8476 29.8157 36.8616 27.1337 38.0822C24.3934 39.3027 21.653 39.5469 18.8544 38.2042C16.2307 36.9226 13.9568 35.1528 11.9744 33.0167C11.0998 32.0402 10.4002 30.9417 9.58389 29.9042C9.40898 29.7211 9.29237 29.477 9.11745 29.355C8.70932 28.9888 8.24288 28.9888 7.95135 29.477C7.77644 29.7211 7.65983 30.0873 7.60152 30.3925C7.25169 31.9182 7.31 33.3829 7.89305 34.7866C8.35949 35.9461 9.11745 36.9226 9.99203 37.716C11.2747 38.8755 12.7324 39.73 14.3649 40.3403C16.1724 41.0116 18.0381 41.6219 19.8456 42.2932C20.4869 42.5373 21.1283 42.7814 21.7696 43.0256C22.7608 43.4528 23.6937 43.88 24.6849 44.3072C25.6178 44.7344 26.5506 44.6123 27.3669 43.88C27.7167 43.5748 28.0666 43.2086 28.3581 42.7814C29.291 41.5608 30.3988 40.5844 31.5649 39.6689C32.2062 39.1807 32.9059 38.6925 33.5472 38.1432C34.8882 36.9836 35.9377 35.58 36.5791 33.8711C36.8706 32.9557 37.1621 32.1013 37.4537 31.1858C37.6869 30.5145 38.0367 29.9652 38.6198 29.5991C38.9696 29.416 39.2611 29.2329 39.611 29.0498C39.7859 28.9277 39.9608 28.8667 40.1357 28.7447C40.777 28.3785 41.0686 27.8292 40.952 27.0358C40.8937 26.6697 40.8354 26.3035 40.7771 25.9373C40.6021 24.7167 40.6021 23.4961 41.0686 22.3366C41.535 21.116 42.0015 19.8343 42.4096 18.5527C43.634 15.013 42.4096 11.7174 39.7859 9.94757C37.5703 8.42183 35.1215 7.44536 32.556 6.77403C29.7574 6.04168 26.8422 5.91962 23.9269 6.04168C21.8279 6.10271 20.1371 7.01815 18.7961 8.78801C17.3968 10.9851 16.4056 13.3652 15.531 16.2336ZM31.2733 24.1674C31.6815 22.7638 31.7398 21.3601 31.3899 19.9564C30.7486 17.088 28.5913 14.5858 25.093 14.7689C22.7608 14.8299 20.8367 15.8674 19.6123 18.0645C19.0293 19.102 18.7378 20.3226 18.7378 21.5432C18.6795 22.6417 19.0293 23.6792 19.3208 24.6557C19.3791 24.8388 19.554 24.9608 19.6706 25.0219C19.9039 25.0829 20.0788 24.8998 20.1371 24.7167C20.1954 24.5336 20.312 24.3505 20.3703 24.1064C20.9534 22.4586 21.8862 21.177 23.1689 20.0785C23.752 19.5902 24.335 19.2851 25.093 19.224C25.4428 19.163 25.7927 19.2851 26.0842 19.4682C27.0171 20.0785 27.3086 20.8718 26.9005 21.9093C26.7255 22.4586 26.434 23.0079 26.2008 23.4961C25.5595 24.6557 24.9181 25.8152 23.9852 26.7917C23.0523 27.7072 22.0028 28.2564 20.7201 28.3174C19.6123 28.3174 18.5629 28.0733 17.5717 27.5241C16.1724 26.7307 15.1812 25.5101 14.5398 23.9844C13.8985 22.3976 13.432 20.7498 13.2571 18.9799C13.2571 18.7358 13.1988 18.4307 13.0822 18.1866C13.0239 18.0645 12.849 17.9424 12.7324 17.9424C12.6741 17.9424 12.5574 18.0645 12.4991 18.1866C12.4408 18.3086 12.4408 18.4917 12.4408 18.6138C12.3825 20.0785 12.3825 21.5432 12.5574 23.0079C12.7907 24.8998 13.2571 26.7307 14.2483 28.3785C15.4144 30.2704 16.9886 31.7351 19.1459 32.2233C19.8456 32.4064 20.6035 32.4064 21.3615 32.3454C26.4923 32.1013 30.1072 28.5005 31.2733 24.1674ZM6.43542 20.3226C6.49373 20.3226 6.49373 20.3226 6.55203 20.3836C6.49373 20.6888 6.37712 20.9329 6.31881 21.238C5.79407 23.6182 6.37712 25.5711 8.06796 27.2189C8.12626 27.2799 8.12627 27.2799 8.18457 27.341C8.4761 27.5241 8.70932 27.402 8.70932 27.0358C8.70932 26.9138 8.70931 26.8527 8.65101 26.7307C8.18457 24.7167 8.59271 22.7638 9.29237 20.8718C10.0503 18.8579 11.1581 17.027 12.4408 15.3182C13.7818 13.5483 15.0646 11.7785 16.0557 9.76448C16.114 9.64242 16.1723 9.58139 16.2307 9.45933C17.63 7.07918 19.6123 5.43139 22.2361 4.82109C22.411 4.76006 22.6442 4.69903 22.8191 4.638C23.0523 4.51594 23.1106 4.27182 22.9357 4.02771C22.8191 3.90565 22.7025 3.78359 22.5276 3.72256C22.0028 3.53947 21.4781 3.35638 20.8951 3.29535C20.0205 3.17329 19.1459 3.29535 18.2713 3.47844C16.5805 3.78359 14.9479 4.21079 13.4903 5.2483C12.2659 6.10271 11.2747 7.14021 10.6917 8.54389C10.4585 9.15418 10.1669 9.82551 9.99203 10.4358C9.46728 12.5108 8.70932 14.4638 7.83474 16.3557C7.3683 17.6373 6.90186 19.041 6.43542 20.3226Z" fill="#DE8F6E"/>
<path d="M92.96 136.523C93.7762 137.804 94.5925 138.903 95.2922 140.063C96.5749 142.138 97.9159 144.152 99.1986 146.227C100.073 147.691 100.715 149.217 101.064 150.926C101.123 151.292 101.181 151.719 101.181 152.146C101.064 152.879 100.54 153.123 99.8982 152.757C99.4318 152.452 99.082 152.024 98.8488 151.536C98.5572 150.987 98.324 150.377 98.0908 149.766C96.9247 146.715 95.1755 144.152 93.0183 141.832C90.6861 139.269 88.1206 136.95 85.1471 135.18C84.739 134.936 84.3308 134.753 83.8644 134.57C80.1912 133.41 76.5763 131.946 73.1946 129.932C69.2298 127.551 65.7315 124.561 62.6414 121.021C58.2102 115.895 54.4204 110.28 51.4468 104.055C49.2312 99.4169 47.5987 94.5956 46.4326 89.5911C45.558 85.9904 44.5085 82.4507 43.2841 78.972C42.9926 78.2396 42.7011 77.5073 42.3513 76.836C41.7682 75.7374 40.8353 75.1882 39.6109 75.2492C38.5614 75.2492 37.5119 75.3713 36.4625 75.4323C35.7628 75.4933 35.0631 75.4933 34.4218 75.4933C34.1303 75.4933 33.897 75.3713 33.6055 75.2492C33.2557 75.0661 33.1974 74.6389 33.4889 74.3338C33.6638 74.1507 33.8387 74.0286 34.072 73.9066C34.655 73.6014 35.2381 73.2963 35.8794 72.9911C37.8035 72.0146 39.5526 70.733 41.0102 69.0242C42.3513 67.4374 43.6923 65.9117 45.0333 64.3249C45.7913 63.4705 46.5492 62.6771 47.3072 61.9448C48.2401 61.0904 49.2895 60.4801 50.514 60.2359C53.1377 59.7477 55.4699 60.358 57.5689 62.1279C58.9099 63.2874 59.9594 64.7521 60.8339 66.3389C61.8834 68.2308 62.5831 70.2448 63.2827 72.2588C63.8075 73.7845 64.3322 75.3713 64.9736 76.897C66.1397 79.7044 67.7139 82.2676 69.8129 84.4647C69.9295 84.5867 70.1044 84.7088 70.2793 84.9529C70.2793 84.7698 70.2793 84.7088 70.2793 84.5867C69.7546 81.4742 70.221 78.4227 71.2705 75.4933C72.7281 71.2823 74.7105 67.3764 77.2176 63.7146C79.0251 61.0293 81.0074 58.344 82.9315 55.7198C85.7301 51.8139 88.6454 47.969 91.3857 44.0631C95.2339 38.5705 98.7321 32.7727 101.647 26.6697C102.405 25.083 103.163 23.4352 103.921 21.7874C104.213 21.2381 104.504 20.6278 104.854 20.1396C105.029 19.8344 105.321 19.5293 105.554 19.2852C106.312 18.5528 107.245 18.4918 108.119 19.041C108.586 19.3462 109.052 19.7124 109.402 20.1396C110.335 21.2991 111.326 22.5197 112.142 23.8013C114.766 27.7683 116.865 31.9793 118.031 36.6175C118.614 39.0587 119.081 41.4999 119.081 44.0631C119.081 44.2462 119.081 44.4293 119.139 44.6124C119.256 44.6124 119.314 44.5514 119.372 44.5514C122.171 43.2697 125.028 41.9271 127.826 40.6455C132.666 38.3874 137.447 35.8852 141.878 32.8947C143.977 31.491 145.959 29.9043 147.883 28.2565C148.35 27.8293 148.874 27.4631 149.399 27.0969C149.749 26.8528 150.099 26.6697 150.507 26.5477C151.148 26.3035 151.615 26.5477 151.965 27.158C152.314 27.8293 152.431 28.5006 152.314 29.233C152.198 30.0874 152.081 30.8808 151.848 31.6741C151.265 33.9933 150.624 36.3124 150.099 38.6925C149.049 43.3308 148 47.969 147.3 52.7293C146.834 55.7198 146.426 58.7712 146.017 61.7617C145.493 65.6676 144.91 69.5735 143.86 73.3573C142.344 78.4838 140.245 83.3661 137.622 87.9433C134.998 92.7036 131.849 97.0367 128.351 101.126C126.893 102.835 125.378 104.482 123.745 106.008C123.22 106.496 122.695 107.046 122.229 107.656C121.879 108.083 121.704 108.632 121.471 109.121C121.296 109.548 121.413 109.975 121.704 110.341C122.054 110.829 122.579 111.135 123.045 111.44C124.153 112.05 125.378 112.477 126.602 112.782C129.401 113.515 132.258 114.125 135.114 114.552C137.388 114.857 139.662 115.163 141.936 115.468C142.577 115.59 143.219 115.773 143.919 115.895C144.21 115.956 144.502 116.078 144.793 116.261C146.076 116.932 146.601 117.97 146.309 119.435C146.017 120.655 145.726 121.937 145.434 123.157C144.851 125.476 144.502 127.796 144.618 130.115C144.735 132.068 144.91 134.021 145.085 135.974C145.143 136.889 145.318 137.804 145.376 138.781C145.493 140.49 144.268 141.466 142.811 141.344C142.286 141.283 141.761 141.161 141.236 140.978C139.487 140.307 137.796 139.574 136.047 138.903C132.024 137.377 127.943 136.401 123.745 135.851C121.238 135.546 118.731 135.485 116.224 135.668C113.25 135.913 110.218 136.218 107.245 136.462C105.437 136.645 103.571 136.706 101.764 136.828C101.647 136.828 101.531 136.828 101.298 136.889C101.414 137.072 101.531 137.194 101.589 137.316C105.087 141.954 107.769 147.081 109.635 152.696C109.927 153.489 110.043 154.343 110.218 155.198C110.277 155.625 110.277 156.113 110.16 156.602C109.985 157.273 109.402 157.395 108.936 156.907C108.702 156.663 108.469 156.357 108.352 156.052C107.769 154.893 107.186 153.733 106.662 152.513C104.796 148.363 102.58 144.457 99.9566 140.795C98.9654 139.452 97.9159 138.232 96.6915 137.133C96.4583 136.889 96.225 136.828 95.8752 136.767C94.8257 136.645 93.9511 136.584 92.96 136.523ZM83.1064 100.21C83.1064 100.821 83.1647 101.553 83.1647 102.285C83.2813 104.421 83.5729 106.557 84.2142 108.632C84.9139 110.89 85.8468 113.087 87.3627 114.918C87.7125 115.346 88.0623 115.773 88.4122 116.2C88.5871 116.383 88.762 116.627 88.9952 116.749C89.1118 116.81 89.3451 116.871 89.4617 116.81C89.5783 116.749 89.5783 116.505 89.5783 116.383C89.5783 116.261 89.52 116.139 89.52 116.078C88.8203 113.454 88.4122 110.829 88.2956 108.083C88.179 105.947 88.3539 103.75 88.5871 101.614C89.0535 97.3419 90.2196 93.3139 92.1437 89.5301C93.7762 86.2955 95.8169 83.4272 98.1491 80.7419C101.123 77.3242 104.388 74.3338 107.828 71.4654C111.851 68.1698 116.049 65.0573 120.247 61.9448C124.445 58.8323 128.584 55.6587 132.432 51.997C135.989 48.6403 139.079 44.8565 141.703 40.7065C142.344 39.669 142.869 38.5094 143.394 37.4109C143.569 37.1058 143.627 36.7396 143.685 36.4344C143.744 35.9462 143.452 35.7021 142.986 35.9462C142.869 36.0072 142.752 36.1293 142.636 36.1903C142.228 36.4955 141.82 36.8006 141.411 37.1058C138.846 39.0587 136.222 40.8896 133.482 42.4764C128.876 45.1617 124.328 47.969 119.78 50.7153C115.466 53.2786 111.268 56.0859 107.361 59.3205C103.688 62.372 100.073 65.4234 96.8081 68.9021C92.9017 72.9911 89.6366 77.5073 87.2461 82.6948C84.5057 88.1264 83.1647 93.9242 83.1064 100.21ZM61.9417 95.6941H61.8834C61.7668 95.572 61.6502 95.3889 61.5336 95.2669C60.7756 94.2294 59.8427 93.3139 58.8516 92.5816C58.0936 91.9713 57.2773 91.483 56.3444 91.2389C54.537 90.7507 53.0211 91.7882 52.6712 93.6801C52.4963 94.5956 52.5546 95.511 52.7295 96.4875C53.3126 99.2338 54.3038 101.736 55.7031 104.116C57.2773 106.801 59.1431 109.304 61.2421 111.562C64.2739 114.857 67.5973 117.787 71.4454 120.106C73.8359 121.571 76.2847 122.852 78.7335 124.073C80.7742 125.11 82.8732 125.965 85.0888 126.575C86.1966 126.88 87.2461 127.124 88.4122 127.063C88.762 127.063 89.1701 127.002 89.52 126.88C90.103 126.697 90.2196 126.209 89.8115 125.721C89.6366 125.538 89.4034 125.354 89.2284 125.171C88.004 124.195 86.8379 123.218 85.6135 122.242C81.0657 118.336 77.5091 113.698 75.1769 108.022C73.8942 104.849 72.7281 101.675 71.6203 98.4404C70.7458 95.8772 69.8712 93.375 68.7051 90.9338C68.1804 89.8963 67.6556 88.8588 66.9559 87.8823C66.4312 87.272 65.9065 86.7227 65.2068 86.2955C64.099 85.6852 63.1078 85.9294 62.4082 87.0279C62.1166 87.5161 61.8834 88.0044 61.7668 88.5536C61.3004 90.0794 61.3587 91.6051 61.5919 93.1919C61.6502 94.0463 61.8251 94.8397 61.9417 95.6941ZM74.6522 87.0279C74.6522 89.8963 74.7688 91.6661 75.1769 94.5956C75.8766 99.6 77.859 103.994 80.5993 108.144C80.8325 108.449 81.0657 108.754 81.3573 109.06C81.6488 109.365 81.882 109.426 82.1152 109.304C82.4068 109.06 82.2318 108.815 82.1735 108.51C81.7071 107.107 81.2407 105.764 80.8325 104.36C80.0746 101.736 79.4915 99.0507 79.3166 96.2433C79.1417 92.2154 79.5498 88.3095 80.5993 84.4036C81.9986 79.2161 84.1559 74.2727 86.8962 69.6955C89.4617 65.4234 92.1437 61.2124 94.884 56.9404C97.741 52.4242 100.423 47.847 102.464 42.8425C104.155 38.7536 105.612 34.6646 106.253 30.2705C106.428 28.9888 106.603 27.7072 106.487 26.4256C106.487 26.1205 106.428 25.7543 106.312 25.4491C106.137 25.0219 105.67 25.0219 105.437 25.4491C105.321 25.6322 105.321 25.8153 105.262 25.9984C105.029 26.7918 104.796 27.6462 104.563 28.4396C103.688 31.308 102.347 33.9322 100.773 36.4955C98.7905 39.7911 96.5749 42.8425 94.2427 45.894C90.7444 50.4712 87.3627 55.1705 84.2725 60.0529C81.9986 63.6536 79.8413 67.3764 78.1505 71.3433C75.9349 76.4698 74.7688 81.7794 74.6522 87.0279ZM141.236 51.6308C141.236 51.2646 141.236 50.8374 141.236 50.4712C141.236 50.1661 141.236 49.7999 141.178 49.4948C141.062 49.0676 140.945 48.5793 140.77 48.1521C140.595 47.7859 140.187 47.7859 139.954 48.0911C139.779 48.2742 139.662 48.5183 139.604 48.7624C139.429 49.3727 139.254 50.044 139.079 50.6543C138.671 52.1801 138.38 53.7668 137.796 55.2926C136.397 59.0764 134.765 62.7382 133.19 66.3999C128.643 76.958 123.22 86.9058 116.923 96.4264C114.183 100.576 111.151 104.36 107.536 107.717C107.011 108.205 106.487 108.693 105.962 109.243C105.787 109.365 105.67 109.548 105.554 109.731C105.321 110.158 105.437 110.585 105.904 110.707C106.137 110.768 106.37 110.829 106.545 110.768C107.011 110.768 107.536 110.707 108.003 110.646C110.801 110.158 113.367 109.06 115.757 107.534C118.264 105.947 120.422 104.055 122.404 101.858C125.378 98.5625 128.06 95.0228 130.45 91.2389C132.141 88.5536 133.365 85.6242 134.473 82.6948C135.348 80.1926 136.164 77.6293 136.98 75.0051C137.447 73.4793 137.913 71.8926 138.263 70.3058C139.021 66.8271 139.662 63.3484 140.42 59.8087C140.945 57.0624 141.178 54.3161 141.236 51.6308ZM94.4759 106.679C94.4759 107.107 94.4759 107.473 94.4759 107.9C94.4759 108.022 94.4759 108.144 94.4759 108.327C94.4759 108.51 94.5925 108.754 94.7674 108.754C94.884 108.754 95.1172 108.693 95.1756 108.571C95.3505 108.388 95.4671 108.144 95.5837 107.961C96.7498 105.825 98.0325 103.75 99.3735 101.797C102.23 97.647 104.971 93.497 107.536 89.1639C110.801 83.7323 114.591 78.7889 118.847 74.1507C122.462 70.2448 126.019 66.3389 129.575 62.372C130.567 61.2734 131.383 60.1139 132.316 58.9543C132.549 58.6492 132.782 58.222 132.957 57.8558C133.015 57.7337 132.957 57.4896 132.899 57.3676C132.782 57.1845 132.549 57.2455 132.432 57.4286C132.316 57.5507 132.199 57.6727 132.141 57.8558C130.975 59.3205 129.809 60.8462 128.468 62.1889C125.028 65.6065 121.413 68.7801 117.74 71.8315C114.358 74.5779 110.976 77.3852 107.828 80.4367C105.262 82.8779 102.872 85.4411 100.773 88.3705C96.8664 93.7411 94.7674 99.8441 94.4759 106.679ZM113.775 39.608C113.717 38.9977 113.6 37.8991 113.425 36.7396C113.017 34.2984 112.259 31.9183 111.151 29.7212C110.976 29.355 110.743 29.0499 110.51 28.8058C110.102 28.3785 109.635 28.5006 109.402 29.0499C109.285 29.355 109.169 29.7212 109.169 30.0263C108.936 31.7962 108.702 33.505 108.411 35.2749C108.061 37.9602 107.186 40.5234 106.253 43.0867C105.554 45.1617 104.621 47.1756 103.455 49.0065C101.589 51.9359 99.7816 54.9264 97.9159 57.9168C96.8664 59.6256 95.8752 61.3955 94.884 63.1654C94.5925 63.6536 94.4176 64.2639 94.1844 64.8132C94.0677 65.0573 94.0095 65.4235 94.301 65.6065C94.5925 65.7896 94.7674 65.5455 95.0006 65.3624C99.0237 62.2499 102.93 58.9543 106.487 55.2926C108.527 53.2176 110.335 50.8984 111.676 48.2742C113.017 45.772 113.717 43.0256 113.775 39.608ZM125.552 122.364C128.468 122.12 131.383 121.937 134.356 121.693C137.272 121.449 140.245 121.143 143.219 121.143C143.394 121.143 143.51 121.143 143.685 121.143C144.093 121.082 144.268 120.716 143.977 120.35C143.802 120.167 143.627 119.984 143.394 119.801C142.228 119.129 141.062 118.519 139.779 118.214C137.68 117.726 135.523 117.421 133.307 117.238C130.742 117.054 128.118 116.932 125.494 116.81C122.404 116.688 119.372 116.566 116.34 116.2C114.533 115.956 112.784 115.773 110.976 115.407C107.536 114.735 104.155 113.698 100.889 112.416C100.715 112.355 100.598 112.294 100.423 112.233C100.015 112.172 99.7816 112.416 99.9566 112.843C100.015 113.087 100.131 113.271 100.306 113.454C100.889 114.308 101.647 114.979 102.405 115.59C104.679 117.36 107.186 118.702 109.868 119.679C114.883 121.693 120.188 122.425 125.552 122.364ZM94.5925 130.42C94.301 130.359 94.1261 130.481 94.0678 130.664C94.0094 130.969 94.2427 131.091 94.4759 131.152C96.0501 131.579 97.5661 131.824 99.1986 132.007C101.298 132.19 103.455 132.068 105.554 131.824C108.527 131.518 111.501 131.335 114.475 131.213C118.731 131.091 122.987 131.152 127.185 131.824C130.275 132.312 133.19 133.105 135.989 134.57C136.63 134.936 137.272 135.241 137.971 135.546C138.263 135.668 138.613 135.851 138.904 135.546C139.196 135.241 139.079 134.814 138.904 134.509C138.554 133.899 138.205 133.227 137.738 132.678C136.281 130.847 134.473 129.504 132.316 128.589C129.459 127.368 126.427 126.819 123.337 126.697C119.78 126.575 116.224 127.002 112.725 127.674C109.052 128.406 105.321 129.26 101.647 129.993C100.248 130.298 98.7905 130.42 97.3328 130.481C96.4583 130.603 95.5254 130.481 94.5925 130.42ZM58.6766 71.4043C58.6766 71.0992 58.6183 70.5499 58.56 70.0617C58.2685 68.0477 57.5689 66.2779 56.2278 64.8132C54.5953 63.1043 52.6712 62.5551 50.4556 63.1043C49.4062 63.3484 48.415 63.8977 47.7736 64.8132C47.5987 65.0573 47.4238 65.3624 47.3655 65.6065C47.2489 65.9727 47.5404 66.2168 47.8902 66.0948C48.0068 66.0337 48.1235 65.9117 48.2401 65.8507C48.5316 65.6676 48.8231 65.4234 49.1146 65.2404C49.9892 64.6911 50.9804 64.7521 51.7384 65.4845C51.9716 65.7286 52.2048 65.9727 52.3797 66.2779C52.8461 67.0102 53.1377 67.8646 53.3126 68.719C53.6624 70.611 53.5458 72.5639 53.2543 74.4558C52.9045 76.7139 52.2631 78.972 51.5634 81.1691C50.9221 83.3051 50.2224 85.3801 49.5811 87.5161C49.1729 88.8588 48.9397 90.2625 48.9397 91.7272C48.998 93.3139 49.2312 94.8397 49.5811 96.3654C49.5811 96.4875 49.6394 96.6095 49.6977 96.6706C49.756 96.7316 49.9309 96.8536 49.9892 96.8536C50.1058 96.7926 50.2224 96.6706 50.2807 96.5485C50.339 96.4875 50.2807 96.4264 50.2807 96.3044C50.0475 93.7411 50.5139 91.3 51.6217 88.9808C52.3797 87.333 53.196 85.7463 54.0122 84.1595C55.2367 81.7794 56.5194 79.3992 57.5105 76.836C58.2685 75.1882 58.6766 73.4183 58.6766 71.4043ZM122.229 76.897C122.171 76.7749 122.112 76.5918 121.996 76.5308C121.879 76.4698 121.646 76.4698 121.529 76.5308C121.354 76.6529 121.18 76.836 121.063 77.0191C119.256 79.4602 117.39 81.9014 115.582 84.3426C112.725 88.3095 110.393 92.5816 107.944 96.7926C106.603 99.1117 105.262 101.37 103.921 103.689C103.863 103.75 103.805 103.811 103.805 103.872C103.805 103.994 103.746 104.238 103.805 104.299C103.921 104.421 104.096 104.421 104.271 104.421C104.446 104.36 104.621 104.238 104.796 104.116C106.837 102.468 108.702 100.637 110.393 98.6235C113.017 95.572 115.232 92.2154 117.215 88.6147C119.197 85.0749 120.655 81.2301 122.054 77.4463C122.112 77.3242 122.112 77.1411 122.229 76.897ZM63.2827 77.7514C63.2827 76.4088 62.6414 74.6999 61.6502 73.1132C61.5919 72.9911 61.4753 72.8691 61.417 72.808C61.0671 72.4418 60.7173 72.5639 60.6007 73.0521C60.5424 73.2963 60.5424 73.5404 60.5424 73.7845C60.4841 74.3948 60.4841 75.0661 60.3675 75.6764C59.901 78.1176 59.0265 80.3146 57.6272 82.3286C57.3939 82.6338 57.219 82.9389 57.0441 83.2441C56.2861 84.5257 55.878 85.8683 55.878 87.3941C55.878 88.1264 56.0529 88.8588 56.5777 89.4691C56.9275 89.8963 57.2773 89.8352 57.5689 89.347C57.5689 89.286 57.6272 89.225 57.6272 89.1639C57.8604 88.4926 58.2685 87.8213 58.735 87.272C59.4346 86.3566 60.1343 85.5022 60.7756 84.5867C61.3587 83.7323 61.9417 82.9389 62.4082 82.0235C62.9912 80.9249 63.2827 79.6433 63.2827 77.7514ZM98.0908 126.27C101.414 126.27 104.679 125.782 107.944 125.171C109.227 124.927 110.451 124.683 111.734 124.683C112.434 124.683 113.133 124.622 113.775 124.561C113.891 124.561 114.125 124.439 114.183 124.317C114.241 124.195 114.066 124.012 114.008 123.89C113.775 123.707 113.542 123.585 113.308 123.462C111.384 122.486 109.285 122.12 107.186 121.998C105.67 121.937 104.155 122.242 102.697 122.73C101.123 123.279 99.4901 123.89 97.9159 124.439C97.2745 124.683 96.5749 124.927 95.8752 124.927C95.2339 124.927 94.5925 124.927 94.0095 124.866C93.8345 124.866 93.6013 124.866 93.543 125.11C93.4847 125.354 93.6596 125.476 93.8345 125.538C94.1844 125.721 94.5925 125.904 95.0006 126.026C95.9335 126.392 97.0413 126.27 98.0908 126.27ZM104.504 120.289C104.854 120.289 105.146 120.289 105.496 120.289C105.612 120.289 105.845 120.167 105.904 120.045C105.962 119.801 105.729 119.74 105.554 119.679C105.496 119.679 105.496 119.679 105.437 119.618C104.738 119.374 104.038 119.129 103.397 118.763C101.472 117.665 99.5484 116.505 97.6244 115.346C95.642 114.064 93.4847 113.149 91.3274 112.355C91.1525 112.294 90.9776 112.172 90.861 112.416C90.7444 112.66 90.9776 112.782 91.0942 112.904C91.7939 113.637 92.5518 114.369 93.2515 115.04C93.6596 115.407 94.0094 115.834 94.4176 116.2C97.2745 118.946 100.656 120.228 104.504 120.289ZM50.9221 70.2448C50.9221 69.5124 50.7472 68.658 50.514 67.8646C50.4556 67.6815 50.339 67.4985 50.2224 67.3154C50.1058 67.1323 49.9309 67.0102 49.6977 67.0712C49.4645 67.1933 49.4645 67.3764 49.5228 67.6205C49.5811 67.9257 49.6394 68.1698 49.6394 68.4749C49.756 70.4279 49.4645 72.3198 48.8231 74.2117C48.3567 75.5544 47.8319 76.836 47.3072 78.1786C46.6658 79.9485 46.316 81.7794 46.6075 83.7323C46.7241 84.4036 46.7824 85.0139 47.1323 85.6242C47.2489 85.8073 47.3655 85.9904 47.5987 85.9904C47.8902 85.9294 47.8319 85.6852 47.8319 85.5022C47.8319 85.136 47.7736 84.7088 47.7736 84.3426C47.7153 82.3897 48.1234 80.4977 48.6482 78.6058C49.1729 76.897 49.756 75.2492 50.2807 73.5404C50.6889 72.4418 50.9221 71.4654 50.9221 70.2448ZM44.2753 69.5735C44.2753 70.1838 44.4502 70.4889 44.7418 70.8551C45.3248 71.5874 46.2577 71.5264 46.7824 70.794C47.1323 70.3058 47.3072 69.8176 47.1906 69.2073C47.0157 68.2308 46.0245 67.6205 45.2082 68.0477C44.6251 68.4139 44.3336 69.0242 44.2753 69.5735Z" fill="#CEA34F" fill-opacity="0.67"/>
<path d="M129.167 149.827C129.284 149.888 129.342 150.01 129.459 150.071C129.75 150.315 129.867 150.621 129.75 150.987C129.634 151.353 129.342 151.597 128.992 151.597C128.526 151.597 128.06 151.658 127.651 151.536C126.252 151.048 124.911 150.559 123.57 150.01C121.529 149.095 119.489 148.118 117.623 146.898C117.157 146.593 116.69 146.287 116.282 145.921C115.99 145.677 115.757 145.372 115.582 145.006C115.291 144.334 115.757 143.724 116.457 143.785C116.865 143.846 117.273 144.029 117.681 144.212C119.314 145.067 120.946 145.921 122.579 146.715C124.386 147.569 126.252 148.362 128.118 149.217C128.526 149.4 128.876 149.583 129.167 149.827C129.167 149.766 129.167 149.766 129.167 149.827Z" fill="#DB8E98"/>
<path d="M161.352 151.841C161.876 152.268 161.876 152.94 161.41 153.367C160.944 153.733 160.477 154.038 159.894 154.221C158.728 154.526 157.504 154.832 156.337 155.076C154.472 155.381 152.548 155.503 150.624 155.381C150.099 155.32 149.574 155.259 149.049 155.137C148.816 155.076 148.583 154.954 148.35 154.77C148 154.465 148 154.038 148.35 153.794C148.583 153.611 148.816 153.489 149.108 153.428C149.516 153.306 149.924 153.245 150.39 153.245C151.265 153.123 152.139 153.062 153.014 152.94C155.171 152.757 157.27 152.451 159.311 151.902C159.836 151.78 160.36 151.78 160.827 151.78C161.06 151.719 161.235 151.78 161.352 151.841Z" fill="#DB8E98"/>
<path d="M176.861 147.752C176.628 147.935 176.278 148.24 175.87 148.485C174.995 148.973 174.121 149.4 173.246 149.766C171.322 150.682 169.339 151.475 167.299 152.085C166.832 152.207 166.308 152.329 165.841 152.39C165.55 152.451 165.2 152.39 164.908 152.329C164.267 152.146 164.092 151.475 164.5 150.987C164.675 150.743 164.967 150.621 165.2 150.437C165.491 150.315 165.783 150.193 166.074 150.132C168.698 149.278 171.264 148.179 173.771 146.898C174.47 146.532 175.228 146.287 175.986 146.043C176.453 145.86 176.803 146.043 177.036 146.471C177.269 146.776 177.269 147.264 176.861 147.752Z" fill="#DB8E98"/>
<path d="M145.143 153.001C145.726 153.428 145.668 154.099 145.085 154.465C144.735 154.649 144.327 154.771 143.919 154.832C140.479 155.015 137.097 154.465 133.773 153.489C133.307 153.367 132.899 153.123 132.491 152.879C132.199 152.696 132.083 152.451 132.141 152.085C132.199 151.719 132.491 151.536 132.782 151.536C133.19 151.475 133.657 151.414 134.065 151.475C135.231 151.597 136.397 151.78 137.505 152.024C139.604 152.451 141.703 152.574 143.802 152.635C144.443 152.635 144.793 152.757 145.143 153.001Z" fill="#DB8E98"/>
<path d="M187.939 138.659C186.015 140.917 184.032 143.053 181.525 144.64C181.292 144.762 181.059 144.945 180.767 145.067C180.534 145.189 180.242 145.25 180.009 145.25C179.31 145.25 178.96 144.579 179.368 143.968C179.543 143.724 179.718 143.541 179.951 143.358C180.942 142.504 181.933 141.71 182.866 140.856C184.032 139.696 185.14 138.476 186.306 137.255C186.714 136.828 187.122 136.462 187.589 136.034C187.997 135.729 188.405 135.729 188.697 135.973C189.047 136.279 189.105 136.706 188.813 137.194C188.522 137.682 188.23 138.171 187.939 138.659Z" fill="#DB8E98"/>
</svg>
