<svg width="177" height="113" viewBox="0 0 177 113" fill="none" xmlns="http://www.w3.org/2000/svg">
<path d="M175.996 3.30342C172.078 -2.61481 160.656 0.544613 150.948 4.09555C150.032 4.40208 149.137 4.77538 148.27 5.21242C139.43 9.4614 126.096 20.9063 118.566 27.6986C112.393 33.2678 97.8769 47.4321 92.4781 56.6797C92.0909 55.8391 91.3486 55.1622 90.4109 54.7586C93.0499 42.913 100.456 35.8446 100.537 35.7687C101.02 35.3165 100.981 34.6154 100.452 34.2026C99.9227 33.7899 99.1023 33.8202 98.6192 34.2724C98.2889 34.582 91.6399 40.9008 88.4965 51.8116C85.3567 40.9008 78.7041 34.582 78.3738 34.2724C77.8907 33.8202 77.0702 33.7899 76.541 34.2026C76.0118 34.6154 75.9763 35.3165 76.4558 35.7687C76.5375 35.8446 83.943 42.913 86.582 54.7586C85.6444 55.1622 84.902 55.8391 84.5149 56.6797C79.1161 47.4321 64.5962 33.2678 58.4267 27.6986C50.8897 20.8972 37.5312 9.43713 28.6942 5.19725C28.6587 5.17904 28.6232 5.16386 28.5877 5.14565C28.1615 4.94231 27.7424 4.75414 27.341 4.58721C27.1385 4.50223 26.9361 4.42333 26.7301 4.34442C26.6875 4.32924 26.6448 4.31103 26.6058 4.29586C16.7814 0.666011 4.99641 -2.73014 1.00415 3.30038C-1.83377 7.58275 1.90986 12.3537 5.21307 16.5633C5.99447 17.5618 6.73325 18.5026 7.34772 19.3889C8.54114 21.1158 9.21244 26.6819 9.92635 32.5759C10.9422 40.9797 12.0965 50.455 15.247 55.6296C15.9041 56.8649 16.7601 57.9969 17.7901 58.9651C28.0194 68.5708 42.0136 70.0306 44.2832 70.2067C44.816 70.4555 45.363 70.6741 45.9277 70.8471C43.6617 71.7818 41.6691 72.9018 40.2626 73.9519C34.9774 77.9034 32.4734 84.9507 33.8835 91.9038C35.4285 99.5064 41.0901 105.525 49.4476 108.499C49.9378 109.394 50.6055 110.214 51.4544 110.891C52.4951 111.722 53.7702 112.344 55.1341 112.693C55.9439 112.9 56.7715 113 57.5813 113C58.8138 113 60.0108 112.766 61.0515 112.305C62.426 111.695 63.488 110.672 64.0563 109.507C65.6759 110.123 67.292 110.435 68.869 110.435C70.5846 110.435 72.2575 110.068 73.8452 109.337C80.7357 106.153 84.4758 96.954 84.934 91.491C85.8006 98.6688 87.0757 103.118 88.4965 103.118C89.9172 103.118 91.1923 98.6688 92.059 91.491C92.5172 96.954 96.2572 106.153 103.148 109.337C104.735 110.071 106.408 110.435 108.124 110.435C109.701 110.435 111.313 110.123 112.937 109.507C113.505 110.672 114.567 111.695 115.942 112.305C116.982 112.766 118.179 113 119.412 113C120.225 113 121.053 112.897 121.859 112.693C123.226 112.347 124.498 111.722 125.542 110.891C126.387 110.214 127.055 109.397 127.549 108.502C135.906 105.528 141.568 99.5095 143.113 91.9068C144.523 84.9537 142.019 77.9095 136.734 73.9549C135.327 72.9048 133.335 71.7849 131.069 70.8501C131.634 70.6771 132.18 70.4616 132.713 70.2097C134.979 70.0337 148.974 68.5769 159.206 58.9681C160.236 58 161.092 56.8679 161.75 55.6327C164.904 50.461 166.054 40.9828 167.07 32.5789C167.784 26.685 168.455 21.1188 169.649 19.3919C170.26 18.5057 170.998 17.5648 171.783 16.5663C175.09 12.3568 178.834 7.58578 175.996 3.30342ZM52.3637 27.2404C56.086 27.8049 59.0553 31.0553 58.5936 34.06C58.2242 36.4637 55.6349 38.4486 53.0882 38.309C51.8629 38.2422 50.6588 37.5745 49.9023 36.5638C50.8826 36.5274 51.8273 36.0874 52.3637 35.3134C52.7757 34.7216 52.8893 34.0296 52.694 33.365C52.4986 32.7003 52.0049 32.1388 51.3159 31.7898C50.6233 31.4377 49.817 31.3376 49.0356 31.5076C48.3181 31.6623 47.7179 32.0387 47.3023 32.5546C47.2739 32.5819 47.249 32.6123 47.2277 32.6426C47.2171 32.6578 47.1993 32.67 47.1886 32.6851C47.1744 32.7033 47.1709 32.7246 47.1567 32.7428C47.146 32.758 47.1318 32.7731 47.1247 32.7914C47.1141 32.8126 47.107 32.8308 47.0963 32.8521C47.004 33.0099 46.9294 33.1738 46.8796 33.3407C46.8477 33.4317 46.8264 33.5258 46.7979 33.6199C46.7979 33.6229 46.7944 33.626 46.7944 33.629C46.4286 34.9128 46.6985 36.318 47.5936 37.5988C48.7728 39.2862 50.8186 40.4031 52.9249 40.5184C55.7805 40.6641 58.5474 39.2104 60.0569 37.0403C60.0712 37.095 60.0783 37.1526 60.096 37.2073C60.5755 38.8553 61.7441 40.1998 63.2714 41.0799C62.7741 38.7551 63.9462 37.702 63.9711 36.2452C69.789 41.9995 75.955 48.6674 79.8868 54.0939C78.4022 53.5112 76.8109 53.2229 75.2481 53.2502C75.2091 53.2472 75.17 53.2411 75.1309 53.2411C71.707 53.235 68.2688 52.9953 64.8803 52.5522C65.1432 51.2259 65.3456 48.983 64.17 47.4837C62.3372 45.1468 59.3714 45.514 56.7005 42.1361C56.1357 44.4669 56.5406 46.9769 58.0608 49.1894C58.8031 50.2698 59.7444 51.1834 60.8241 51.9209C56.7857 51.1621 53.5464 50.1515 50.7511 48.7766C46.8938 46.8828 43.9316 44.212 42.4079 41.2559C40.7172 37.9751 40.8202 34.2026 42.6778 31.4135C44.6597 28.4483 48.7301 26.691 52.3637 27.2404ZM51.7172 24.9489C47.3485 24.7061 42.7347 26.858 40.4224 30.3269C38.9448 32.5486 38.3765 35.2618 38.7246 37.9721C37.5561 37.2285 36.2454 36.6276 34.8318 36.2209C33.4786 35.8324 32.0507 35.626 30.6051 35.5896C33.681 33.3316 36.0714 30.4423 37.4531 27.2434C38.4724 27.122 39.8008 26.8215 40.5822 26.078C42.0349 24.691 41.2713 23.128 43.3669 21.1158C41.6869 21.1825 40.0317 21.7228 38.6785 22.7243C39.0798 19.3615 38.3979 15.9654 36.7818 12.9577C41.9852 16.7059 47.4586 21.2554 51.7172 24.9489ZM6.80074 9.88327C6.22534 10.9607 5.88792 12.0988 5.76715 13.246C3.46201 10.1473 1.60085 6.91505 3.27021 4.39601C4.94668 1.86483 9.20533 1.52795 16.4333 3.3975C12.1853 4.24123 8.52693 6.66315 6.80074 9.88327ZM14.5224 45.7508C13.6167 41.4623 13.0307 36.6306 12.5121 32.3513C12.0504 28.5242 11.6419 25.1614 11.0985 22.5817C15.0339 24.4694 20.4007 24.002 23.434 21.2736C23.5441 21.1734 23.6471 21.0702 23.7501 20.967C24.7304 21.2554 26.105 21.5103 27.2167 21.137C29.2412 20.4541 29.3798 18.7636 32.3065 17.7651C30.6229 17.1278 28.6694 16.9973 26.7834 17.5254C26.3465 17.6468 25.938 17.8016 25.5473 17.9806C25.9735 16.4904 25.8173 14.9365 25.011 13.6254C24.187 12.2809 22.5993 11.2642 20.7595 10.9152C19.3174 10.639 17.8754 10.812 16.7104 11.3886C16.586 11.4463 16.4688 11.5161 16.3516 11.592C16.3054 11.6193 16.2557 11.6436 16.2095 11.6709C16.1953 11.68 16.1847 11.6921 16.1705 11.7012C16.1563 11.7103 16.1421 11.7164 16.1314 11.7255C16.1101 11.7407 16.0994 11.7589 16.0781 11.7741C16.0462 11.8014 16.0142 11.8287 15.9858 11.859C14.8954 12.8151 14.8279 14.3417 15.8828 15.3554C16.4759 15.9259 17.3035 16.2173 18.1346 16.2173C18.845 16.2173 19.5625 16.0048 20.1343 15.5678C20.8873 14.9972 21.2176 14.1717 21.1182 13.3735C21.8037 13.6709 22.3826 14.1171 22.713 14.6512C23.64 16.1657 23.1534 18.3084 21.5551 19.7439C19.0475 21.9989 14.1246 22.1052 11.2299 19.9625C8.38131 17.8562 7.48979 13.9198 9.15916 10.8059C10.7717 7.80127 14.5047 5.64946 18.6674 5.32472C21.0436 5.13655 23.5512 5.54931 25.8812 6.45373C25.9629 6.48408 26.0446 6.51747 26.1263 6.55085C27.4973 7.10929 28.8079 7.83465 29.9765 8.7148C34.8673 12.3962 37.1973 18.6453 35.7802 24.26C34.5299 29.2101 30.5554 33.6017 25.2063 36.0965C25.8954 35.2406 26.4459 34.2876 26.8047 33.2375C27.6429 30.7731 27.3161 28.254 26.1014 26.1144C24.4818 29.9476 21.4982 30.2086 20.3901 32.8612C19.6797 34.5668 20.5215 36.7004 21.1573 37.9296C21.104 37.9599 21.0507 37.9873 20.9974 38.0176C17.8754 39.8659 15.6128 42.6611 14.5224 45.7508ZM19.7152 57.4749C19.0084 56.8133 18.4081 56.0515 17.9073 55.226C17.8789 55.1562 17.8434 55.0864 17.8008 55.0166C17.7262 54.9043 17.6587 54.7768 17.5877 54.6615C17.0797 53.6933 16.7175 52.6493 16.5292 51.5688C16.2238 49.8055 16.4191 48.0057 17.03 46.3092C18.0636 46.4367 19.5092 46.4731 20.5357 45.9086C22.3684 44.901 22.1162 43.2226 24.7624 41.7537C22.9936 41.4138 21.0827 41.6019 19.3707 42.4001C20.2444 41.4168 21.2851 40.5457 22.4785 39.8386C25.8741 37.8294 30.289 37.2467 34.0078 38.315C37.8331 39.4167 40.8522 42.3394 41.5235 45.5869C42.2125 48.9193 40.3336 52.5431 37.0553 54.2032C34.7501 55.3686 31.8873 55.5113 29.7633 54.5613C27.5612 53.581 26.247 51.323 26.7763 49.4231C27.0213 48.5429 27.7353 47.7205 28.7049 47.1772C28.7333 47.4503 28.7973 47.7205 28.9287 47.9784C29.2448 48.6097 29.8308 49.0983 30.5767 49.3502C30.939 49.4716 31.3155 49.5354 31.692 49.5354C32.0934 49.5354 32.4983 49.4656 32.8783 49.326C33.6171 49.0559 34.1889 48.5551 34.4873 47.9147C35.0733 46.6552 34.402 45.2378 32.9955 44.6582C32.9529 44.6369 32.9103 44.6187 32.8677 44.6005C32.8463 44.5944 32.8286 44.5823 32.8073 44.5732C32.7895 44.5671 32.7718 44.5671 32.7575 44.561C32.7398 44.555 32.722 44.5459 32.7007 44.5398C32.6545 44.5277 32.6048 44.5216 32.5586 44.5094C32.4201 44.473 32.278 44.4396 32.136 44.4214C30.6549 44.1726 29.0814 44.4123 27.6465 45.1195C25.9203 45.9693 24.6842 47.3502 24.2509 48.9102C23.4659 51.7357 25.2312 54.9286 28.3604 56.4248C26.7763 57.0804 25.5544 58.1487 24.8156 59.4173C27.8169 58.5887 29.1844 59.8149 31.2551 59.2382C32.3207 58.9408 33.1482 58.0849 33.6952 57.3535C35.2296 57.2534 36.7676 56.8679 38.1563 56.2032C37.8438 57.3626 37.6733 58.5129 37.6626 59.648C37.6342 62.5342 38.6749 65.3082 40.529 67.4054C35.3788 66.4312 26.5454 63.8878 19.7152 57.4749ZM43.0863 66.6072C41.2606 64.856 40.2271 62.3309 40.2519 59.6783C40.2732 57.3201 41.0724 54.8588 42.6139 52.3549C43.6191 50.8283 44.1909 49.0862 44.2477 47.3047C45.7502 48.5885 47.4941 49.7478 49.4583 50.7099C49.9697 50.9588 50.4954 51.1955 51.0317 51.4231C50.57 51.499 50.1118 51.6113 49.6572 51.7631C47.8102 52.3852 46.4001 53.5507 45.5832 54.9589C48.5845 54.1303 49.952 55.3565 52.0227 54.7798C53.177 54.4551 54.0579 53.4778 54.5942 52.713C56.8638 53.4111 59.3821 53.9816 62.2662 54.4399C64.6068 54.8132 66.9795 55.0742 69.3627 55.2442C67.1819 57.0227 66.1625 59.739 67.0363 62.1184C67.6437 63.7725 69.2278 65.1534 71.2736 65.8181C72.9714 66.3705 74.7402 66.3371 76.2249 65.7483C76.3847 65.6906 76.541 65.6238 76.6937 65.5419C76.7115 65.5328 76.7328 65.5267 76.7506 65.5176C76.7612 65.5116 76.7719 65.5024 76.7861 65.4964C76.8038 65.4842 76.8252 65.4782 76.8429 65.466C76.8642 65.4539 76.8784 65.4357 76.8997 65.4235C76.9353 65.3993 76.9708 65.375 77.0027 65.3477C78.2068 64.4918 78.459 62.9804 77.532 61.8787C77.0631 61.3202 76.367 60.953 75.5749 60.8407C74.7828 60.7284 73.9837 60.8893 73.3337 61.2899C72.6802 61.6905 72.2504 62.2854 72.119 62.9622C72.0692 63.2141 72.0799 63.466 72.119 63.7148C70.8723 63.2869 69.8778 62.428 69.5226 61.4538C68.7802 59.4294 70.2329 56.9104 72.6979 55.9513C75.067 55.0317 78.2068 55.4475 80.512 56.9832C83.3392 58.868 84.7706 62.3461 83.9892 65.4357C83.2185 68.4949 80.409 71.1688 76.8323 72.2432C73.355 73.2902 69.2029 72.8289 65.9992 71.0352C65.9281 70.9958 65.8535 70.9624 65.7789 70.9381C63.1932 69.5875 60.0392 68.8227 56.6365 68.7377C57.7411 67.7058 58.519 66.4463 58.7996 65.0958C58.8245 64.9744 58.8351 64.853 58.8529 64.7346C59.8687 64.5464 61.2113 64.1488 61.9323 63.3294C63.2429 61.8423 62.3266 60.3399 64.2126 58.1821C62.3869 58.3884 60.643 59.1502 59.3572 60.4431C58.9949 60.8073 58.693 61.1958 58.4373 61.6025C58.1496 60.95 57.7376 60.346 57.2119 59.8301C55.6456 58.2913 53.1344 57.6267 50.9642 58.179C48.6378 58.7708 47.0182 60.7527 47.1993 62.7376C47.1993 62.7619 47.1922 62.7831 47.1957 62.8074C47.1957 62.8195 47.1993 62.8317 47.2029 62.8408C47.2029 62.8529 47.2029 62.862 47.2029 62.8742C47.2064 62.8984 47.2135 62.9197 47.2206 62.9409C47.3804 64.2429 48.6662 65.2445 50.2006 65.2445C50.2539 65.2445 50.3072 65.2445 50.3569 65.2414C52.0156 65.1686 53.2942 63.9576 53.2055 62.5403C53.1451 61.5691 52.4631 60.7679 51.5041 60.3733C51.5716 60.3521 51.6355 60.3217 51.703 60.3035C52.9 60 54.3563 60.4037 55.2513 61.2838C56.1251 62.1427 56.5051 63.4538 56.2458 64.7103C55.7876 66.9107 53.4399 68.7651 50.6552 69.1232C48.002 69.4601 45.0362 68.4737 43.0863 66.6072ZM49.4192 101.124C48.6342 102.56 48.3572 104.153 48.5419 105.692C42.074 102.821 37.7124 97.7674 36.4444 91.5244C35.1835 85.3179 37.3536 79.0749 41.9746 75.6211C42.4647 75.2569 43.0295 74.8866 43.651 74.5224C44.3898 75.1203 45.4518 75.7911 46.5848 75.8548C48.7586 75.9792 49.7282 74.5012 52.8751 74.6711C51.6924 73.4966 50.023 72.6741 48.0944 72.4465C50.1686 71.6847 52.4063 71.1293 54.5054 70.9927C59.1441 70.6984 63.385 71.7909 66.2229 73.9883C64.9336 74.7683 62.9623 76.2129 62.5468 77.9671C61.8932 80.7259 64.2907 82.2647 63.3673 86.2618C65.7008 84.9628 67.5016 82.9506 68.2688 80.468C68.695 79.0901 68.7518 77.7031 68.5103 76.3798C69.7073 78.0764 70.4887 80.1281 70.7551 82.3922C71.2452 86.5835 69.7996 90.5077 66.8907 92.8902C65.2213 94.259 62.9694 95.1391 60.5542 95.4729C60.3233 94.6049 59.8474 93.4425 58.8706 92.8295C57.1196 91.7247 55.3685 92.5229 52.8219 90.9356C53.0811 92.4926 53.9904 93.9767 55.5177 95.0632C55.7308 95.215 55.9546 95.3546 56.1819 95.4851C55.2478 95.3607 54.3278 95.1512 53.4363 94.8568C49.9307 93.6914 47.2668 91.3272 46.4925 88.6898C45.6543 85.8369 47.2739 82.6683 50.1012 81.6243C51.529 81.0962 53.3582 81.2328 54.8713 81.9824C55.1412 82.116 55.3863 82.2677 55.6172 82.4286C54.3847 82.8686 53.5962 83.9703 53.788 85.151C53.9975 86.4348 55.2904 87.3665 56.7679 87.3665C56.9065 87.3665 57.045 87.3574 57.1871 87.3422C58.7783 87.151 59.8936 85.9249 59.755 84.5713C59.755 84.5349 59.7586 84.5015 59.7515 84.465C59.7515 84.459 59.7479 84.4529 59.7479 84.4468C59.7479 84.4438 59.7479 84.4408 59.7479 84.4377C59.7479 84.4317 59.7444 84.4256 59.7408 84.4195C59.4815 82.6441 58.1851 81.0598 56.1677 80.0643C53.9549 78.9717 51.2342 78.7927 49.0676 79.5909C45.7573 80.814 43.6581 83.9127 43.6723 87.1662C42.3333 86.192 40.6994 85.6669 39.0443 85.6001C41.1363 87.6154 40.3762 89.1784 41.8289 90.5623C42.6707 91.3666 44.1554 91.6519 45.1996 91.7551C46.7411 94.001 49.3411 95.8766 52.4915 96.9267C52.8183 97.036 53.1522 97.1331 53.4861 97.2241C51.7314 98.1832 50.293 99.5277 49.4192 101.124ZM72.6162 107.382C70.098 108.545 67.3666 108.475 64.4896 107.206C64.2872 105.504 62.9872 103.971 61.1616 103.397C58.9452 102.702 56.3843 103.589 55.3969 105.334C55.3543 105.4 55.3046 105.464 55.2691 105.534V105.537C55.2691 105.54 55.2655 105.54 55.2655 105.543C55.2478 105.582 55.2407 105.622 55.2264 105.658C54.7754 106.772 55.4076 108.014 56.7005 108.469C57.0237 108.584 57.3647 108.639 57.7056 108.639C58.0466 108.639 58.3911 108.581 58.7179 108.466C59.3679 108.235 59.8722 107.801 60.1422 107.246C60.4334 106.639 60.3837 105.989 60.0818 105.437C60.1422 105.449 60.2061 105.458 60.2665 105.476C61.2681 105.789 61.9927 106.815 61.9181 107.81C61.84 108.821 61.0337 109.81 59.8651 110.332C58.7321 110.836 57.2794 110.918 55.8835 110.563C54.8997 110.314 53.9833 109.865 53.2339 109.267C51.0921 107.555 50.4634 104.46 51.7741 102.062C53.0385 99.7492 56.0114 98.0588 59.1867 97.8402C61.8222 97.7279 64.3724 97.0693 66.5319 95.91C66.1519 96.8144 65.9317 97.7856 65.9175 98.7993C65.8891 101.082 66.8729 103.17 68.5139 104.754C68.83 101.142 71.3092 100.308 71.5152 97.8129C71.643 96.262 70.4141 94.6626 69.5297 93.7218C70.2969 92.966 70.9575 92.1193 71.5081 91.1936C72.428 92.9236 73.9695 94.3409 75.9443 95.0875C76.9388 95.4638 77.9795 95.652 78.9989 95.652C79.8975 95.652 80.7748 95.5033 81.574 95.2089C81.5811 95.2059 81.5882 95.2028 81.5988 95.1998C80.2065 99.9222 77.0809 105.321 72.6162 107.382ZM83.1119 87.7853C82.7105 87.5213 82.2666 87.3179 81.78 87.1874C81.6201 87.1328 81.4496 87.0903 81.2756 87.063C80.583 86.9598 79.8833 87.0873 79.3079 87.4302C78.7289 87.7732 78.3418 88.2861 78.2175 88.8779C78.0932 89.4697 78.2459 90.0676 78.6473 90.5623C79.0486 91.057 79.6524 91.3879 80.3415 91.4941C80.4978 91.5184 80.6576 91.5305 80.8103 91.5305C81.3857 91.5305 81.9291 91.3605 82.3731 91.0783C82.3234 91.9372 81.574 92.7991 80.5368 93.1815C79.5068 93.5609 78.182 93.5184 76.9885 93.0662C74.3602 92.0707 72.7476 89.2148 73.2378 86.4196C73.2414 86.4014 73.2378 86.3862 73.2414 86.368C73.4616 85.0174 73.5006 83.6061 73.3301 82.1706C73.0069 79.4027 71.9911 76.8837 70.4248 74.829C71.2523 74.9473 72.087 75.0111 72.9217 75.0141C73.22 75.8669 73.7812 76.9929 74.8006 77.5483C76.6334 78.5499 78.3169 77.6576 80.9808 79.0992C80.6008 77.5605 79.5814 76.131 77.9724 75.1325C77.6101 74.9079 77.2336 74.7197 76.8465 74.5558C77.1235 74.489 77.4041 74.4223 77.6776 74.3403C80.0715 73.618 82.1849 72.3099 83.7725 70.6559C83.8116 76.0399 84.0141 81.0477 84.3479 85.4362C83.9643 86.0129 83.499 86.805 83.1119 87.7853ZM140.225 12.9516C138.609 15.9623 137.927 19.3585 138.329 22.7182C136.979 21.7167 135.324 21.1765 133.64 21.1097C135.732 23.1249 134.972 24.6879 136.425 26.0719C137.206 26.8155 138.531 27.1159 139.554 27.2373C140.936 30.4362 143.323 33.3255 146.402 35.5835C144.956 35.62 143.529 35.8263 142.175 36.2148C140.762 36.6215 139.451 37.2224 138.283 37.966C138.631 35.2588 138.062 32.5425 136.585 30.3209C134.276 26.8519 129.666 24.697 125.293 24.9429C129.549 21.2554 135.018 16.7059 140.225 12.9516ZM113.036 36.2512C113.065 37.708 114.233 38.7612 113.736 41.086C115.263 40.2089 116.428 38.8613 116.911 37.2133C116.929 37.1587 116.936 37.1041 116.95 37.0464C118.456 39.2134 121.216 40.6641 124.082 40.5215C126.189 40.4061 128.231 39.2862 129.414 37.6018C130.309 36.321 130.579 34.9189 130.213 33.632C130.213 33.629 130.213 33.626 130.209 33.6229C130.181 33.5289 130.163 33.4348 130.128 33.3407C130.074 33.1738 130.003 33.0099 129.911 32.8521C129.9 32.8308 129.893 32.8126 129.882 32.7914C129.872 32.7731 129.861 32.761 129.85 32.7428C129.84 32.7246 129.833 32.7033 129.819 32.6851C129.808 32.67 129.79 32.6578 129.779 32.6396C129.755 32.6093 129.73 32.5819 129.705 32.5546C129.293 32.0356 128.689 31.6623 127.972 31.5076C127.19 31.3376 126.38 31.4377 125.691 31.7898C124.999 32.1419 124.509 32.7003 124.31 33.365C124.111 34.0296 124.228 34.7216 124.64 35.3134C125.052 35.9053 125.706 36.3241 126.483 36.494C126.689 36.5396 126.899 36.5547 127.105 36.5608C126.348 37.5745 125.141 38.2422 123.915 38.309C121.347 38.4395 118.779 36.4637 118.41 34.06C117.948 31.0553 120.918 27.8018 124.64 27.2404C128.273 26.6941 132.344 28.4483 134.322 31.4226C136.18 34.2117 136.283 37.9842 134.592 41.265C133.068 44.2211 130.106 46.8949 126.249 48.7857C123.454 50.1576 120.214 51.1712 116.176 51.93C117.256 51.1925 118.2 50.2789 118.939 49.1985C120.459 46.983 120.864 44.473 120.3 42.1452C117.632 45.5231 114.663 45.1529 112.83 47.4928C111.654 48.9951 111.857 51.235 112.12 52.5613C108.731 53.0044 105.293 53.2441 101.869 53.2502C101.83 53.2502 101.791 53.2563 101.752 53.2593C100.189 53.232 98.6015 53.5173 97.1132 54.103C101.056 48.6734 107.222 42.0056 113.036 36.2512ZM96.1933 91.5275C96.3496 91.5275 96.5059 91.5153 96.6621 91.491C98.09 91.2695 99.0419 90.098 98.7861 88.8779C98.6618 88.2861 98.2747 87.7732 97.6957 87.4302C97.1203 87.0873 96.4206 86.9628 95.728 87.063C95.554 87.0903 95.3835 87.1328 95.2237 87.1874C94.7406 87.3179 94.2931 87.5213 93.8917 87.7853C93.5081 86.8081 93.0393 86.0129 92.6486 85.4393C92.9789 81.0477 93.1849 76.043 93.224 70.6559C94.8116 72.3099 96.925 73.618 99.3189 74.3403C99.5924 74.4223 99.8695 74.489 100.15 74.5558C99.7629 74.7197 99.3864 74.9079 99.0241 75.1325C97.4187 76.131 96.3958 77.5605 96.0157 79.0992C98.6796 77.6576 100.363 78.5499 102.196 77.5483C103.212 76.9929 103.776 75.8669 104.075 75.0141C104.91 75.0141 105.744 74.9473 106.572 74.829C105.005 76.8867 103.993 79.4027 103.666 82.1706C103.499 83.6031 103.538 85.0144 103.755 86.365C103.759 86.3832 103.755 86.4014 103.759 86.4165C104.249 89.2118 102.64 92.0677 100.008 93.0632C98.8146 93.5154 97.4897 93.5579 96.4597 93.1755C95.4226 92.7931 94.6731 91.9311 94.6234 91.0722C95.0745 91.3575 95.6179 91.5275 96.1933 91.5275ZM123.773 109.267C123.024 109.865 122.107 110.314 121.124 110.566C119.724 110.921 118.275 110.839 117.142 110.335C115.973 109.816 115.167 108.827 115.089 107.813C115.014 106.818 115.739 105.795 116.741 105.479C116.801 105.461 116.865 105.452 116.925 105.44C116.623 105.992 116.574 106.645 116.865 107.252C117.284 108.117 118.268 108.642 119.302 108.642C119.635 108.642 119.976 108.587 120.303 108.472C121.596 108.017 122.228 106.778 121.777 105.664C121.763 105.625 121.756 105.586 121.738 105.546C121.738 105.543 121.735 105.543 121.735 105.54V105.537C121.699 105.461 121.646 105.394 121.6 105.325C120.609 103.589 118.058 102.705 115.842 103.4C114.016 103.974 112.713 105.507 112.514 107.209C109.637 108.478 106.906 108.548 104.387 107.385C99.9227 105.325 96.7971 99.9253 95.4119 95.2089C95.419 95.2119 95.4261 95.215 95.4368 95.218C96.2359 95.5154 97.1132 95.6611 98.0118 95.6611C99.0277 95.6611 100.072 95.4729 101.066 95.0966C103.038 94.35 104.579 92.9327 105.503 91.2027C106.053 92.1254 106.717 92.9752 107.481 93.7309C106.597 94.6687 105.368 96.2681 105.496 97.822C105.702 100.317 108.181 101.151 108.497 104.763C110.134 103.179 111.122 101.088 111.093 98.8084C111.079 97.7917 110.859 96.8235 110.479 95.9191C112.642 97.0785 115.196 97.7401 117.838 97.8493C121.01 98.0709 123.979 99.7614 125.24 102.071C126.544 104.46 125.915 107.558 123.773 109.267ZM140.559 91.5244C139.291 97.7674 134.933 102.821 128.462 105.692C128.646 104.153 128.369 102.56 127.584 101.124C126.711 99.5277 125.272 98.1832 123.514 97.2181C123.848 97.127 124.178 97.0299 124.505 96.9206C127.659 95.8736 130.255 93.9949 131.797 91.749C132.841 91.6489 134.322 91.3605 135.168 90.5563C136.62 89.1723 135.857 87.6063 137.952 85.5941C136.297 85.6608 134.663 86.1829 133.324 87.1571C133.338 83.9066 131.243 80.8079 127.932 79.5848C125.766 78.7836 123.045 78.9657 120.832 80.0583C118.815 81.0537 117.519 82.638 117.259 84.4135C117.259 84.4195 117.256 84.4256 117.252 84.4347C117.252 84.4377 117.252 84.4408 117.252 84.4438C117.252 84.4499 117.249 84.4559 117.249 84.462C117.245 84.4924 117.249 84.5197 117.249 84.55C117.178 85.1904 117.376 85.8217 117.831 86.3407C118.314 86.89 119.021 87.2421 119.817 87.3392C119.959 87.3544 120.097 87.3635 120.236 87.3635C121.71 87.3635 123.003 86.4317 123.216 85.1479C123.411 83.9673 122.619 82.8656 121.386 82.4255C121.614 82.2647 121.859 82.1129 122.132 81.9794C123.649 81.2298 125.475 81.0962 126.902 81.6213C129.73 82.6683 131.349 85.8369 130.511 88.6867C129.733 91.3241 127.073 93.6884 123.567 94.8538C122.679 95.1482 121.756 95.3576 120.825 95.4821C121.053 95.3515 121.276 95.215 121.489 95.0602C123.017 93.9737 123.926 92.4896 124.185 90.9326C121.639 92.5229 119.891 91.7247 118.137 92.8264C117.16 93.4425 116.684 94.6019 116.453 95.4699C114.038 95.1361 111.789 94.2559 110.116 92.8871C107.208 90.5016 105.762 86.5774 106.252 82.3891C106.515 80.1281 107.3 78.0764 108.493 76.3798C108.252 77.7031 108.305 79.087 108.735 80.468C109.506 82.9506 111.303 84.9628 113.636 86.2618C112.713 82.2647 115.107 80.7229 114.457 77.9671C114.041 76.2129 112.07 74.7683 110.781 73.9883C113.622 71.7909 117.87 70.6953 122.498 70.9927C124.597 71.1293 126.835 71.6847 128.909 72.4465C126.977 72.6772 125.308 73.4966 124.128 74.6711C127.275 74.5012 128.249 75.9792 130.419 75.8548C131.552 75.7911 132.614 75.1203 133.353 74.5224C133.974 74.8866 134.539 75.2569 135.029 75.6211C139.646 79.078 141.817 85.3179 140.559 91.5244ZM126.363 69.1232C123.582 68.7651 121.23 66.9107 120.772 64.7103C120.509 63.4569 120.893 62.1427 121.767 61.2869C122.662 60.4067 124.121 60.003 125.315 60.3065C125.382 60.3248 125.446 60.3521 125.514 60.3733C125.262 60.4765 125.02 60.6009 124.807 60.7679C124.21 61.2292 123.859 61.8574 123.816 62.5433C123.731 63.9607 125.009 65.1716 126.664 65.2445C126.718 65.2475 126.771 65.2475 126.821 65.2475C128.355 65.2475 129.637 64.249 129.801 62.944C129.804 62.9197 129.815 62.8984 129.819 62.8772C129.819 62.865 129.819 62.8559 129.819 62.8438C129.819 62.8317 129.826 62.8195 129.826 62.8104C129.826 62.7861 129.822 62.7619 129.822 62.7406C130.003 60.7557 128.384 58.7739 126.054 58.1821C123.883 57.6358 121.372 58.2944 119.806 59.8331C119.28 60.3521 118.868 60.953 118.581 61.6055C118.325 61.2019 118.023 60.8104 117.661 60.4462C116.375 59.1533 114.627 58.3915 112.805 58.1851C114.691 60.343 113.775 61.8483 115.086 63.3324C115.807 64.1519 117.149 64.5464 118.165 64.7376C118.183 64.859 118.193 64.9774 118.218 65.0988C118.499 66.4524 119.277 67.7119 120.381 68.7438C116.979 68.8288 113.825 69.5936 111.239 70.9442C111.164 70.9715 111.09 71.0018 111.019 71.0413C107.815 72.8319 103.663 73.2963 100.186 72.2492C96.6124 71.1748 93.8029 68.501 93.0286 65.4418C92.2472 62.3491 93.6786 58.874 96.5059 56.9893C98.811 55.4506 101.951 55.0348 104.32 55.9574C106.785 56.9165 108.238 59.4355 107.495 61.4598C107.137 62.431 106.146 63.2899 104.899 63.7209C104.938 63.472 104.949 63.2232 104.899 62.9682C104.767 62.2914 104.338 61.6966 103.684 61.296C103.031 60.8953 102.235 60.7345 101.443 60.8468C100.651 60.9591 99.9547 61.3263 99.4859 61.8847C99.017 62.4432 98.8288 63.123 98.9602 63.7998C99.0774 64.419 99.4574 64.9622 100.019 65.3568C100.047 65.3811 100.079 65.4053 100.111 65.4266C100.132 65.4417 100.15 65.46 100.171 65.4721C100.189 65.4842 100.21 65.4903 100.228 65.5024C100.239 65.5085 100.249 65.5176 100.26 65.5237C100.278 65.5328 100.296 65.5389 100.313 65.548C100.463 65.6299 100.619 65.6997 100.779 65.7544C102.263 66.3431 104.036 66.3765 105.734 65.8272C107.779 65.1625 109.364 63.7816 109.971 62.1275C110.845 59.7511 109.825 57.0318 107.644 55.2533C110.024 55.0833 112.4 54.8223 114.741 54.449C117.625 53.9907 120.143 53.4202 122.413 52.7221C122.949 53.4869 123.83 54.4672 124.984 54.7889C127.052 55.3686 128.423 54.1425 131.424 54.968C130.607 53.5598 129.197 52.3943 127.35 51.7722C126.899 51.6204 126.437 51.5081 125.975 51.4322C126.512 51.2046 127.037 50.9679 127.549 50.719C129.513 49.7539 131.257 48.5976 132.759 47.3138C132.816 49.0953 133.392 50.8374 134.393 52.364C135.935 54.8679 136.734 57.3292 136.755 59.6874C136.78 62.34 135.75 64.8651 133.921 66.6163C131.971 68.4737 128.998 69.4601 126.363 69.1232ZM160.478 51.5688C160.29 52.6462 159.927 53.6903 159.42 54.6584C159.348 54.7768 159.277 54.9043 159.203 55.0166C159.157 55.0833 159.121 55.1531 159.096 55.226C158.599 56.0485 157.995 56.8102 157.292 57.4749C150.462 63.8878 141.628 66.4311 136.485 67.4175C138.339 65.3173 139.384 62.5433 139.352 59.6601C139.341 58.525 139.171 57.3748 138.858 56.2154C140.247 56.8801 141.785 57.2655 143.319 57.3656C143.862 58.0971 144.694 58.9499 145.756 59.2473C147.823 59.827 149.194 58.6009 152.195 59.4264C151.456 58.1578 150.238 57.0895 148.65 56.4339C151.783 54.9377 153.545 51.7449 152.763 48.9193C152.33 47.3593 151.094 45.9784 149.368 45.1286C147.933 44.4214 146.359 44.1817 144.878 44.4305C144.736 44.4487 144.594 44.4821 144.452 44.5185C144.406 44.5307 144.36 44.5368 144.314 44.5459C144.296 44.5519 144.278 44.558 144.26 44.5641C144.243 44.5701 144.225 44.5701 144.207 44.5762C144.182 44.5853 144.164 44.5975 144.14 44.6066C144.1 44.6217 144.061 44.6369 144.026 44.6582C143.369 44.9252 142.847 45.3744 142.555 45.9511C142.239 46.5823 142.229 47.2804 142.523 47.9208C142.822 48.5581 143.39 49.0589 144.129 49.332C144.512 49.4716 144.914 49.5414 145.319 49.5414C145.695 49.5414 146.072 49.4808 146.434 49.3563C147.18 49.1014 147.766 48.6127 148.086 47.9845C148.217 47.7265 148.281 47.4564 148.309 47.1833C149.279 47.7296 149.993 48.552 150.238 49.4292C150.764 51.3291 149.453 53.584 147.251 54.5674C145.123 55.5143 142.264 55.3747 139.959 54.2093C136.681 52.5522 134.802 48.9284 135.491 45.5929C136.162 42.3455 139.181 39.4228 143.006 38.3211C146.722 37.2528 151.14 37.8355 154.536 39.8416C155.729 40.5488 156.77 41.4198 157.644 42.4032C155.932 41.605 154.021 41.4168 152.255 41.7567C154.902 43.2226 154.649 44.904 156.482 45.9116C157.509 46.4761 158.954 46.4397 159.988 46.3122C160.588 48.0057 160.783 49.8085 160.478 51.5688ZM165.777 19.9655C162.883 22.1052 157.96 22.002 155.452 19.747C153.854 18.3084 153.367 16.1657 154.294 14.6543C154.621 14.1201 155.2 13.6709 155.889 13.3735C155.79 14.1717 156.12 14.9942 156.873 15.5678C157.445 16.0018 158.159 16.2173 158.873 16.2173C159.704 16.2173 160.528 15.9259 161.124 15.3554C162.179 14.3417 162.112 12.8151 161.021 11.859C160.993 11.8287 160.961 11.8014 160.929 11.7741C160.911 11.7589 160.897 11.7407 160.876 11.7255C160.862 11.7164 160.847 11.7103 160.837 11.7012C160.822 11.6921 160.812 11.68 160.798 11.6709C160.751 11.6405 160.702 11.6162 160.656 11.5889C160.542 11.5161 160.428 11.4463 160.304 11.3917C159.139 10.812 157.693 10.6359 156.248 10.9152C154.408 11.2672 152.82 12.2809 151.996 13.6254C151.193 14.9396 151.037 16.4935 151.463 17.9836C151.073 17.8046 150.661 17.6498 150.224 17.5284C148.338 17.0003 146.381 17.1308 144.701 17.7682C147.627 18.7667 147.766 20.4572 149.79 21.14C150.899 21.5133 152.273 21.2584 153.257 20.9701C153.36 21.0733 153.463 21.1765 153.573 21.2766C156.606 24.0051 161.973 24.4725 165.909 22.5847C165.365 25.1644 164.957 28.5272 164.495 32.3543C163.977 36.6336 163.39 41.4654 162.485 45.7538C161.394 42.6611 159.132 39.8689 156.01 38.0206C155.956 37.9903 155.903 37.963 155.85 37.9326C156.486 36.7035 157.327 34.5668 156.617 32.8642C155.512 30.2146 152.529 29.9506 150.906 26.1174C149.691 28.2601 149.364 30.7761 150.203 33.2405C150.561 34.2906 151.112 35.2467 151.801 36.0995C146.452 33.6047 142.477 29.2101 141.227 24.26C139.806 18.6453 142.14 12.3962 147.031 8.7148C148.206 7.83162 149.517 7.10322 150.892 6.54478C150.966 6.51443 151.041 6.48408 151.119 6.45373C153.452 5.54627 155.964 5.13048 158.34 5.32168C162.503 5.64642 166.235 7.79824 167.848 10.8029C169.517 13.9198 168.626 17.8592 165.777 19.9655ZM171.24 13.246C171.119 12.0988 170.785 10.9607 170.206 9.88327C168.48 6.66315 164.822 4.24426 160.574 3.39447C167.802 1.52491 172.06 1.86483 173.737 4.39298C175.406 6.91505 173.545 10.1443 171.24 13.246Z" fill="#CEA34F" fill-opacity="0.66"/>
</svg>
