<svg width="1224" height="56" viewBox="0 0 1224 56" fill="none" xmlns="http://www.w3.org/2000/svg">
<path d="M1124.75 1.57073C1119.3 0.314158 1113.18 -0.188488 1106.72 0.0628277C1095.84 0.565458 1088.36 2.70165 1082.24 5.96875C1078.16 8.10493 1076.11 10.4924 1074.41 13.0056C1074.07 13.6339 1073.73 14.2621 1073.73 14.8904C1073.73 15.77 1075.09 16.3983 1077.14 16.6497C1079.18 16.901 1081.22 16.6496 1082.24 15.77C1082.92 15.2674 1083.6 14.7648 1084.28 14.2621C1085.3 13.1312 1086.32 11.8746 1087.34 10.7437C1089.72 8.48189 1093.46 6.59704 1099.24 5.34046C1107.74 3.4556 1116.24 3.70691 1123.39 6.22006C1130.19 8.60756 1133.93 11.6233 1134.27 15.1417C1134.61 18.5345 1131.89 21.6759 1127.47 24.6917C1113.52 33.8647 1092.44 39.0167 1063.87 39.7706C1047.89 40.1476 1032.25 39.268 1016.94 37.7601C1012.52 37.3831 1008.44 36.7549 1004.02 36.1266C1005.72 34.6187 1007.42 33.3621 1009.12 32.1055C1012.52 29.3411 1014.22 26.4509 1013.2 23.3095C1012.18 19.5398 1007.42 15.0161 991.777 13.2569C989.736 13.0056 987.696 12.8799 985.655 12.7543C963.55 11.2464 946.887 17.5292 946.887 24.6917C946.887 29.0897 951.648 32.7338 959.81 35.8753C962.87 37.0062 966.271 38.0114 970.012 39.268C969.672 39.3937 969.332 39.3937 968.992 39.5193C955.389 42.4095 941.106 44.1687 925.122 44.2943C914.92 44.42 904.718 43.9174 894.516 43.2891C875.131 42.1581 856.427 40.3989 838.063 38.3884C804.056 34.87 770.389 31.4773 735.021 29.8437C710.536 28.8384 686.73 28.8384 662.585 30.5976C643.201 32.1055 624.837 34.7443 608.854 39.1424C607.833 39.3937 607.153 39.645 606.473 39.8963C605.453 39.645 604.773 39.3937 604.093 39.1424C587.769 34.7443 569.745 32.1055 550.361 30.5976C526.216 28.8384 502.07 28.8384 477.925 29.8437C442.898 31.3516 408.89 34.7443 374.883 38.3884C356.179 40.3989 337.475 42.2838 318.431 43.2891C308.228 43.9174 298.026 44.42 287.824 44.2943C272.181 44.1687 257.557 42.2838 243.954 39.5193C243.614 39.3937 243.274 39.3937 242.934 39.268C246.675 38.0114 250.076 37.0062 253.136 35.8753C260.958 32.7338 265.719 29.0897 265.719 24.6917C265.719 17.5292 249.056 11.2464 226.951 12.7543C224.91 12.8799 222.87 13.1312 220.829 13.2569C205.186 15.0161 200.425 19.5398 199.405 23.3095C198.385 26.3253 200.425 29.2154 203.486 32.1055C204.846 33.3621 206.546 34.6187 208.587 36.1266C204.166 36.6292 200.085 37.2575 195.664 37.7601C180.361 39.268 164.717 40.2733 148.734 39.7706C120.168 39.0167 99.083 33.8647 85.14 24.8174C80.719 21.9273 77.9984 18.7858 77.9984 15.2674C78.3385 11.749 81.7392 8.85886 88.5407 6.34571C95.6823 3.83256 104.184 3.58125 112.686 5.46611C118.467 6.72269 122.208 8.60755 124.589 10.8694C125.609 12.0003 126.629 13.2569 127.989 14.3878C128.669 14.8904 129.009 15.3931 130.03 15.8957C131.39 16.6496 133.43 16.901 135.131 16.7753C137.171 16.524 138.532 15.8957 138.532 15.0161C138.532 14.3878 138.191 13.7595 137.851 13.1312C136.151 10.6181 134.111 8.23058 130.03 6.0944C123.908 2.95296 116.427 0.691131 105.544 0.314158C99.083 0.062843 92.9617 0.56547 87.5205 1.82205C75.2778 4.83783 68.1363 8.98453 66.776 14.3878C65.7558 18.4089 68.1363 22.3042 72.5573 26.074C86.8403 37.7601 111.326 44.797 144.993 47.3101C166.758 48.9437 187.842 47.8127 208.927 45.2996C213.688 44.6713 218.449 43.9174 223.55 43.2891C223.89 43.4147 224.57 43.5404 224.91 43.666C244.635 50.8285 268.78 53.3417 295.986 52.839C317.41 52.4621 338.155 50.9542 358.899 48.9437C389.506 45.8022 419.773 42.5351 450.719 39.5193C465.342 38.0114 480.306 37.0062 495.269 35.7496C504.111 35.1213 513.293 35.1213 522.135 35.1213C540.159 35.1213 558.183 36.1266 575.186 38.3884C583.348 39.5193 591.17 40.7759 598.311 42.4095C594.57 43.7917 590.83 45.2996 587.769 46.8075C584.368 48.441 581.648 50.2002 579.947 52.2107C579.267 52.9647 578.927 53.8443 578.927 54.7239C578.927 55.2265 579.267 55.8548 580.968 55.9805C582.668 56.1061 583.008 55.6035 583.688 55.1009C586.749 52.4621 591.17 50.3259 596.271 48.3154C599.672 46.9331 603.412 45.8022 607.493 44.6713C611.234 45.8022 614.975 46.9331 618.716 48.3154C623.817 50.3259 628.578 52.4621 631.298 55.1009C631.979 55.6035 632.319 56.1061 634.019 55.9805C635.719 55.8548 636.059 55.3522 636.059 54.7239C635.719 53.8443 635.379 52.9647 634.699 52.2107C632.999 50.2002 630.278 48.441 626.877 46.8075C623.817 45.1739 620.076 43.7917 616.335 42.4095C623.477 40.7759 631.298 39.3937 639.46 38.3884C656.464 36.1266 674.148 35.1213 692.512 35.1213C701.354 35.1213 710.536 34.9957 719.378 35.6239C734.341 36.7549 749.304 37.8858 763.927 39.268C794.534 42.2838 825.14 45.5509 855.747 48.5667C876.492 50.5772 897.236 52.0851 918.661 52.4621C945.527 52.839 969.672 50.3259 989.396 43.1634C989.736 43.0377 990.416 42.9121 990.756 42.7864C995.857 43.4147 1000.28 44.1687 1005.38 44.797C1026.12 47.3101 1047.55 48.441 1069.31 46.8075C1102.98 44.1687 1127.47 37.1318 1141.75 25.4457C1146.17 21.8016 1148.55 17.9062 1147.53 13.7595C1144.13 8.60756 1136.99 4.46086 1124.75 1.57073ZM221.51 33.4878C215.728 31.1003 211.307 28.5871 209.267 25.4457C208.247 23.9378 208.247 22.4299 209.607 20.922C211.307 18.6602 215.048 17.1523 221.169 16.524C223.89 16.2727 226.951 16.0214 230.011 16.0214C239.533 15.8957 246.675 18.4089 246.675 21.9273C246.675 23.5608 245.315 25.0687 242.934 26.3253C237.493 29.4667 230.011 31.6029 221.51 33.4878ZM1001.3 25.32C999.598 28.4615 994.837 30.9746 989.056 33.3621C980.554 31.4772 973.073 29.3411 967.631 26.4509C965.251 25.0687 963.89 23.6865 963.89 22.0529C963.89 18.5345 971.032 15.8957 980.554 16.147C983.615 16.147 986.335 16.3983 989.396 16.6497C995.517 17.2779 999.258 18.7858 1000.96 21.0477C1002.32 22.3042 1002.32 23.8121 1001.3 25.32Z" fill="#CEA34F" fill-opacity="0.66"/>
<path d="M1217.46 26.5768C1212.98 25.4459 1207.82 25.1946 1202.66 25.6972C1200.25 25.9485 1198.18 26.3255 1195.43 26.7025C1195.08 26.1999 1195.08 25.8229 1194.74 25.3203C1193.71 24.315 1193.02 23.1841 1191.3 22.3045C1185.79 19.163 1174.09 19.4143 1169.27 22.6814C1167.89 23.561 1167.2 24.5663 1166.51 25.4459C1164.45 29.2156 1165.14 32.8597 1168.24 36.6294C1168.92 37.509 1170.3 38.5143 1172.02 39.2683C1174.78 40.5248 1178.91 41.1531 1183.04 40.6505C1190.95 39.8965 1198.87 39.0169 1206.44 38.0117C1212.29 37.2577 1217.11 35.8755 1220.9 33.9906C1226.06 31.6031 1224.69 28.336 1217.46 26.5768Z" fill="#CEA34F" fill-opacity="0.66"/>
<path d="M54.7316 23.058C49.9127 19.7909 38.2098 19.5396 32.7025 22.6811C30.9814 23.5607 30.293 24.6916 29.2604 25.6968C28.9162 26.0738 28.572 26.4508 28.572 27.0791C25.8184 26.7021 23.7531 26.3251 21.3437 26.0738C16.1806 25.5712 11.0175 25.8225 6.54286 26.9534C-0.685452 28.8383 -2.06227 31.9797 3.10081 34.6185C6.88706 36.5034 11.7059 37.76 17.5574 38.5139C25.1299 39.5192 33.0467 40.3988 40.9634 41.1527C45.4381 41.5297 49.2243 41.0271 51.978 39.6448C53.699 38.8909 55.0758 38.0113 55.7642 37.006C58.5179 33.362 59.2063 29.5922 57.4853 25.8225C57.1411 24.9429 56.1084 23.9376 54.7316 23.058Z" fill="#CEA34F" fill-opacity="0.66"/>
</svg>
